<svg width="462" height="372" viewBox="0 0 462 372" fill="none" xmlns="http://www.w3.org/2000/svg">
<g clip-path="url(#clip0_15_2528)">
<rect x="129" width="1" height="326.634" fill="#E7F3D8"/>
<rect x="230" width="1" height="326.634" fill="#E7F3D8"/>
<rect x="331" width="1" height="326.634" fill="#E7F3D8"/>
<path d="M4.09424 366V356.618H0.688477V355.431H8.81836V356.618H5.4126V366H4.09424ZM12.0731 366.139C9.82461 366.139 8.43301 364.586 8.43301 362.06V362.045C8.43301 359.511 9.82461 357.965 12.0731 357.965C14.3217 357.965 15.7133 359.511 15.7133 362.045V362.06C15.7133 364.586 14.3217 366.139 12.0731 366.139ZM12.0731 365.011C13.5673 365.011 14.4096 363.92 14.4096 362.06V362.045C14.4096 360.177 13.5673 359.093 12.0731 359.093C10.579 359.093 9.73672 360.177 9.73672 362.045V362.06C9.73672 363.92 10.579 365.011 12.0731 365.011ZM20.2059 366.139C18.2063 366.139 16.8953 364.521 16.8953 362.06V362.045C16.8953 359.569 18.199 357.965 20.2059 357.965C21.2898 357.965 22.2347 358.507 22.6668 359.35H22.784V354.97H24.0584V366H22.784V364.74H22.6668C22.1834 365.619 21.3045 366.139 20.2059 366.139ZM20.4988 365.011C21.9344 365.011 22.8133 363.883 22.8133 362.06V362.045C22.8133 360.221 21.9344 359.093 20.4988 359.093C19.056 359.093 18.199 360.207 18.199 362.045V362.06C18.199 363.898 19.056 365.011 20.4988 365.011ZM28.2727 366.139C26.7712 366.139 25.6359 365.231 25.6359 363.795V363.781C25.6359 362.375 26.676 361.562 28.5144 361.452L30.7775 361.312V360.595C30.7775 359.621 30.1843 359.093 29.0051 359.093C28.0603 359.093 27.4377 359.445 27.2326 360.06L27.2253 360.082H25.9509L25.9582 360.038C26.1633 358.8 27.3645 357.965 29.049 357.965C30.9753 357.965 32.052 358.954 32.052 360.595V366H30.7775V364.835H30.6604C30.1623 365.678 29.3347 366.139 28.2727 366.139ZM26.9396 363.766C26.9396 364.564 27.6208 365.033 28.5363 365.033C29.8327 365.033 30.7775 364.184 30.7775 363.056V362.338L28.6682 362.47C27.467 362.543 26.9396 362.968 26.9396 363.751V363.766ZM34.3619 368.769C34.1935 368.769 33.9737 368.754 33.798 368.725V367.677C33.9518 367.707 34.1495 367.714 34.3253 367.714C35.0504 367.714 35.4898 367.384 35.7755 366.476L35.922 366.007L32.9996 358.104H34.3619L36.5299 364.601H36.6471L38.8077 358.104H40.148L37.0646 366.483C36.4127 368.256 35.7608 368.769 34.3619 368.769Z" fill="black" fill-opacity="0.5"/>
<path d="M380.629 366V356.896H380.512L377.824 358.844V357.453L380.636 355.431H381.947V366H380.629ZM389.428 366V363.81H384.279V362.609C385.707 360.214 387.326 357.636 388.806 355.431H390.717V362.631H392.219V363.81H390.717V366H389.428ZM385.627 362.638H389.435V356.654H389.348C388.161 358.427 386.777 360.609 385.627 362.55V362.638ZM397.842 366V355.431H399.373L402.991 364.25H403.108L406.726 355.431H408.257V366H407.027V357.929H406.946L403.606 366H402.493L399.153 357.929H399.072V366H397.842ZM412.559 366.139C411.058 366.139 409.922 365.231 409.922 363.795V363.781C409.922 362.375 410.963 361.562 412.801 361.452L415.064 361.312V360.595C415.064 359.621 414.471 359.093 413.292 359.093C412.347 359.093 411.724 359.445 411.519 360.06L411.512 360.082H410.237L410.245 360.038C410.45 358.8 411.651 357.965 413.336 357.965C415.262 357.965 416.338 358.954 416.338 360.595V366H415.064V364.835H414.947C414.449 365.678 413.621 366.139 412.559 366.139ZM411.226 363.766C411.226 364.564 411.907 365.033 412.823 365.033C414.119 365.033 415.064 364.184 415.064 363.056V362.338L412.955 362.47C411.754 362.543 411.226 362.968 411.226 363.751V363.766ZM418.268 366V358.104H419.542V359.276H419.659C419.959 358.449 420.699 357.965 421.769 357.965C422.01 357.965 422.281 357.995 422.406 358.017V359.254C422.142 359.21 421.9 359.181 421.622 359.181C420.406 359.181 419.542 359.95 419.542 361.107V366H418.268ZM427.392 366V365.092L430.966 361.225C432.314 359.767 432.709 359.218 432.709 358.295V358.28C432.709 357.167 431.955 356.332 430.71 356.332C429.443 356.332 428.6 357.16 428.6 358.405L428.593 358.419L427.333 358.412L427.319 358.405C427.326 356.53 428.776 355.182 430.798 355.182C432.643 355.182 434.057 356.435 434.057 358.141V358.156C434.057 359.364 433.537 360.243 431.625 362.213L429.223 364.696V364.813H434.233V366H427.392ZM439.582 366.249C437.246 366.249 435.854 364.118 435.854 360.719V360.705C435.854 357.306 437.246 355.182 439.582 355.182C441.919 355.182 443.325 357.306 443.325 360.705V360.719C443.325 364.118 441.919 366.249 439.582 366.249ZM439.582 365.099C441.098 365.099 441.999 363.415 441.999 360.719V360.705C441.999 358.009 441.098 356.339 439.582 356.339C438.066 356.339 437.18 358.009 437.18 360.705V360.719C437.18 363.415 438.066 365.099 439.582 365.099ZM445.093 366V365.092L448.667 361.225C450.015 359.767 450.41 359.218 450.41 358.295V358.28C450.41 357.167 449.656 356.332 448.411 356.332C447.144 356.332 446.301 357.16 446.301 358.405L446.294 358.419L445.034 358.412L445.02 358.405C445.027 356.53 446.477 355.182 448.499 355.182C450.344 355.182 451.758 356.435 451.758 358.141V358.156C451.758 359.364 451.238 360.243 449.326 362.213L446.924 364.696V364.813H451.934V366H445.093ZM458.353 366V363.81H453.204V362.609C454.632 360.214 456.25 357.636 457.73 355.431H459.642V362.631H461.143V363.81H459.642V366H458.353ZM454.551 362.638H458.36V356.654H458.272C457.085 358.427 455.701 360.609 454.551 362.55V362.638Z" fill="black" fill-opacity="0.5"/>
<path d="M17.5 50C119.507 271.741 280.586 294.282 408.5 322" stroke="#3710D2" stroke-width="3" stroke-linecap="round"/>
<circle cx="14" cy="33" r="5" fill="#3710D2"/>
<path d="M5.05371 16.2124C2.62207 16.2124 0.930176 14.9526 0.930176 13.1436V13.1289C0.930176 11.7739 1.91895 10.7266 3.3252 10.4409V10.397C2.1167 10.0747 1.31104 9.18848 1.31104 8.05322V8.03857C1.31104 6.4126 2.86377 5.21875 5.05371 5.21875C7.24365 5.21875 8.79639 6.4126 8.79639 8.03857V8.05322C8.79639 9.18848 7.99072 10.0747 6.78223 10.397V10.4409C8.1958 10.7266 9.17725 11.7739 9.17725 13.1289V13.1436C9.17725 14.9526 7.48535 16.2124 5.05371 16.2124ZM5.05371 9.79639C6.15967 9.79639 6.92871 9.15186 6.92871 8.229V8.21436C6.92871 7.2915 6.15967 6.64697 5.05371 6.64697C3.94775 6.64697 3.17871 7.2915 3.17871 8.21436V8.229C3.17871 9.15186 3.94775 9.79639 5.05371 9.79639ZM5.05371 14.7695C6.3208 14.7695 7.22168 14.0371 7.22168 13.019V13.0044C7.22168 11.979 6.32812 11.2393 5.05371 11.2393C3.77197 11.2393 2.88574 11.979 2.88574 13.0044V13.019C2.88574 14.0371 3.78662 14.7695 5.05371 14.7695ZM14.6439 16.2637C12.1317 16.2637 10.6229 14.1323 10.6229 10.7192V10.7046C10.6229 7.2915 12.1317 5.16748 14.6439 5.16748C17.1562 5.16748 18.6796 7.2915 18.6796 10.7046V10.7192C18.6796 14.1323 17.1562 16.2637 14.6439 16.2637ZM14.6439 14.7329C15.9916 14.7329 16.7753 13.2241 16.7753 10.7192V10.7046C16.7753 8.19971 15.9916 6.70557 14.6439 6.70557C13.2963 6.70557 12.5272 8.19971 12.5272 10.7046V10.7192C12.5272 13.2241 13.2963 14.7329 14.6439 14.7329ZM24.0246 16V4.89648H25.8483V11.2759H25.9729L28.9245 7.99463H31.0339L27.8112 11.3784L31.2536 16H29.0563L26.4855 12.5356L25.8483 13.1875V16H24.0246ZM35.2555 18.8125C33.1461 18.8125 31.879 17.9116 31.6959 16.564L31.7032 16.542H33.527L33.5343 16.564C33.6588 17.0767 34.2667 17.4355 35.2848 17.4355C36.5299 17.4355 37.255 16.8569 37.255 15.8315V14.3008H37.1305C36.669 15.1577 35.7975 15.6265 34.6915 15.6265C32.6627 15.6265 31.4029 14.0591 31.4029 11.7886V11.7739C31.4029 9.45947 32.6627 7.86279 34.7281 7.86279C35.8341 7.86279 36.6983 8.40479 37.1524 9.31299H37.2477V7.99463H39.0714V15.8022C39.0714 17.6479 37.5919 18.8125 35.2555 18.8125ZM35.2555 14.1763C36.5226 14.1763 37.2843 13.2021 37.2843 11.7886V11.7739C37.2843 10.3604 36.5152 9.37891 35.2555 9.37891C33.9884 9.37891 33.2706 10.3604 33.2706 11.7739V11.7886C33.2706 13.2021 33.9884 14.1763 35.2555 14.1763Z" fill="black"/>
<path d="M426.876 309.264C424.621 309.264 422.658 307.66 422.658 303.851V303.836C422.658 300.277 424.262 298.167 426.92 298.167C428.861 298.167 430.311 299.317 430.648 300.936L430.663 301.017H428.81L428.781 300.943C428.502 300.204 427.85 299.72 426.92 299.72C425.243 299.72 424.533 301.361 424.452 303.382C424.452 303.463 424.445 303.543 424.445 303.624H424.591C424.979 302.789 425.902 302.049 427.352 302.049C429.381 302.049 430.802 303.529 430.802 305.536V305.55C430.802 307.696 429.169 309.264 426.876 309.264ZM424.774 305.572C424.774 306.781 425.69 307.726 426.862 307.726C428.034 307.726 428.956 306.795 428.956 305.616V305.602C428.956 304.378 428.085 303.5 426.884 303.5C425.69 303.5 424.774 304.364 424.774 305.558V305.572ZM436.393 309.212C433.962 309.212 432.27 307.953 432.27 306.144V306.129C432.27 304.774 433.259 303.727 434.665 303.441V303.397C433.456 303.075 432.651 302.188 432.651 301.053V301.039C432.651 299.413 434.203 298.219 436.393 298.219C438.583 298.219 440.136 299.413 440.136 301.039V301.053C440.136 302.188 439.33 303.075 438.122 303.397V303.441C439.535 303.727 440.517 304.774 440.517 306.129V306.144C440.517 307.953 438.825 309.212 436.393 309.212ZM436.393 302.796C437.499 302.796 438.268 302.152 438.268 301.229V301.214C438.268 300.292 437.499 299.647 436.393 299.647C435.287 299.647 434.518 300.292 434.518 301.214V301.229C434.518 302.152 435.287 302.796 436.393 302.796ZM436.393 307.77C437.66 307.77 438.561 307.037 438.561 306.019V306.004C438.561 304.979 437.668 304.239 436.393 304.239C435.112 304.239 434.225 304.979 434.225 306.004V306.019C434.225 307.037 435.126 307.77 436.393 307.77ZM445.833 309V297.896H447.656V304.276H447.781L450.733 300.995H452.842L449.619 304.378L453.062 309H450.864L448.294 305.536L447.656 306.188V309H445.833ZM457.063 311.812C454.954 311.812 453.687 310.912 453.504 309.564L453.511 309.542H455.335L455.342 309.564C455.467 310.077 456.075 310.436 457.093 310.436C458.338 310.436 459.063 309.857 459.063 308.832V307.301H458.938C458.477 308.158 457.605 308.626 456.5 308.626C454.471 308.626 453.211 307.059 453.211 304.789V304.774C453.211 302.459 454.471 300.863 456.536 300.863C457.642 300.863 458.506 301.405 458.96 302.313H459.056V300.995H460.879V308.802C460.879 310.648 459.4 311.812 457.063 311.812ZM457.063 307.176C458.331 307.176 459.092 306.202 459.092 304.789V304.774C459.092 303.36 458.323 302.379 457.063 302.379C455.796 302.379 455.079 303.36 455.079 304.774V304.789C455.079 306.202 455.796 307.176 457.063 307.176Z" fill="black"/>
<circle cx="422" cy="327" r="5" fill="#3710D2"/>
</g>
<defs>
<clipPath id="clip0_15_2528">
<rect width="462" height="372" fill="white"/>
</clipPath>
</defs>
</svg>
