<svg width="345" height="159" viewBox="0 0 345 159" fill="none" xmlns="http://www.w3.org/2000/svg">
<g clip-path="url(#clip0_9_1833)">
<rect x="71" width="1" height="139.61" fill="#D2ECD2"/>
<rect x="172" width="1" height="139.61" fill="#D2ECD2"/>
<rect x="273" width="1" height="139.61" fill="#D2ECD2"/>
<path d="M4.09424 153V143.618H0.688477V142.431H8.81836V143.618H5.4126V153H4.09424ZM12.0731 153.139C9.82461 153.139 8.43301 151.586 8.43301 149.06V149.045C8.43301 146.511 9.82461 144.965 12.0731 144.965C14.3217 144.965 15.7133 146.511 15.7133 149.045V149.06C15.7133 151.586 14.3217 153.139 12.0731 153.139ZM12.0731 152.011C13.5673 152.011 14.4096 150.92 14.4096 149.06V149.045C14.4096 147.177 13.5673 146.093 12.0731 146.093C10.579 146.093 9.73672 147.177 9.73672 149.045V149.06C9.73672 150.92 10.579 152.011 12.0731 152.011ZM20.2059 153.139C18.2063 153.139 16.8953 151.521 16.8953 149.06V149.045C16.8953 146.569 18.199 144.965 20.2059 144.965C21.2898 144.965 22.2347 145.507 22.6668 146.35H22.784V141.97H24.0584V153H22.784V151.74H22.6668C22.1834 152.619 21.3045 153.139 20.2059 153.139ZM20.4988 152.011C21.9344 152.011 22.8133 150.883 22.8133 149.06V149.045C22.8133 147.221 21.9344 146.093 20.4988 146.093C19.056 146.093 18.199 147.207 18.199 149.045V149.06C18.199 150.898 19.056 152.011 20.4988 152.011ZM28.2727 153.139C26.7712 153.139 25.6359 152.231 25.6359 150.795V150.781C25.6359 149.375 26.676 148.562 28.5144 148.452L30.7775 148.312V147.595C30.7775 146.621 30.1843 146.093 29.0051 146.093C28.0603 146.093 27.4377 146.445 27.2326 147.06L27.2253 147.082H25.9509L25.9582 147.038C26.1633 145.8 27.3645 144.965 29.049 144.965C30.9753 144.965 32.052 145.954 32.052 147.595V153H30.7775V151.835H30.6604C30.1623 152.678 29.3347 153.139 28.2727 153.139ZM26.9396 150.766C26.9396 151.564 27.6208 152.033 28.5363 152.033C29.8327 152.033 30.7775 151.184 30.7775 150.056V149.338L28.6682 149.47C27.467 149.543 26.9396 149.968 26.9396 150.751V150.766ZM34.3619 155.769C34.1935 155.769 33.9737 155.754 33.798 155.725V154.677C33.9518 154.707 34.1495 154.714 34.3253 154.714C35.0504 154.714 35.4898 154.384 35.7755 153.476L35.922 153.007L32.9996 145.104H34.3619L36.5299 151.601H36.6471L38.8077 145.104H40.148L37.0646 153.483C36.4127 155.256 35.7608 155.769 34.3619 155.769Z" fill="black" fill-opacity="0.5"/>
<path d="M281.003 153V142.431H282.534L286.152 151.25H286.269L289.887 142.431H291.418V153H290.188V144.929H290.107L286.767 153H285.654L282.314 144.929H282.234V153H281.003ZM295.72 153.139C294.219 153.139 293.084 152.231 293.084 150.795V150.781C293.084 149.375 294.124 148.562 295.962 148.452L298.225 148.312V147.595C298.225 146.621 297.632 146.093 296.453 146.093C295.508 146.093 294.885 146.445 294.68 147.06L294.673 147.082H293.399L293.406 147.038C293.611 145.8 294.812 144.965 296.497 144.965C298.423 144.965 299.5 145.954 299.5 147.595V153H298.225V151.835H298.108C297.61 152.678 296.782 153.139 295.72 153.139ZM294.387 150.766C294.387 151.564 295.068 152.033 295.984 152.033C297.28 152.033 298.225 151.184 298.225 150.056V149.338L296.116 149.47C294.915 149.543 294.387 149.968 294.387 150.751V150.766ZM301.429 153V145.104H302.703V146.276H302.82C303.121 145.449 303.86 144.965 304.93 144.965C305.171 144.965 305.442 144.995 305.567 145.017V146.254C305.303 146.21 305.062 146.181 304.783 146.181C303.567 146.181 302.703 146.95 302.703 148.107V153H301.429ZM310.553 153V152.092L314.127 148.225C315.475 146.767 315.87 146.218 315.87 145.295V145.28C315.87 144.167 315.116 143.332 313.871 143.332C312.604 143.332 311.762 144.16 311.762 145.405L311.754 145.419L310.494 145.412L310.48 145.405C310.487 143.53 311.937 142.182 313.959 142.182C315.804 142.182 317.218 143.435 317.218 145.141V145.156C317.218 146.364 316.698 147.243 314.786 149.213L312.384 151.696V151.813H317.394V153H310.553ZM322.743 153.249C320.407 153.249 319.015 151.118 319.015 147.719V147.705C319.015 144.306 320.407 142.182 322.743 142.182C325.08 142.182 326.486 144.306 326.486 147.705V147.719C326.486 151.118 325.08 153.249 322.743 153.249ZM322.743 152.099C324.259 152.099 325.16 150.415 325.16 147.719V147.705C325.16 145.009 324.259 143.339 322.743 143.339C321.227 143.339 320.341 145.009 320.341 147.705V147.719C320.341 150.415 321.227 152.099 322.743 152.099ZM328.254 153V152.092L331.828 148.225C333.176 146.767 333.571 146.218 333.571 145.295V145.28C333.571 144.167 332.817 143.332 331.572 143.332C330.305 143.332 329.463 144.16 329.463 145.405L329.455 145.419L328.195 145.412L328.181 145.405C328.188 143.53 329.638 142.182 331.66 142.182C333.505 142.182 334.919 143.435 334.919 145.141V145.156C334.919 146.364 334.399 147.243 332.487 149.213L330.085 151.696V151.813H335.095V153H328.254ZM340.378 153.249C338.408 153.249 337.002 151.982 336.848 150.29L336.841 150.209H338.108L338.115 150.268C338.24 151.279 339.155 152.084 340.393 152.084C341.799 152.084 342.766 151.081 342.766 149.653V149.638C342.766 148.232 341.785 147.229 340.415 147.229C339.712 147.229 339.111 147.441 338.657 147.873C338.474 148.049 338.306 148.254 338.174 148.503H337.031L337.588 142.431H343.469V143.61H338.628L338.269 147.185H338.386C338.855 146.474 339.683 146.086 340.642 146.086C342.627 146.086 344.055 147.573 344.055 149.616V149.631C344.055 151.762 342.524 153.249 340.378 153.249Z" fill="black" fill-opacity="0.5"/>
<path d="M142.629 153V143.896H142.512L139.824 145.844V144.453L142.636 142.431H143.947V153H142.629ZM151.428 153V150.81H146.279V149.609C147.707 147.214 149.326 144.636 150.806 142.431H152.717V149.631H154.219V150.81H152.717V153H151.428ZM147.627 149.638H151.435V143.654H151.348C150.161 145.427 148.777 147.609 147.627 149.55V149.638ZM159.842 153V142.431H161.373L164.991 151.25H165.108L168.726 142.431H170.257V153H169.027V144.929H168.946L165.606 153H164.493L161.153 144.929H161.072V153H159.842ZM174.559 153.139C173.058 153.139 171.922 152.231 171.922 150.795V150.781C171.922 149.375 172.963 148.562 174.801 148.452L177.064 148.312V147.595C177.064 146.621 176.471 146.093 175.292 146.093C174.347 146.093 173.724 146.445 173.519 147.06L173.512 147.082H172.237L172.245 147.038C172.45 145.8 173.651 144.965 175.336 144.965C177.262 144.965 178.338 145.954 178.338 147.595V153H177.064V151.835H176.947C176.449 152.678 175.621 153.139 174.559 153.139ZM173.226 150.766C173.226 151.564 173.907 152.033 174.823 152.033C176.119 152.033 177.064 151.184 177.064 150.056V149.338L174.955 149.47C173.754 149.543 173.226 149.968 173.226 150.751V150.766ZM180.268 153V145.104H181.542V146.276H181.659C181.959 145.449 182.699 144.965 183.769 144.965C184.01 144.965 184.281 144.995 184.406 145.017V146.254C184.142 146.21 183.9 146.181 183.622 146.181C182.406 146.181 181.542 146.95 181.542 148.107V153H180.268ZM189.392 153V152.092L192.966 148.225C194.314 146.767 194.709 146.218 194.709 145.295V145.28C194.709 144.167 193.955 143.332 192.71 143.332C191.443 143.332 190.6 144.16 190.6 145.405L190.593 145.419L189.333 145.412L189.319 145.405C189.326 143.53 190.776 142.182 192.798 142.182C194.643 142.182 196.057 143.435 196.057 145.141V145.156C196.057 146.364 195.537 147.243 193.625 149.213L191.223 151.696V151.813H196.233V153H189.392ZM201.582 153.249C199.246 153.249 197.854 151.118 197.854 147.719V147.705C197.854 144.306 199.246 142.182 201.582 142.182C203.919 142.182 205.325 144.306 205.325 147.705V147.719C205.325 151.118 203.919 153.249 201.582 153.249ZM201.582 152.099C203.098 152.099 203.999 150.415 203.999 147.719V147.705C203.999 145.009 203.098 143.339 201.582 143.339C200.066 143.339 199.18 145.009 199.18 147.705V147.719C199.18 150.415 200.066 152.099 201.582 152.099ZM207.093 153V152.092L210.667 148.225C212.015 146.767 212.41 146.218 212.41 145.295V145.28C212.41 144.167 211.656 143.332 210.411 143.332C209.144 143.332 208.301 144.16 208.301 145.405L208.294 145.419L207.034 145.412L207.02 145.405C207.027 143.53 208.477 142.182 210.499 142.182C212.344 142.182 213.758 143.435 213.758 145.141V145.156C213.758 146.364 213.238 147.243 211.326 149.213L208.924 151.696V151.813H213.934V153H207.093ZM220.353 153V150.81H215.204V149.609C216.632 147.214 218.25 144.636 219.73 142.431H221.642V149.631H223.143V150.81H221.642V153H220.353ZM216.551 149.638H220.36V143.654H220.272C219.085 145.427 217.701 147.609 216.551 149.55V149.638Z" fill="black" fill-opacity="0.5"/>
<path d="M24.5 37C129.5 61 178 41 295 56.5" stroke="black" stroke-opacity="0.2" stroke-width="2" stroke-linecap="round" stroke-dasharray="6 6"/>
<path d="M20 42.5C51.5 82.5 80 96 162.5 112.5" stroke="#3710D2" stroke-width="3" stroke-linecap="round"/>
<circle cx="14" cy="33" r="5" fill="#3710D2"/>
<path d="M5.05371 16.2124C2.62207 16.2124 0.930176 14.9526 0.930176 13.1436V13.1289C0.930176 11.7739 1.91895 10.7266 3.3252 10.4409V10.397C2.1167 10.0747 1.31104 9.18848 1.31104 8.05322V8.03857C1.31104 6.4126 2.86377 5.21875 5.05371 5.21875C7.24365 5.21875 8.79639 6.4126 8.79639 8.03857V8.05322C8.79639 9.18848 7.99072 10.0747 6.78223 10.397V10.4409C8.1958 10.7266 9.17725 11.7739 9.17725 13.1289V13.1436C9.17725 14.9526 7.48535 16.2124 5.05371 16.2124ZM5.05371 9.79639C6.15967 9.79639 6.92871 9.15186 6.92871 8.229V8.21436C6.92871 7.2915 6.15967 6.64697 5.05371 6.64697C3.94775 6.64697 3.17871 7.2915 3.17871 8.21436V8.229C3.17871 9.15186 3.94775 9.79639 5.05371 9.79639ZM5.05371 14.7695C6.3208 14.7695 7.22168 14.0371 7.22168 13.019V13.0044C7.22168 11.979 6.32812 11.2393 5.05371 11.2393C3.77197 11.2393 2.88574 11.979 2.88574 13.0044V13.019C2.88574 14.0371 3.78662 14.7695 5.05371 14.7695ZM14.6439 16.2637C12.1317 16.2637 10.6229 14.1323 10.6229 10.7192V10.7046C10.6229 7.2915 12.1317 5.16748 14.6439 5.16748C17.1562 5.16748 18.6796 7.2915 18.6796 10.7046V10.7192C18.6796 14.1323 17.1562 16.2637 14.6439 16.2637ZM14.6439 14.7329C15.9916 14.7329 16.7753 13.2241 16.7753 10.7192V10.7046C16.7753 8.19971 15.9916 6.70557 14.6439 6.70557C13.2963 6.70557 12.5272 8.19971 12.5272 10.7046V10.7192C12.5272 13.2241 13.2963 14.7329 14.6439 14.7329ZM24.0246 16V4.89648H25.8483V11.2759H25.9729L28.9245 7.99463H31.0339L27.8112 11.3784L31.2536 16H29.0563L26.4855 12.5356L25.8483 13.1875V16H24.0246ZM35.2555 18.8125C33.1461 18.8125 31.879 17.9116 31.6959 16.564L31.7032 16.542H33.527L33.5343 16.564C33.6588 17.0767 34.2667 17.4355 35.2848 17.4355C36.5299 17.4355 37.255 16.8569 37.255 15.8315V14.3008H37.1305C36.669 15.1577 35.7975 15.6265 34.6915 15.6265C32.6627 15.6265 31.4029 14.0591 31.4029 11.7886V11.7739C31.4029 9.45947 32.6627 7.86279 34.7281 7.86279C35.8341 7.86279 36.6983 8.40479 37.1524 9.31299H37.2477V7.99463H39.0714V15.8022C39.0714 17.6479 37.5919 18.8125 35.2555 18.8125ZM35.2555 14.1763C36.5226 14.1763 37.2843 13.2021 37.2843 11.7886V11.7739C37.2843 10.3604 36.5152 9.37891 35.2555 9.37891C33.9884 9.37891 33.2706 10.3604 33.2706 11.7739V11.7886C33.2706 13.2021 33.9884 14.1763 35.2555 14.1763Z" fill="black"/>
<path d="M188.876 119.264C186.621 119.264 184.658 117.66 184.658 113.851V113.836C184.658 110.277 186.262 108.167 188.92 108.167C190.861 108.167 192.311 109.317 192.648 110.936L192.663 111.017H190.81L190.781 110.943C190.502 110.204 189.85 109.72 188.92 109.72C187.243 109.72 186.533 111.361 186.452 113.382C186.452 113.463 186.445 113.543 186.445 113.624H186.591C186.979 112.789 187.902 112.049 189.352 112.049C191.381 112.049 192.802 113.529 192.802 115.536V115.55C192.802 117.696 191.169 119.264 188.876 119.264ZM186.774 115.572C186.774 116.781 187.69 117.726 188.862 117.726C190.034 117.726 190.956 116.795 190.956 115.616V115.602C190.956 114.378 190.085 113.5 188.884 113.5C187.69 113.5 186.774 114.364 186.774 115.558V115.572ZM198.393 119.212C195.962 119.212 194.27 117.953 194.27 116.144V116.129C194.27 114.774 195.259 113.727 196.665 113.441V113.397C195.456 113.075 194.651 112.188 194.651 111.053V111.039C194.651 109.413 196.203 108.219 198.393 108.219C200.583 108.219 202.136 109.413 202.136 111.039V111.053C202.136 112.188 201.33 113.075 200.122 113.397V113.441C201.535 113.727 202.517 114.774 202.517 116.129V116.144C202.517 117.953 200.825 119.212 198.393 119.212ZM198.393 112.796C199.499 112.796 200.268 112.152 200.268 111.229V111.214C200.268 110.292 199.499 109.647 198.393 109.647C197.287 109.647 196.518 110.292 196.518 111.214V111.229C196.518 112.152 197.287 112.796 198.393 112.796ZM198.393 117.77C199.66 117.77 200.561 117.037 200.561 116.019V116.004C200.561 114.979 199.668 114.239 198.393 114.239C197.112 114.239 196.225 114.979 196.225 116.004V116.019C196.225 117.037 197.126 117.77 198.393 117.77ZM207.833 119V107.896H209.656V114.276H209.781L212.733 110.995H214.842L211.619 114.378L215.062 119H212.864L210.294 115.536L209.656 116.188V119H207.833ZM219.063 121.812C216.954 121.812 215.687 120.912 215.504 119.564L215.511 119.542H217.335L217.342 119.564C217.467 120.077 218.075 120.436 219.093 120.436C220.338 120.436 221.063 119.857 221.063 118.832V117.301H220.938C220.477 118.158 219.605 118.626 218.5 118.626C216.471 118.626 215.211 117.059 215.211 114.789V114.774C215.211 112.459 216.471 110.863 218.536 110.863C219.642 110.863 220.506 111.405 220.96 112.313H221.056V110.995H222.879V118.802C222.879 120.648 221.4 121.812 219.063 121.812ZM219.063 117.176C220.331 117.176 221.092 116.202 221.092 114.789V114.774C221.092 113.36 220.323 112.379 219.063 112.379C217.796 112.379 217.079 113.36 217.079 114.774V114.789C217.079 116.202 217.796 117.176 219.063 117.176Z" fill="black"/>
<path d="M162.146 99V87.022H167.359C169.616 87.022 171.036 88.1841 171.036 90.0269V90.0435C171.036 91.355 170.04 92.4756 168.72 92.6499V92.6997C170.388 92.8242 171.592 94.0029 171.592 95.5718V95.5884C171.592 97.6885 170.006 99 167.45 99H162.146ZM166.711 88.8813H164.652V92.0273H166.404C167.815 92.0273 168.57 91.438 168.57 90.4004V90.3838C168.57 89.4292 167.881 88.8813 166.711 88.8813ZM166.703 93.729H164.652V97.1323H166.811C168.247 97.1323 169.035 96.543 169.035 95.4307V95.4141C169.035 94.3184 168.238 93.729 166.703 93.729ZM176.503 99.1826C173.78 99.1826 172.128 97.4146 172.128 94.5674V94.5591C172.128 91.7285 173.797 89.9189 176.403 89.9189C179.01 89.9189 180.645 91.687 180.645 94.3765V95.1235H174.519C174.544 96.543 175.316 97.373 176.553 97.373C177.549 97.373 178.155 96.8252 178.329 96.3271L178.346 96.2773H180.57L180.545 96.3687C180.271 97.6802 179.043 99.1826 176.503 99.1826ZM176.445 91.7285C175.449 91.7285 174.702 92.3926 174.544 93.5962H178.321C178.171 92.3677 177.449 91.7285 176.445 91.7285ZM182.8 93.231C182.045 93.231 181.455 92.6416 181.455 91.8862C181.455 91.1392 182.045 90.5415 182.8 90.5415C183.547 90.5415 184.145 91.1392 184.145 91.8862C184.145 92.6416 183.547 93.231 182.8 93.231ZM182.8 99.1411C182.045 99.1411 181.455 98.5435 181.455 97.7964C181.455 97.041 182.045 96.4517 182.8 96.4517C183.547 96.4517 184.145 97.041 184.145 97.7964C184.145 98.5435 183.547 99.1411 182.8 99.1411Z" fill="black"/>
<circle cx="173" cy="114" r="5" fill="#3710D2"/>
<circle cx="307" cy="58" r="5" fill="black" fill-opacity="0.2"/>
</g>
<defs>
<clipPath id="clip0_9_1833">
<rect width="345" height="159" fill="white"/>
</clipPath>
</defs>
</svg>
