<svg width="428" height="255" viewBox="0 0 428 255" fill="none" xmlns="http://www.w3.org/2000/svg">
<g clip-path="url(#clip0_15_2616)">
<rect x="112" width="1" height="223.902" fill="#E7F3D8"/>
<rect x="213" width="1" height="223.902" fill="#E7F3D8"/>
<rect x="314" width="1" height="223.902" fill="#E7F3D8"/>
<path d="M4.09424 249V239.618H0.688477V238.431H8.81836V239.618H5.4126V249H4.09424ZM12.0731 249.139C9.82461 249.139 8.43301 247.586 8.43301 245.06V245.045C8.43301 242.511 9.82461 240.965 12.0731 240.965C14.3217 240.965 15.7133 242.511 15.7133 245.045V245.06C15.7133 247.586 14.3217 249.139 12.0731 249.139ZM12.0731 248.011C13.5673 248.011 14.4096 246.92 14.4096 245.06V245.045C14.4096 243.177 13.5673 242.093 12.0731 242.093C10.579 242.093 9.73672 243.177 9.73672 245.045V245.06C9.73672 246.92 10.579 248.011 12.0731 248.011ZM20.2059 249.139C18.2063 249.139 16.8953 247.521 16.8953 245.06V245.045C16.8953 242.569 18.199 240.965 20.2059 240.965C21.2898 240.965 22.2347 241.507 22.6668 242.35H22.784V237.97H24.0584V249H22.784V247.74H22.6668C22.1834 248.619 21.3045 249.139 20.2059 249.139ZM20.4988 248.011C21.9344 248.011 22.8133 246.883 22.8133 245.06V245.045C22.8133 243.221 21.9344 242.093 20.4988 242.093C19.056 242.093 18.199 243.207 18.199 245.045V245.06C18.199 246.898 19.056 248.011 20.4988 248.011ZM28.2727 249.139C26.7712 249.139 25.6359 248.231 25.6359 246.795V246.781C25.6359 245.375 26.676 244.562 28.5144 244.452L30.7775 244.312V243.595C30.7775 242.621 30.1843 242.093 29.0051 242.093C28.0603 242.093 27.4377 242.445 27.2326 243.06L27.2253 243.082H25.9509L25.9582 243.038C26.1633 241.8 27.3645 240.965 29.049 240.965C30.9753 240.965 32.052 241.954 32.052 243.595V249H30.7775V247.835H30.6604C30.1623 248.678 29.3347 249.139 28.2727 249.139ZM26.9396 246.766C26.9396 247.564 27.6208 248.033 28.5363 248.033C29.8327 248.033 30.7775 247.184 30.7775 246.056V245.338L28.6682 245.47C27.467 245.543 26.9396 245.968 26.9396 246.751V246.766ZM34.3619 251.769C34.1935 251.769 33.9737 251.754 33.798 251.725V250.677C33.9518 250.707 34.1495 250.714 34.3253 250.714C35.0504 250.714 35.4898 250.384 35.7755 249.476L35.922 249.007L32.9996 241.104H34.3619L36.5299 247.601H36.6471L38.8077 241.104H40.148L37.0646 249.483C36.4127 251.256 35.7608 251.769 34.3619 251.769Z" fill="black" fill-opacity="0.5"/>
<path d="M346.629 249V239.896H346.512L343.824 241.844V240.453L346.636 238.431H347.947V249H346.629ZM355.428 249V246.81H350.279V245.609C351.707 243.214 353.326 240.636 354.806 238.431H356.717V245.631H358.219V246.81H356.717V249H355.428ZM351.627 245.638H355.435V239.654H355.348C354.161 241.427 352.777 243.609 351.627 245.55V245.638ZM363.842 249V238.431H365.373L368.991 247.25H369.108L372.726 238.431H374.257V249H373.027V240.929H372.946L369.606 249H368.493L365.153 240.929H365.072V249H363.842ZM378.559 249.139C377.058 249.139 375.922 248.231 375.922 246.795V246.781C375.922 245.375 376.963 244.562 378.801 244.452L381.064 244.312V243.595C381.064 242.621 380.471 242.093 379.292 242.093C378.347 242.093 377.724 242.445 377.519 243.06L377.512 243.082H376.237L376.245 243.038C376.45 241.8 377.651 240.965 379.336 240.965C381.262 240.965 382.338 241.954 382.338 243.595V249H381.064V247.835H380.947C380.449 248.678 379.621 249.139 378.559 249.139ZM377.226 246.766C377.226 247.564 377.907 248.033 378.823 248.033C380.119 248.033 381.064 247.184 381.064 246.056V245.338L378.955 245.47C377.754 245.543 377.226 245.968 377.226 246.751V246.766ZM384.268 249V241.104H385.542V242.276H385.659C385.959 241.449 386.699 240.965 387.769 240.965C388.01 240.965 388.281 240.995 388.406 241.017V242.254C388.142 242.21 387.9 242.181 387.622 242.181C386.406 242.181 385.542 242.95 385.542 244.107V249H384.268ZM393.392 249V248.092L396.966 244.225C398.314 242.767 398.709 242.218 398.709 241.295V241.28C398.709 240.167 397.955 239.332 396.71 239.332C395.443 239.332 394.6 240.16 394.6 241.405L394.593 241.419L393.333 241.412L393.319 241.405C393.326 239.53 394.776 238.182 396.798 238.182C398.643 238.182 400.057 239.435 400.057 241.141V241.156C400.057 242.364 399.537 243.243 397.625 245.213L395.223 247.696V247.813H400.233V249H393.392ZM405.582 249.249C403.246 249.249 401.854 247.118 401.854 243.719V243.705C401.854 240.306 403.246 238.182 405.582 238.182C407.919 238.182 409.325 240.306 409.325 243.705V243.719C409.325 247.118 407.919 249.249 405.582 249.249ZM405.582 248.099C407.098 248.099 407.999 246.415 407.999 243.719V243.705C407.999 241.009 407.098 239.339 405.582 239.339C404.066 239.339 403.18 241.009 403.18 243.705V243.719C403.18 246.415 404.066 248.099 405.582 248.099ZM411.093 249V248.092L414.667 244.225C416.015 242.767 416.41 242.218 416.41 241.295V241.28C416.41 240.167 415.656 239.332 414.411 239.332C413.144 239.332 412.301 240.16 412.301 241.405L412.294 241.419L411.034 241.412L411.02 241.405C411.027 239.53 412.477 238.182 414.499 238.182C416.344 238.182 417.758 239.435 417.758 241.141V241.156C417.758 242.364 417.238 243.243 415.326 245.213L412.924 247.696V247.813H417.934V249H411.093ZM424.353 249V246.81H419.204V245.609C420.632 243.214 422.25 240.636 423.73 238.431H425.642V245.631H427.143V246.81H425.642V249H424.353ZM420.551 245.638H424.36V239.654H424.272C423.085 241.427 421.701 243.609 420.551 245.55V245.638Z" fill="black" fill-opacity="0.5"/>
<path d="M19.5 44.5C114 196.5 257.5 188.5 376 207.5" stroke="#3710D2" stroke-width="3" stroke-linecap="round"/>
<circle cx="14" cy="33" r="5" fill="#3710D2"/>
<path d="M5.05371 16.2124C2.62207 16.2124 0.930176 14.9526 0.930176 13.1436V13.1289C0.930176 11.7739 1.91895 10.7266 3.3252 10.4409V10.397C2.1167 10.0747 1.31104 9.18848 1.31104 8.05322V8.03857C1.31104 6.4126 2.86377 5.21875 5.05371 5.21875C7.24365 5.21875 8.79639 6.4126 8.79639 8.03857V8.05322C8.79639 9.18848 7.99072 10.0747 6.78223 10.397V10.4409C8.1958 10.7266 9.17725 11.7739 9.17725 13.1289V13.1436C9.17725 14.9526 7.48535 16.2124 5.05371 16.2124ZM5.05371 9.79639C6.15967 9.79639 6.92871 9.15186 6.92871 8.229V8.21436C6.92871 7.2915 6.15967 6.64697 5.05371 6.64697C3.94775 6.64697 3.17871 7.2915 3.17871 8.21436V8.229C3.17871 9.15186 3.94775 9.79639 5.05371 9.79639ZM5.05371 14.7695C6.3208 14.7695 7.22168 14.0371 7.22168 13.019V13.0044C7.22168 11.979 6.32812 11.2393 5.05371 11.2393C3.77197 11.2393 2.88574 11.979 2.88574 13.0044V13.019C2.88574 14.0371 3.78662 14.7695 5.05371 14.7695ZM14.6439 16.2637C12.1317 16.2637 10.6229 14.1323 10.6229 10.7192V10.7046C10.6229 7.2915 12.1317 5.16748 14.6439 5.16748C17.1562 5.16748 18.6796 7.2915 18.6796 10.7046V10.7192C18.6796 14.1323 17.1562 16.2637 14.6439 16.2637ZM14.6439 14.7329C15.9916 14.7329 16.7753 13.2241 16.7753 10.7192V10.7046C16.7753 8.19971 15.9916 6.70557 14.6439 6.70557C13.2963 6.70557 12.5272 8.19971 12.5272 10.7046V10.7192C12.5272 13.2241 13.2963 14.7329 14.6439 14.7329ZM24.0246 16V4.89648H25.8483V11.2759H25.9729L28.9245 7.99463H31.0339L27.8112 11.3784L31.2536 16H29.0563L26.4855 12.5356L25.8483 13.1875V16H24.0246ZM35.2555 18.8125C33.1461 18.8125 31.879 17.9116 31.6959 16.564L31.7032 16.542H33.527L33.5343 16.564C33.6588 17.0767 34.2667 17.4355 35.2848 17.4355C36.5299 17.4355 37.255 16.8569 37.255 15.8315V14.3008H37.1305C36.669 15.1577 35.7975 15.6265 34.6915 15.6265C32.6627 15.6265 31.4029 14.0591 31.4029 11.7886V11.7739C31.4029 9.45947 32.6627 7.86279 34.7281 7.86279C35.8341 7.86279 36.6983 8.40479 37.1524 9.31299H37.2477V7.99463H39.0714V15.8022C39.0714 17.6479 37.5919 18.8125 35.2555 18.8125ZM35.2555 14.1763C36.5226 14.1763 37.2843 13.2021 37.2843 11.7886V11.7739C37.2843 10.3604 36.5152 9.37891 35.2555 9.37891C33.9884 9.37891 33.2706 10.3604 33.2706 11.7739V11.7886C33.2706 13.2021 33.9884 14.1763 35.2555 14.1763Z" fill="black"/>
<path d="M392.876 192.264C390.621 192.264 388.658 190.66 388.658 186.851V186.836C388.658 183.277 390.262 181.167 392.92 181.167C394.861 181.167 396.311 182.317 396.648 183.936L396.663 184.017H394.81L394.781 183.943C394.502 183.204 393.85 182.72 392.92 182.72C391.243 182.72 390.533 184.361 390.452 186.382C390.452 186.463 390.445 186.543 390.445 186.624H390.591C390.979 185.789 391.902 185.049 393.352 185.049C395.381 185.049 396.802 186.529 396.802 188.536V188.55C396.802 190.696 395.169 192.264 392.876 192.264ZM390.774 188.572C390.774 189.781 391.69 190.726 392.862 190.726C394.034 190.726 394.956 189.795 394.956 188.616V188.602C394.956 187.378 394.085 186.5 392.884 186.5C391.69 186.5 390.774 187.364 390.774 188.558V188.572ZM402.393 192.212C399.962 192.212 398.27 190.953 398.27 189.144V189.129C398.27 187.774 399.259 186.727 400.665 186.441V186.397C399.456 186.075 398.651 185.188 398.651 184.053V184.039C398.651 182.413 400.203 181.219 402.393 181.219C404.583 181.219 406.136 182.413 406.136 184.039V184.053C406.136 185.188 405.33 186.075 404.122 186.397V186.441C405.535 186.727 406.517 187.774 406.517 189.129V189.144C406.517 190.953 404.825 192.212 402.393 192.212ZM402.393 185.796C403.499 185.796 404.268 185.152 404.268 184.229V184.214C404.268 183.292 403.499 182.647 402.393 182.647C401.287 182.647 400.518 183.292 400.518 184.214V184.229C400.518 185.152 401.287 185.796 402.393 185.796ZM402.393 190.77C403.66 190.77 404.561 190.037 404.561 189.019V189.004C404.561 187.979 403.668 187.239 402.393 187.239C401.112 187.239 400.225 187.979 400.225 189.004V189.019C400.225 190.037 401.126 190.77 402.393 190.77ZM411.833 192V180.896H413.656V187.276H413.781L416.733 183.995H418.842L415.619 187.378L419.062 192H416.864L414.294 188.536L413.656 189.188V192H411.833ZM423.063 194.812C420.954 194.812 419.687 193.912 419.504 192.564L419.511 192.542H421.335L421.342 192.564C421.467 193.077 422.075 193.436 423.093 193.436C424.338 193.436 425.063 192.857 425.063 191.832V190.301H424.938C424.477 191.158 423.605 191.626 422.5 191.626C420.471 191.626 419.211 190.059 419.211 187.789V187.774C419.211 185.459 420.471 183.863 422.536 183.863C423.642 183.863 424.506 184.405 424.96 185.313H425.056V183.995H426.879V191.802C426.879 193.648 425.4 194.812 423.063 194.812ZM423.063 190.176C424.331 190.176 425.092 189.202 425.092 187.789V187.774C425.092 186.36 424.323 185.379 423.063 185.379C421.796 185.379 421.079 186.36 421.079 187.774V187.789C421.079 189.202 421.796 190.176 423.063 190.176Z" fill="black"/>
<circle cx="388" cy="210" r="5" fill="#3710D2"/>
</g>
<defs>
<clipPath id="clip0_15_2616">
<rect width="428" height="255" fill="white"/>
</clipPath>
</defs>
</svg>
