<svg width="462" height="159" viewBox="0 0 462 159" fill="none" xmlns="http://www.w3.org/2000/svg">
<g clip-path="url(#clip0_15_2653)">
<rect x="129" width="1" height="139.61" fill="#D2ECD2"/>
<rect x="230" width="1" height="139.61" fill="#D2ECD2"/>
<rect x="331" width="1" height="139.61" fill="#D2ECD2"/>
<path d="M4.09424 153V143.618H0.688477V142.431H8.81836V143.618H5.4126V153H4.09424ZM12.0731 153.139C9.82461 153.139 8.43301 151.586 8.43301 149.06V149.045C8.43301 146.511 9.82461 144.965 12.0731 144.965C14.3217 144.965 15.7133 146.511 15.7133 149.045V149.06C15.7133 151.586 14.3217 153.139 12.0731 153.139ZM12.0731 152.011C13.5673 152.011 14.4096 150.92 14.4096 149.06V149.045C14.4096 147.177 13.5673 146.093 12.0731 146.093C10.579 146.093 9.73672 147.177 9.73672 149.045V149.06C9.73672 150.92 10.579 152.011 12.0731 152.011ZM20.2059 153.139C18.2063 153.139 16.8953 151.521 16.8953 149.06V149.045C16.8953 146.569 18.199 144.965 20.2059 144.965C21.2898 144.965 22.2347 145.507 22.6668 146.35H22.784V141.97H24.0584V153H22.784V151.74H22.6668C22.1834 152.619 21.3045 153.139 20.2059 153.139ZM20.4988 152.011C21.9344 152.011 22.8133 150.883 22.8133 149.06V149.045C22.8133 147.221 21.9344 146.093 20.4988 146.093C19.056 146.093 18.199 147.207 18.199 149.045V149.06C18.199 150.898 19.056 152.011 20.4988 152.011ZM28.2727 153.139C26.7712 153.139 25.6359 152.231 25.6359 150.795V150.781C25.6359 149.375 26.676 148.562 28.5144 148.452L30.7775 148.312V147.595C30.7775 146.621 30.1843 146.093 29.0051 146.093C28.0603 146.093 27.4377 146.445 27.2326 147.06L27.2253 147.082H25.9509L25.9582 147.038C26.1633 145.8 27.3645 144.965 29.049 144.965C30.9753 144.965 32.052 145.954 32.052 147.595V153H30.7775V151.835H30.6604C30.1623 152.678 29.3347 153.139 28.2727 153.139ZM26.9396 150.766C26.9396 151.564 27.6208 152.033 28.5363 152.033C29.8327 152.033 30.7775 151.184 30.7775 150.056V149.338L28.6682 149.47C27.467 149.543 26.9396 149.968 26.9396 150.751V150.766ZM34.3619 155.769C34.1935 155.769 33.9737 155.754 33.798 155.725V154.677C33.9518 154.707 34.1495 154.714 34.3253 154.714C35.0504 154.714 35.4898 154.384 35.7755 153.476L35.922 153.007L32.9996 145.104H34.3619L36.5299 151.601H36.6471L38.8077 145.104H40.148L37.0646 153.483C36.4127 155.256 35.7608 155.769 34.3619 155.769Z" fill="black" fill-opacity="0.5"/>
<path d="M398.003 153V142.431H399.534L403.152 151.25H403.269L406.887 142.431H408.418V153H407.188V144.929H407.107L403.767 153H402.654L399.314 144.929H399.234V153H398.003ZM412.72 153.139C411.219 153.139 410.084 152.231 410.084 150.795V150.781C410.084 149.375 411.124 148.562 412.962 148.452L415.225 148.312V147.595C415.225 146.621 414.632 146.093 413.453 146.093C412.508 146.093 411.885 146.445 411.68 147.06L411.673 147.082H410.399L410.406 147.038C410.611 145.8 411.812 144.965 413.497 144.965C415.423 144.965 416.5 145.954 416.5 147.595V153H415.225V151.835H415.108C414.61 152.678 413.782 153.139 412.72 153.139ZM411.387 150.766C411.387 151.564 412.068 152.033 412.984 152.033C414.28 152.033 415.225 151.184 415.225 150.056V149.338L413.116 149.47C411.915 149.543 411.387 149.968 411.387 150.751V150.766ZM418.429 153V145.104H419.703V146.276H419.82C420.121 145.449 420.86 144.965 421.93 144.965C422.171 144.965 422.442 144.995 422.567 145.017V146.254C422.303 146.21 422.062 146.181 421.783 146.181C420.567 146.181 419.703 146.95 419.703 148.107V153H418.429ZM427.553 153V152.092L431.127 148.225C432.475 146.767 432.87 146.218 432.87 145.295V145.28C432.87 144.167 432.116 143.332 430.871 143.332C429.604 143.332 428.762 144.16 428.762 145.405L428.754 145.419L427.494 145.412L427.48 145.405C427.487 143.53 428.937 142.182 430.959 142.182C432.804 142.182 434.218 143.435 434.218 145.141V145.156C434.218 146.364 433.698 147.243 431.786 149.213L429.384 151.696V151.813H434.394V153H427.553ZM439.743 153.249C437.407 153.249 436.015 151.118 436.015 147.719V147.705C436.015 144.306 437.407 142.182 439.743 142.182C442.08 142.182 443.486 144.306 443.486 147.705V147.719C443.486 151.118 442.08 153.249 439.743 153.249ZM439.743 152.099C441.259 152.099 442.16 150.415 442.16 147.719V147.705C442.16 145.009 441.259 143.339 439.743 143.339C438.227 143.339 437.341 145.009 437.341 147.705V147.719C437.341 150.415 438.227 152.099 439.743 152.099ZM445.254 153V152.092L448.828 148.225C450.176 146.767 450.571 146.218 450.571 145.295V145.28C450.571 144.167 449.817 143.332 448.572 143.332C447.305 143.332 446.463 144.16 446.463 145.405L446.455 145.419L445.195 145.412L445.181 145.405C445.188 143.53 446.638 142.182 448.66 142.182C450.505 142.182 451.919 143.435 451.919 145.141V145.156C451.919 146.364 451.399 147.243 449.487 149.213L447.085 151.696V151.813H452.095V153H445.254ZM457.378 153.249C455.408 153.249 454.002 151.982 453.848 150.29L453.841 150.209H455.108L455.115 150.268C455.24 151.279 456.155 152.084 457.393 152.084C458.799 152.084 459.766 151.081 459.766 149.653V149.638C459.766 148.232 458.785 147.229 457.415 147.229C456.712 147.229 456.111 147.441 455.657 147.873C455.474 148.049 455.306 148.254 455.174 148.503H454.031L454.588 142.431H460.469V143.61H455.628L455.269 147.185H455.386C455.855 146.474 456.683 146.086 457.642 146.086C459.627 146.086 461.055 147.573 461.055 149.616V149.631C461.055 151.762 459.524 153.249 457.378 153.249Z" fill="black" fill-opacity="0.5"/>
<path d="M192.629 153V143.896H192.512L189.824 145.844V144.453L192.636 142.431H193.947V153H192.629ZM201.428 153V150.81H196.279V149.609C197.707 147.214 199.326 144.636 200.806 142.431H202.717V149.631H204.219V150.81H202.717V153H201.428ZM197.627 149.638H201.435V143.654H201.348C200.161 145.427 198.777 147.609 197.627 149.55V149.638ZM209.842 153V142.431H211.373L214.991 151.25H215.108L218.726 142.431H220.257V153H219.027V144.929H218.946L215.606 153H214.493L211.153 144.929H211.072V153H209.842ZM224.559 153.139C223.058 153.139 221.922 152.231 221.922 150.795V150.781C221.922 149.375 222.963 148.562 224.801 148.452L227.064 148.312V147.595C227.064 146.621 226.471 146.093 225.292 146.093C224.347 146.093 223.724 146.445 223.519 147.06L223.512 147.082H222.237L222.245 147.038C222.45 145.8 223.651 144.965 225.336 144.965C227.262 144.965 228.338 145.954 228.338 147.595V153H227.064V151.835H226.947C226.449 152.678 225.621 153.139 224.559 153.139ZM223.226 150.766C223.226 151.564 223.907 152.033 224.823 152.033C226.119 152.033 227.064 151.184 227.064 150.056V149.338L224.955 149.47C223.754 149.543 223.226 149.968 223.226 150.751V150.766ZM230.268 153V145.104H231.542V146.276H231.659C231.959 145.449 232.699 144.965 233.769 144.965C234.01 144.965 234.281 144.995 234.406 145.017V146.254C234.142 146.21 233.9 146.181 233.622 146.181C232.406 146.181 231.542 146.95 231.542 148.107V153H230.268ZM239.392 153V152.092L242.966 148.225C244.314 146.767 244.709 146.218 244.709 145.295V145.28C244.709 144.167 243.955 143.332 242.71 143.332C241.443 143.332 240.6 144.16 240.6 145.405L240.593 145.419L239.333 145.412L239.319 145.405C239.326 143.53 240.776 142.182 242.798 142.182C244.643 142.182 246.057 143.435 246.057 145.141V145.156C246.057 146.364 245.537 147.243 243.625 149.213L241.223 151.696V151.813H246.233V153H239.392ZM251.582 153.249C249.246 153.249 247.854 151.118 247.854 147.719V147.705C247.854 144.306 249.246 142.182 251.582 142.182C253.919 142.182 255.325 144.306 255.325 147.705V147.719C255.325 151.118 253.919 153.249 251.582 153.249ZM251.582 152.099C253.098 152.099 253.999 150.415 253.999 147.719V147.705C253.999 145.009 253.098 143.339 251.582 143.339C250.066 143.339 249.18 145.009 249.18 147.705V147.719C249.18 150.415 250.066 152.099 251.582 152.099ZM257.093 153V152.092L260.667 148.225C262.015 146.767 262.41 146.218 262.41 145.295V145.28C262.41 144.167 261.656 143.332 260.411 143.332C259.144 143.332 258.301 144.16 258.301 145.405L258.294 145.419L257.034 145.412L257.02 145.405C257.027 143.53 258.477 142.182 260.499 142.182C262.344 142.182 263.758 143.435 263.758 145.141V145.156C263.758 146.364 263.238 147.243 261.326 149.213L258.924 151.696V151.813H263.934V153H257.093ZM270.353 153V150.81H265.204V149.609C266.632 147.214 268.25 144.636 269.73 142.431H271.642V149.631H273.143V150.81H271.642V153H270.353ZM266.551 149.638H270.36V143.654H270.272C269.085 145.427 267.701 147.609 266.551 149.55V149.638Z" fill="black" fill-opacity="0.5"/>
<path d="M32.8086 37C173.417 61 255.822 41 412.5 56.5" stroke="black" stroke-opacity="0.2" stroke-width="2" stroke-linecap="round" stroke-dasharray="6 6"/>
<path d="M26.7822 42.5C68.9648 82.5 107.13 96 217.608 112.5" stroke="#3710D2" stroke-width="3" stroke-linecap="round"/>
<circle cx="14" cy="33" r="5" fill="#3710D2"/>
<path d="M5.05371 16.2124C2.62207 16.2124 0.930176 14.9526 0.930176 13.1436V13.1289C0.930176 11.7739 1.91895 10.7266 3.3252 10.4409V10.397C2.1167 10.0747 1.31104 9.18848 1.31104 8.05322V8.03857C1.31104 6.4126 2.86377 5.21875 5.05371 5.21875C7.24365 5.21875 8.79639 6.4126 8.79639 8.03857V8.05322C8.79639 9.18848 7.99072 10.0747 6.78223 10.397V10.4409C8.1958 10.7266 9.17725 11.7739 9.17725 13.1289V13.1436C9.17725 14.9526 7.48535 16.2124 5.05371 16.2124ZM5.05371 9.79639C6.15967 9.79639 6.92871 9.15186 6.92871 8.229V8.21436C6.92871 7.2915 6.15967 6.64697 5.05371 6.64697C3.94775 6.64697 3.17871 7.2915 3.17871 8.21436V8.229C3.17871 9.15186 3.94775 9.79639 5.05371 9.79639ZM5.05371 14.7695C6.3208 14.7695 7.22168 14.0371 7.22168 13.019V13.0044C7.22168 11.979 6.32812 11.2393 5.05371 11.2393C3.77197 11.2393 2.88574 11.979 2.88574 13.0044V13.019C2.88574 14.0371 3.78662 14.7695 5.05371 14.7695ZM14.6439 16.2637C12.1317 16.2637 10.6229 14.1323 10.6229 10.7192V10.7046C10.6229 7.2915 12.1317 5.16748 14.6439 5.16748C17.1562 5.16748 18.6796 7.2915 18.6796 10.7046V10.7192C18.6796 14.1323 17.1562 16.2637 14.6439 16.2637ZM14.6439 14.7329C15.9916 14.7329 16.7753 13.2241 16.7753 10.7192V10.7046C16.7753 8.19971 15.9916 6.70557 14.6439 6.70557C13.2963 6.70557 12.5272 8.19971 12.5272 10.7046V10.7192C12.5272 13.2241 13.2963 14.7329 14.6439 14.7329ZM24.0246 16V4.89648H25.8483V11.2759H25.9729L28.9245 7.99463H31.0339L27.8112 11.3784L31.2536 16H29.0563L26.4855 12.5356L25.8483 13.1875V16H24.0246ZM35.2555 18.8125C33.1461 18.8125 31.879 17.9116 31.6959 16.564L31.7032 16.542H33.527L33.5343 16.564C33.6588 17.0767 34.2667 17.4355 35.2848 17.4355C36.5299 17.4355 37.255 16.8569 37.255 15.8315V14.3008H37.1305C36.669 15.1577 35.7975 15.6265 34.6915 15.6265C32.6627 15.6265 31.4029 14.0591 31.4029 11.7886V11.7739C31.4029 9.45947 32.6627 7.86279 34.7281 7.86279C35.8341 7.86279 36.6983 8.40479 37.1524 9.31299H37.2477V7.99463H39.0714V15.8022C39.0714 17.6479 37.5919 18.8125 35.2555 18.8125ZM35.2555 14.1763C36.5226 14.1763 37.2843 13.2021 37.2843 11.7886V11.7739C37.2843 10.3604 36.5152 9.37891 35.2555 9.37891C33.9884 9.37891 33.2706 10.3604 33.2706 11.7739V11.7886C33.2706 13.2021 33.9884 14.1763 35.2555 14.1763Z" fill="black"/>
<path d="M248.876 119.264C246.621 119.264 244.658 117.66 244.658 113.851V113.836C244.658 110.277 246.262 108.167 248.92 108.167C250.861 108.167 252.311 109.317 252.648 110.936L252.663 111.017H250.81L250.781 110.943C250.502 110.204 249.85 109.72 248.92 109.72C247.243 109.72 246.533 111.361 246.452 113.382C246.452 113.463 246.445 113.543 246.445 113.624H246.591C246.979 112.789 247.902 112.049 249.352 112.049C251.381 112.049 252.802 113.529 252.802 115.536V115.55C252.802 117.696 251.169 119.264 248.876 119.264ZM246.774 115.572C246.774 116.781 247.69 117.726 248.862 117.726C250.034 117.726 250.956 116.795 250.956 115.616V115.602C250.956 114.378 250.085 113.5 248.884 113.5C247.69 113.5 246.774 114.364 246.774 115.558V115.572ZM258.393 119.212C255.962 119.212 254.27 117.953 254.27 116.144V116.129C254.27 114.774 255.259 113.727 256.665 113.441V113.397C255.456 113.075 254.651 112.188 254.651 111.053V111.039C254.651 109.413 256.203 108.219 258.393 108.219C260.583 108.219 262.136 109.413 262.136 111.039V111.053C262.136 112.188 261.33 113.075 260.122 113.397V113.441C261.535 113.727 262.517 114.774 262.517 116.129V116.144C262.517 117.953 260.825 119.212 258.393 119.212ZM258.393 112.796C259.499 112.796 260.268 112.152 260.268 111.229V111.214C260.268 110.292 259.499 109.647 258.393 109.647C257.287 109.647 256.518 110.292 256.518 111.214V111.229C256.518 112.152 257.287 112.796 258.393 112.796ZM258.393 117.77C259.66 117.77 260.561 117.037 260.561 116.019V116.004C260.561 114.979 259.668 114.239 258.393 114.239C257.112 114.239 256.225 114.979 256.225 116.004V116.019C256.225 117.037 257.126 117.77 258.393 117.77ZM267.833 119V107.896H269.656V114.276H269.781L272.733 110.995H274.842L271.619 114.378L275.062 119H272.864L270.294 115.536L269.656 116.188V119H267.833ZM279.063 121.812C276.954 121.812 275.687 120.912 275.504 119.564L275.511 119.542H277.335L277.342 119.564C277.467 120.077 278.075 120.436 279.093 120.436C280.338 120.436 281.063 119.857 281.063 118.832V117.301H280.938C280.477 118.158 279.605 118.626 278.5 118.626C276.471 118.626 275.211 117.059 275.211 114.789V114.774C275.211 112.459 276.471 110.863 278.536 110.863C279.642 110.863 280.506 111.405 280.96 112.313H281.056V110.995H282.879V118.802C282.879 120.648 281.4 121.812 279.063 121.812ZM279.063 117.176C280.331 117.176 281.092 116.202 281.092 114.789V114.774C281.092 113.36 280.323 112.379 279.063 112.379C277.796 112.379 277.079 113.36 277.079 114.774V114.789C277.079 116.202 277.796 117.176 279.063 117.176Z" fill="black"/>
<path d="M222.146 99V87.022H227.359C229.616 87.022 231.036 88.1841 231.036 90.0269V90.0435C231.036 91.355 230.04 92.4756 228.72 92.6499V92.6997C230.388 92.8242 231.592 94.0029 231.592 95.5718V95.5884C231.592 97.6885 230.006 99 227.45 99H222.146ZM226.711 88.8813H224.652V92.0273H226.404C227.815 92.0273 228.57 91.438 228.57 90.4004V90.3838C228.57 89.4292 227.881 88.8813 226.711 88.8813ZM226.703 93.729H224.652V97.1323H226.811C228.247 97.1323 229.035 96.543 229.035 95.4307V95.4141C229.035 94.3184 228.238 93.729 226.703 93.729ZM236.503 99.1826C233.78 99.1826 232.128 97.4146 232.128 94.5674V94.5591C232.128 91.7285 233.797 89.9189 236.403 89.9189C239.01 89.9189 240.645 91.687 240.645 94.3765V95.1235H234.519C234.544 96.543 235.316 97.373 236.553 97.373C237.549 97.373 238.155 96.8252 238.329 96.3271L238.346 96.2773H240.57L240.545 96.3687C240.271 97.6802 239.043 99.1826 236.503 99.1826ZM236.445 91.7285C235.449 91.7285 234.702 92.3926 234.544 93.5962H238.321C238.171 92.3677 237.449 91.7285 236.445 91.7285ZM242.8 93.231C242.045 93.231 241.455 92.6416 241.455 91.8862C241.455 91.1392 242.045 90.5415 242.8 90.5415C243.547 90.5415 244.145 91.1392 244.145 91.8862C244.145 92.6416 243.547 93.231 242.8 93.231ZM242.8 99.1411C242.045 99.1411 241.455 98.5435 241.455 97.7964C241.455 97.041 242.045 96.4517 242.8 96.4517C243.547 96.4517 244.145 97.041 244.145 97.7964C244.145 98.5435 243.547 99.1411 242.8 99.1411Z" fill="black"/>
<circle cx="231" cy="114" r="5" fill="#3710D2"/>
<circle cx="424" cy="58" r="5" fill="black" fill-opacity="0.2"/>
</g>
<defs>
<clipPath id="clip0_15_2653">
<rect width="462" height="159" fill="white"/>
</clipPath>
</defs>
</svg>
