<svg width="329" height="256" viewBox="0 0 329 256" fill="none" xmlns="http://www.w3.org/2000/svg">
<path d="M226.686 22.5956C226.677 22.5732 226.662 22.554 226.642 22.5404C226.622 22.5269 226.598 22.5197 226.574 22.5197C226.55 22.5197 226.526 22.5269 226.506 22.5404C226.486 22.554 226.471 22.5732 226.462 22.5956C226.462 23.6651 224.909 24.3206 225.341 25.5281C225.53 26.0456 226.238 26.4078 226.634 25.8903C226.649 25.8648 226.657 25.8364 226.658 25.8073C226.659 25.7782 226.654 25.7492 226.642 25.7225C226.63 25.6959 226.613 25.6722 226.591 25.6534C226.568 25.6347 226.542 25.6213 226.514 25.6143H226.324C225.496 25.6143 225.496 25.0278 226.427 23.8893C226.569 23.7089 226.666 23.4979 226.711 23.2732C226.755 23.0485 226.747 22.8165 226.686 22.5956ZM230.343 20.8533C230.447 21.1293 230.895 21.0431 230.947 20.7671C230.946 20.1849 230.871 19.6051 230.723 19.0421C230.723 18.978 230.697 18.9166 230.652 18.8713C230.607 18.826 230.545 18.8006 230.481 18.8006C230.417 18.8006 230.356 18.826 230.31 18.8713C230.265 18.9166 230.24 18.978 230.24 19.0421C230.127 19.6453 230.162 20.267 230.343 20.8533ZM222.477 19.5251C222.477 20.0598 222.477 21.1121 223.012 21.4398C223.037 21.4539 223.066 21.462 223.095 21.4633C223.124 21.4646 223.153 21.4593 223.18 21.4476C223.206 21.4359 223.23 21.4182 223.249 21.396C223.268 21.3737 223.281 21.3474 223.288 21.3191C223.203 20.7358 223.076 20.1593 222.908 19.5941C222.874 19.2663 222.477 19.2491 222.477 19.5251ZM220.821 17.4378C220.789 17.4905 220.779 17.5536 220.794 17.6135C220.808 17.6733 220.846 17.7249 220.899 17.757C220.951 17.789 221.015 17.7988 221.074 17.7842C221.134 17.7697 221.186 17.732 221.218 17.6793C221.477 17.3343 222.943 16.3166 223.115 15.9543C223.138 15.9271 223.152 15.8942 223.157 15.8592C223.162 15.8242 223.157 15.7886 223.143 15.7563C223.128 15.7241 223.105 15.6965 223.076 15.6766C223.047 15.6567 223.013 15.6454 222.977 15.6438C222.029 15.6266 221.201 16.6961 220.821 17.4378ZM230.516 15.1781C231.378 15.2816 231.827 15.9716 232.241 16.6271C232.269 16.6772 232.314 16.7163 232.368 16.738C232.421 16.7598 232.481 16.763 232.536 16.7471C232.592 16.7312 232.64 16.6972 232.674 16.6504C232.708 16.6037 232.726 16.5469 232.724 16.4891C232.724 15.3678 231.499 14.6778 230.481 14.6606C230.171 14.6433 230.188 15.1436 230.516 15.1781ZM247.766 73.5003C251.474 73.2761 255.114 72.2238 258.823 71.8961C259.116 71.8961 259.116 71.3958 258.823 71.4303C255.08 71.7607 251.374 72.4246 247.748 73.4141L247.766 73.5003ZM229.912 74.2421C230.188 74.2421 230.067 73.7763 229.791 73.8108C225.944 74.4146 222.08 75.1046 218.251 75.8291C218.147 75.8291 218.251 76.0188 218.251 76.0188C222.167 75.4841 226.065 74.9148 229.912 74.2421ZM173.021 172.567L145.525 153.42L140.315 162.096L176.937 186.315L207.608 129.546L198.776 125.406L173.021 172.567Z" fill="black"/>
<path d="M219.579 104.688C219.113 103.515 218.889 103.67 217.647 103.412C215.594 102.963 213.524 102.566 211.454 102.152C205.037 100.859 198.741 98.7023 192.479 96.9773C186.148 95.2791 179.959 93.0874 173.97 90.4223C172.245 89.6633 170.658 88.9216 169.071 88.0246C168.122 87.4726 166.156 85.7476 165.103 85.8166C164.5 85.8166 164.793 85.8166 164.103 86.4031C162.809 87.6106 161.55 88.8008 160.187 89.8531C154.857 94.0056 149.184 97.6988 143.23 100.893C134.075 106.443 124.541 111.343 114.699 115.556C114.63 115.574 114.57 115.615 114.526 115.671C114.483 115.727 114.459 115.795 114.457 115.866C113.574 126.108 114.532 136.425 117.286 146.33C119.857 156.317 122.949 166.163 126.55 175.827C132.967 193.37 142.54 209.672 156.703 221.936C171.486 234.753 184.303 236.996 184.423 236.875C189.61 232.927 194.363 228.44 198.603 223.489C208.429 212.528 216.085 199.803 221.166 185.987C224.264 177.381 226.207 168.402 226.945 159.284C227.911 147.209 226.186 135.29 224.098 123.335C223.264 116.976 221.749 110.724 219.579 104.688ZM224.133 173.688C221.797 185.049 217.369 195.876 211.075 205.618C195.222 228.974 184.372 236.202 184.199 236.323C168.18 230.894 154.196 220.713 144.11 207.136C139.346 200.871 135.253 194.124 131.897 187.005C128.199 178.702 125.025 170.175 122.392 161.475C119.528 153.171 117.308 144.659 115.751 136.014C114.995 131.419 114.643 126.767 114.699 122.111C114.699 121.007 114.906 116.211 114.889 116.228C115.061 115.935 127.74 110.519 133.087 107.483C140.35 103.274 147.871 99.3751 154.84 94.6141C157.892 92.5959 160.776 90.3346 163.465 87.8521C164.431 86.9551 164.81 86.4893 166.121 87.0241C167.035 87.3863 172.452 90.4741 174.349 91.2503C181.97 94.4634 189.825 97.093 197.844 99.1163C202.036 100.307 206.227 101.669 210.488 102.566C213.187 102.988 215.859 103.564 218.492 104.291C219.475 104.912 221.442 112.761 221.942 114.831C222.874 119.109 223.564 123.456 224.305 127.734C226.91 143.121 227.617 158.353 224.133 173.723V173.688ZM105.246 33.7216C105.22 33.7503 105.203 33.7857 105.196 33.8238C105.189 33.8619 105.193 33.9011 105.207 33.9371C105.222 33.973 105.246 34.0042 105.277 34.0271C105.308 34.05 105.345 34.0636 105.384 34.0666C105.699 34.0269 105.993 33.8833 106.218 33.6584C106.443 33.4335 106.586 33.1401 106.626 32.8246C106.626 32.5313 105.574 31.2376 105.401 30.6511C105.391 30.6206 105.371 30.5943 105.344 30.5756C105.318 30.5569 105.287 30.5469 105.255 30.5469C105.222 30.5469 105.191 30.5569 105.165 30.5756C105.138 30.5943 105.118 30.6206 105.108 30.6511C104.953 31.1513 106.126 32.5658 106.057 32.9453C105.988 33.3248 105.505 33.4628 105.246 33.7216ZM108.42 28.1326C108.256 28.6921 108.186 29.2751 108.213 29.8576C108.213 30.3578 108.989 30.3578 109.006 29.8576C109.085 29.2757 109.019 28.6836 108.817 28.1326C108.798 28.0965 108.769 28.0662 108.734 28.0452C108.699 28.0241 108.659 28.0129 108.618 28.0129C108.577 28.0129 108.537 28.0241 108.502 28.0452C108.467 28.0662 108.439 28.0965 108.42 28.1326ZM101.399 28.0808C101.239 28.6447 101.239 29.242 101.399 29.8058C101.399 30.1681 102.089 30.1163 102.055 29.8058C102.02 29.4953 101.934 28.7363 101.865 28.2016C101.881 28.1398 101.872 28.0742 101.839 28.0192C101.807 27.9642 101.754 27.9244 101.692 27.9083C101.631 27.8923 101.565 27.9015 101.51 27.9339C101.455 27.9662 101.415 28.0191 101.399 28.0808ZM99.9329 27.5978C100.209 27.2356 101.658 26.0971 101.865 25.7693C101.9 25.7352 101.923 25.6905 101.931 25.642C101.938 25.5935 101.929 25.5439 101.906 25.5008C101.882 25.4577 101.845 25.4236 101.801 25.4035C101.756 25.3835 101.706 25.3787 101.658 25.3898C100.738 25.7283 99.9675 26.3824 99.4844 27.2356C99.2946 27.5116 99.7259 27.8393 99.9329 27.5978ZM108.075 25.5968C108.702 25.9123 109.282 26.3128 109.8 26.7871C109.834 26.8216 109.877 26.8452 109.924 26.8548C109.972 26.8644 110.021 26.8596 110.065 26.841C110.11 26.8225 110.148 26.791 110.174 26.7506C110.201 26.7102 110.215 26.6629 110.214 26.6146C110.214 26.1661 108.489 25.1656 108.023 25.2001C107.981 25.2174 107.946 25.2482 107.923 25.2877C107.9 25.3272 107.891 25.3731 107.896 25.4184C107.902 25.4636 107.923 25.5057 107.955 25.5379C107.988 25.5702 108.03 25.5909 108.075 25.5968ZM100.036 36.4643H99.8811C99.8811 37.5683 102.331 39.8108 105.591 38.4136C105.746 38.4136 105.591 38.0858 105.47 38.1376C104.511 38.5363 103.444 38.5873 102.451 38.2818C101.459 37.9762 100.605 37.3333 100.036 36.4643ZM33.9516 182.175C28.2419 182.744 22.3941 181.847 16.7016 182.555C16.7016 182.555 16.5809 182.658 16.5809 182.71C16.1294 187.414 16.222 192.155 16.8569 196.838C16.8604 196.88 16.8745 196.921 16.8979 196.957C16.9213 196.993 16.9532 197.023 16.9909 197.043C17.0285 197.064 17.0706 197.075 17.1135 197.075C17.1563 197.075 17.1986 197.065 17.2364 197.045C22.7909 197.338 28.6041 197.148 34.1759 196.889C34.3311 196.889 34.4001 196.544 34.4001 196.51C34.5672 191.799 34.4751 187.083 34.1241 182.382C34.1265 182.357 34.1239 182.332 34.1165 182.308C34.1091 182.284 34.097 182.262 34.081 182.243C34.065 182.223 34.0453 182.208 34.0231 182.196C34.0009 182.184 33.9766 182.177 33.9516 182.175ZM17.2191 187.16C17.2191 185.711 17.2191 184.262 17.1156 182.796C22.5758 183.076 28.0477 183.036 33.5031 182.675C33.3679 184.356 33.3276 186.044 33.3824 187.73C28.008 187.265 22.6123 187.092 17.2191 187.212V187.16ZM17.5814 196.458C17.3226 193.577 17.2881 190.714 17.2536 187.833C19.8066 187.833 22.4286 187.937 24.9126 188.006C24.7052 190.717 24.8618 193.444 25.3784 196.113C22.7727 196.002 20.1624 196.135 17.5814 196.51V196.458ZM26.2064 196.165C26.2064 194.63 25.8096 189.144 25.5854 187.954C28.1556 187.954 33.3651 188.385 33.3824 188.385C33.3824 191.007 33.6411 193.646 33.6929 196.234C31.2951 196.406 28.7594 196.286 26.2581 196.217L26.2064 196.165Z" fill="black"/>
<path d="M327.202 193.732C326.846 191.357 325.675 189.18 323.89 187.574C321.734 185.935 318.87 186.211 316.334 186.297C312.539 186.418 304.725 187.16 304.725 187.143C303.414 183.468 302.258 179.708 300.74 176.137C299.697 173.097 297.523 170.576 294.668 169.099C291.874 167.892 278.764 168.823 272.692 169.375C277.263 154.264 277.505 133.374 277.505 129.338C278.138 128.912 278.683 128.367 279.109 127.734C280.472 125.474 279.523 121.989 279.316 119.557C278.729 112.95 278.367 106.24 277.436 99.6679C279.198 97.875 280.738 95.8769 282.024 93.7166C286.199 86.6959 286.216 78.8816 284.284 71.1019C282.352 63.3221 276.901 57.3019 270.777 52.0234C264.694 46.4991 257.137 42.8614 249.025 41.5526C248.191 40.0945 247.226 38.7147 246.144 37.4299L244.626 38.3096C244.626 35.9809 243.66 26.0104 243.66 26.0104C245.075 25.6309 247.869 21.5426 248.3 18.5411C248.507 15.6167 247.996 12.6862 246.811 10.0044C245.626 7.32271 243.805 4.97107 241.504 3.15412C235.121 -2.02088 222.529 0.411377 219.752 2.51588C218.989 3.11804 218.107 3.55225 217.165 3.79006C216.223 4.02788 215.241 4.06394 214.283 3.89588C214.283 3.89588 216.595 6.20738 215.18 6.63863C213.766 7.06988 212.8 4.72387 212.8 4.72387C212.472 9.41587 214.352 10.5889 214.352 10.5889C220.545 17.2474 225.22 11.9171 225.22 11.9171C225.22 11.9171 225.858 9.84713 232.517 11.3479C233.374 11.4702 234.196 11.7726 234.928 12.2351C235.661 12.6976 236.287 13.3099 236.766 14.0316C237.245 14.7533 237.566 15.5681 237.707 16.4226C237.849 17.2771 237.808 18.152 237.588 18.9896L238.433 19.3346C238.751 18.8727 239.109 18.4398 239.503 18.0409C243.263 15.4361 244.229 19.3864 244.229 19.3864C244.988 22.5949 241.038 23.5264 241.038 23.5264C241.142 27.9769 240.331 28.7014 240.331 28.7014C237.122 32.5481 233.862 28.3736 233.862 28.3736C233.142 27.5439 232.234 26.8981 231.214 26.4901C230.194 26.082 229.091 25.9235 227.997 26.0276C223.926 26.2001 224.547 27.4939 222.822 28.7531C221.735 29.5466 220.631 28.6496 219.959 27.9079C219.959 26.4416 219.372 20.6974 219.044 19.2829V14.2631C217.836 13.9101 216.734 13.2643 215.836 12.3829C214.111 17.5579 217.785 19.1449 218.803 19.5071C218.924 21.0769 218.354 33.0311 220.528 37.5161C221.109 38.7632 221.99 39.8472 223.091 40.6718C224.193 41.4964 225.481 42.036 226.841 42.2426C226.652 43.2604 226.462 44.9509 226.427 45.4166C222.184 46.0376 218.751 48.7631 215.456 51.3334C211.503 54.3539 207.837 57.7319 204.503 61.4246C198.496 67.9427 194.59 76.1169 193.29 84.8846L187.373 83.1596C187.459 82.7804 187.499 82.3925 187.494 82.0039C187.489 81.3098 187.274 80.6334 186.879 80.0631C186.483 79.4928 185.924 79.0552 185.276 78.8074C184.627 78.5595 183.919 78.5131 183.244 78.6741C182.569 78.835 181.958 79.1959 181.491 79.7096C181.151 80.1814 180.905 80.7144 180.767 81.2794C180.767 81.2794 170.865 76.8979 165.914 74.7761C164.863 74.0956 163.585 73.8599 162.361 74.1206C160.466 75.1346 158.785 76.5053 157.41 78.1571V78.0536C155.685 75.9319 151.89 76.1044 151.338 79.1921C151.231 80.0932 151.374 81.0064 151.752 81.8314C150.89 82.4696 150.027 83.1424 149.027 83.7979C146.612 77.8294 144.317 71.6021 140.402 66.5479C137.147 62.2204 133.222 58.4409 128.775 55.3526C122.674 51.0061 115.321 48.7711 107.834 48.9874L107.385 47.9006C107.385 47.1934 107.247 46.4861 107.161 45.7961C112.767 46.2619 115.682 37.8266 115.682 37.8266C115.88 39.2837 115.732 40.7668 115.251 42.1564C115.251 42.1564 120.944 33.9799 117.58 20.4041C114.216 6.82838 102.055 9.67463 102.055 9.67463C87.6166 1.30838 80.1128 16.2986 80.1128 16.2986C71.3153 37.5851 87.0128 46.4861 87.0128 46.4861C85.4948 45.3476 85.9778 42.7946 85.9778 42.7946C86.7653 43.9072 87.796 44.8256 88.9916 45.4802C90.1872 46.1348 91.5163 46.5083 92.8778 46.5724C92.8778 47.1071 92.6881 47.6936 92.6363 48.2974L92.2741 49.5739C77.2493 54.8696 64.0186 64.6159 58.8608 80.2444C56.4113 87.6446 56.2561 95.3381 59.9821 102.359C63.1125 108.057 68.2732 112.368 74.4376 114.434C74.363 115.444 74.5218 116.458 74.9017 117.397C75.2815 118.337 75.8723 119.176 76.6283 119.85C75.4553 120.385 72.4366 122.559 70.7116 131.184C70.0043 134.737 68.6933 140.947 67.2616 147.692C59.7233 141.792 48.6488 132.788 48.4763 132.926C32.2958 145.95 0.711098 173.412 0.711098 173.446C0.676718 173.474 0.651475 173.512 0.638571 173.555C0.625667 173.597 0.625685 173.642 0.638622 173.685C0.651559 173.727 0.676833 173.765 0.711235 173.793C0.745636 173.821 0.787616 173.839 0.831847 173.843C3.4366 174.067 6.00685 174.222 8.6806 174.309C8.6806 190.334 10.0261 222.609 10.0951 222.609H4.07485C3.95424 225.315 4.05809 228.027 4.38535 230.716C16.2878 230.716 61.1206 230.406 77.0768 230.095C77.5943 237.702 78.2326 246.845 78.2326 246.845C77.1803 247.259 72.6608 249.95 71.2463 250.571C69.3488 251.399 67.7963 252.417 68.0378 254.711C68.1185 254.801 68.2188 254.872 68.3311 254.918C74.5485 255.384 80.7987 255.141 86.9611 254.193C87.0976 254.149 87.2139 254.057 87.2888 253.935C87.7805 252.192 87.7805 250.347 87.2888 248.604L94.9996 216.519C96.1381 211.983 100.33 193.887 101.365 189.42C105.712 189.393 110.054 189.128 114.371 188.626C116.096 193.905 120.926 214.087 122.858 218.4C124.79 222.712 124.997 224.489 125.032 224.506C129.948 225.886 134.019 227.628 139.919 222.781C139.971 222.729 140.043 222.699 140.117 222.699C140.191 222.699 140.263 222.729 140.315 222.781C140.368 222.834 140.398 222.905 140.398 222.979C140.398 223.054 140.368 223.125 140.315 223.178C136.762 226.99 129.258 227.49 124.98 224.627L132.484 246.69C132.013 248.896 132.013 251.176 132.484 253.383C132.484 253.521 143.765 253.383 149.303 253.227C149.475 253.227 149.613 252.882 149.613 252.848C149.663 251.99 149.455 251.137 149.015 250.399C148.575 249.661 147.924 249.072 147.146 248.708C146.146 248.139 141.644 245.982 140.436 245.379V219.78C142.59 222.615 144.96 225.28 147.526 227.749C153.425 233.108 159.773 237.95 166.501 242.222C172.538 246.276 178.904 250.295 185.924 252.382C186.062 252.382 204.485 240.549 214.266 225.972V232.614C215.044 233.415 216.011 234.009 217.078 234.339C217.216 235.77 217.435 237.193 217.733 238.599C215.215 240.324 211.334 242.946 210.678 246.086C210.596 246.374 210.575 246.677 210.617 246.974C210.658 247.271 210.762 247.556 210.92 247.811C210.023 252.106 219.7 251.261 221.77 250.985C224.461 250.623 233.845 250.088 232.258 245.275C232.258 245.275 232.758 239.238 231.068 238.185C231.222 236.792 231.222 235.387 231.068 233.994C233.483 233.476 235.173 232.959 235.173 232.959L237.312 179.484C241.297 200.011 257.512 234.546 257.512 234.546C258.757 234.727 260.014 234.819 261.272 234.822C261.76 236.013 262.336 237.167 262.997 238.272C261.669 239.531 254.873 246.017 258.53 248.242C259.323 252.486 265.999 250.122 268.466 249.07C270.018 248.415 279.437 243.895 276.452 241.428C276.452 241.428 274.227 236.064 273.468 235.77C273.32 234.359 273.007 232.969 272.537 231.63C273.427 231.072 274.254 230.418 275.003 229.681C275.003 229.681 273.278 219.728 271.553 209.723C280.593 209.983 289.638 209.447 298.584 208.119C298.705 208.119 298.791 207.946 298.808 207.825C298.808 205.514 298.964 203.064 300.758 201.374C302.363 200.066 304.285 199.203 306.329 198.873C311.78 197.7 314.126 201.357 315.506 205.962C315.506 206.083 324.045 205.566 328.185 205.721C328.409 205.721 328.496 205.238 328.496 205.186C328.471 201.333 328.038 197.493 327.202 193.732ZM226.6 10.8649C224.288 12.1931 221.339 10.2094 220.631 7.94963C220.631 7.82888 220.769 7.74263 220.838 7.86338C221.39 8.86388 223.598 11.4169 226.462 10.3646C226.6 10.2784 226.79 10.7441 226.6 10.8649ZM267.776 50.3674C273.813 54.9559 280.161 60.8209 282.783 68.1004C285.405 75.3799 286.13 84.4361 282.524 91.6294C279.036 98.1313 273.526 103.321 266.827 106.413C259.158 109.94 250.808 111.742 242.366 111.691C242.322 111.674 242.273 111.674 242.228 111.691C240.616 108.417 238.722 105.289 236.57 102.342C246.25 96.1618 256.252 90.5015 266.534 85.3849C266.574 85.3606 266.606 85.3242 266.624 85.2809C266.643 85.2375 266.647 85.1894 266.637 85.1434C265.584 81.5928 264.885 77.9468 264.55 74.2586C264.55 74.1034 264.291 74.0861 264.291 74.2586C264.371 77.2072 264.765 80.1389 265.464 83.0044C265.809 84.4879 266.637 84.7294 265.361 85.4711C262.877 86.7649 246.679 95.3726 241.211 98.7191C240.969 95.7866 240.158 82.1591 240.193 82.1246C242.556 78.1744 251.509 61.8904 253.993 57.9746C254.012 57.9554 254.027 57.9325 254.038 57.9074C254.048 57.8822 254.054 57.8552 254.054 57.828C254.054 57.8008 254.048 57.7738 254.038 57.7486C254.027 57.7235 254.012 57.7006 253.993 57.6814C252.947 55.9771 251.689 54.4121 250.25 53.0239C252.171 51.5263 254.254 50.2476 256.46 49.2116C256.649 49.2116 256.874 49.0564 256.736 48.8494C255.324 46.5781 253.67 44.467 251.802 42.5531C257.595 44.0228 263.017 46.6842 267.724 50.3674H267.776ZM232.586 110.294C229.325 113.209 229.136 111.536 229.049 111.001C230.259 110.358 231.379 109.558 232.379 108.621C232.379 108.621 232.275 108.345 232.189 108.414C231.482 108.897 227.531 112.226 227.531 110.242C228.815 108.649 230.3 107.229 231.947 106.016C231.706 105.55 230.843 106.016 230.619 103.135C231.706 103.958 233.034 104.401 234.397 104.394C235.214 104.436 236.026 104.232 236.726 103.808C237.355 105.118 238.069 106.386 238.865 107.603C237.778 108.647 236.626 109.621 235.415 110.518C234.328 111.277 231.965 113.157 230.585 112.243C231.38 111.718 232.141 111.142 232.862 110.518C232.896 110.415 232.637 110.208 232.534 110.294H232.586ZM251.354 42.4496C251.992 43.5019 255.459 47.7799 256.339 48.9874C253.954 49.7622 251.813 51.1479 250.129 53.0066L253.751 57.7504C249.163 65.6336 243.764 73.2754 240.176 81.7451C241.431 68.4482 244.162 55.3323 248.318 42.6394L248.939 41.9839L251.354 42.4496ZM246.058 37.8266C246.765 39.1721 247.783 40.3106 248.525 41.6906C246.213 44.1056 243.66 46.2101 241.228 48.5906C240.315 46.4945 239.157 44.5141 237.778 42.6911C240.719 41.4141 243.498 39.7928 246.058 37.8611V37.8266ZM236.432 41.6734C241.866 40.4831 243.229 33.5486 243.574 29.3051C243.574 30.1676 243.919 36.2051 244.178 38.3786C244.168 38.4183 244.168 38.4597 244.178 38.4994L237.467 42.4496C236.724 43.8121 236.09 45.231 235.57 46.6931C234.988 45.156 234.297 43.6628 233.5 42.2254C234.483 42.1046 235.432 41.9321 236.432 41.7079V41.6734ZM235.346 47.4694C235.339 47.5056 235.339 47.5429 235.347 47.5789C235.354 47.615 235.369 47.6493 235.39 47.6797C235.411 47.7101 235.437 47.7362 235.468 47.7563C235.499 47.7765 235.534 47.7903 235.57 47.7971C235.606 47.8039 235.643 47.8035 235.679 47.7959C235.715 47.7883 235.75 47.7737 235.78 47.7529C235.811 47.7321 235.837 47.7054 235.857 47.6746C235.877 47.6437 235.891 47.6091 235.898 47.5729C236.415 46.0031 237.174 44.4851 237.623 42.9154C238.581 45.0205 239.736 47.0304 241.073 48.9184C243.455 47.2057 245.699 45.3081 247.783 43.2431C242.108 55.7839 239.969 73.7239 239.641 79.6234C238.261 74.4484 232.103 53.3689 229.826 48.2456C230.405 48.6077 231.06 48.832 231.74 48.9011C232.172 48.1594 232.982 43.6054 233.465 42.3461C233.5 42.6049 234.949 46.4861 235.346 47.5039V47.4694ZM227.359 32.5309C227.733 32.6414 228.126 32.6722 228.513 32.6216C228.9 32.5709 229.272 32.4398 229.605 32.2367C229.938 32.0336 230.225 31.7629 230.447 31.4422C230.669 31.1215 230.822 30.7579 230.895 30.3746C230.895 30.1504 231.361 30.2711 231.326 30.4954C230.826 33.6521 227.876 33.4106 227.307 32.6516C227.273 32.6344 227.307 32.5654 227.359 32.5654V32.5309ZM227.255 42.2944C229.217 42.5777 231.21 42.5777 233.172 42.2944C232.383 44.2688 231.76 46.3056 231.309 48.3836C230.792 48.0386 227.756 46.2791 226.824 45.6581C226.841 45.6236 227.186 43.5364 227.255 42.3289V42.2944ZM226.6 45.8996C227.409 46.6574 228.3 47.3227 229.256 47.8834C230.757 53.6276 237.881 75.3799 239.279 80.6584C237.122 77.5879 225.617 65.1334 222.736 61.4419C223.569 59.5859 224.284 57.6788 224.875 55.7321C223.365 55.1465 221.798 54.7187 220.2 54.4556C221.93 51.9919 223.307 49.2977 224.288 46.4516C224.996 46.2101 226.6 45.8996 226.6 45.8996ZM193.67 84.9191C195.193 76.3019 199.067 68.2729 204.865 61.7179C207.646 58.5908 210.687 55.7054 213.956 53.0929C216.882 50.3824 220.24 48.1787 223.892 46.5724C222.391 49.1426 220.959 52.2131 219.32 54.7316C219.182 54.9559 222.891 55.6631 224.375 56.1806C224.047 56.7326 222.563 60.5621 222.132 61.5971C222.132 61.7179 236.967 78.3296 239.675 82.1419C239.451 84.7984 240.986 98.9089 241.004 98.9261C239.399 99.9094 237.692 101.031 236.156 102.1C236.018 102.1 236.536 103.014 236.691 103.342C236.052 103.661 235.352 103.837 234.638 103.86C234.828 100.185 234.5 95.9246 231.361 93.5096C229.983 92.5186 228.361 91.9222 226.669 91.7846C223.926 91.4396 221.183 91.2844 218.441 90.8876C217.268 90.7151 216.077 90.5081 214.904 90.2839V90.1804C213.951 84.9067 213.581 79.5442 213.8 74.1896C213.8 74.0516 213.576 73.9999 213.542 74.1896C212.905 79.5366 213.162 84.952 214.301 90.2149C207.28 88.8866 200.501 86.8856 193.601 84.9019L193.67 84.9191ZM181.163 81.4691C181.327 80.6534 181.788 79.9277 182.457 79.4336C182.98 79.0983 183.596 78.9377 184.216 78.9749C184.836 79.0121 185.428 79.2452 185.907 79.6406C186.432 80.0906 186.81 80.6882 186.992 81.3557C187.173 82.0232 187.15 82.7298 186.925 83.3839C186.683 84.1946 185.39 86.5924 184.355 84.6776C184.417 84.5378 184.469 84.3937 184.51 84.2464C184.678 83.5008 184.805 82.7463 184.889 81.9866C184.682 82.6766 184.562 83.4184 184.32 84.0911C184.266 84.3046 184.168 84.5042 184.031 84.6767C183.894 84.8492 183.722 84.9907 183.527 85.0916C182.975 85.2814 182.561 84.8501 182.354 84.3844C182.687 83.3498 182.889 82.2778 182.957 81.1931C182.858 82.3308 182.555 83.4411 182.06 84.4706C181.715 85.0916 181.06 85.1606 180.836 84.4706C180.793 84.2368 180.793 83.9972 180.836 83.7634C180.86 82.9832 180.97 82.208 181.163 81.4519V81.4691ZM156.703 78.0191C156.858 78.1744 156.996 78.3469 157.151 78.5366C157.153 78.5629 157.162 78.5882 157.177 78.6096C157.192 78.631 157.213 78.6476 157.238 78.6574C157.598 79.1186 157.878 79.6377 158.066 80.1926C158.29 80.8826 158.756 82.5904 157.324 81.9176C156.892 81.3066 156.413 80.7298 155.892 80.1926C155.789 80.1926 155.892 80.1926 155.892 80.1926C156.203 80.7446 158.669 84.1429 155.892 83.3839C155.627 82.5837 155.205 81.8447 154.65 81.2104C154.62 81.1889 154.583 81.1778 154.545 81.179C154.508 81.1801 154.472 81.1933 154.443 81.2167C154.414 81.24 154.393 81.2722 154.384 81.3084C154.374 81.3446 154.377 81.3828 154.391 81.4174C154.736 82.2109 156.668 85.1779 154.391 84.3844C153.095 83.6192 152.143 82.3835 151.735 80.9344C151.47 80.2864 151.447 79.5648 151.671 78.9015C151.894 78.2381 152.349 77.6773 152.952 77.3215C153.555 76.9657 154.265 76.8386 154.954 76.9636C155.643 77.0885 156.263 77.457 156.703 78.0019V78.0191ZM89.7211 39.8621C90.5529 39.8596 91.3765 40.0265 92.1417 40.3527C92.9068 40.679 93.5975 41.1577 94.1716 41.7596C93.8611 39.2756 90.1006 35.7394 90.1006 35.7394C85.7018 35.8429 86.6506 31.4959 86.6506 31.4959C86.8492 31.0378 87.1554 30.6343 87.5432 30.3198C87.931 30.0052 88.389 29.7888 88.8782 29.6889C89.3674 29.589 89.8736 29.6086 90.3536 29.746C90.8337 29.8834 91.2735 30.1345 91.6358 30.4781C91.6358 31.0129 92.5673 33.4624 93.9128 33.5659C95.2583 33.6694 94.7753 35.0839 94.7753 35.0839C94.7753 35.0839 95.7758 33.7901 94.7753 33.0656C93.7748 32.3411 93.6886 30.4609 93.6886 30.4609C99.3466 29.9434 103.331 16.3331 103.331 16.3331C104.78 23.8714 112.957 24.0094 112.957 24.0094C112.97 28.4835 112.705 32.9542 112.163 37.3954C111.928 38.7403 111.251 39.9682 110.238 40.8839C109.226 41.7997 107.936 42.3508 106.574 42.4496C106.574 42.4496 106.574 46.9691 106.816 48.2284C104.936 49.8503 102.536 50.7427 100.054 50.7427C97.5712 50.7427 95.1713 49.8503 93.2918 48.2284V46.5034C94.0924 46.5591 94.8968 46.5244 95.6896 46.3999C90.8596 45.4511 89.7211 39.8621 89.7211 39.8621ZM92.3776 49.9534C94.1026 53.1619 103.883 55.1284 107.903 49.2979C109.804 49.3102 111.702 49.4717 113.578 49.7809C112.25 63.4601 92.0153 63.9431 87.2026 52.2304C88.8758 51.4369 90.6181 50.6951 92.3776 49.9534ZM62.0866 104.55C52.8578 91.1636 59.6888 73.1374 70.4701 62.8219C75.2249 58.4712 80.6923 54.9702 86.6333 52.4719C88.5998 58.7336 96.4141 61.8731 102.572 61.0969C105.498 60.8218 108.242 59.5577 110.353 57.513C112.463 55.4683 113.814 52.7653 114.182 49.8499C119.118 50.7118 123.819 52.598 127.982 55.3871C132.363 58.3439 136.241 61.9838 139.47 66.1684C143.645 71.4641 146.008 77.8811 148.492 84.1084C144.335 86.9891 139.453 90.0079 134.45 92.8369C133.588 92.1814 131.621 90.4391 131.225 90.0769C131.356 84.9669 130.268 79.8992 128.051 75.2936H127.878C131.432 84.0739 130.448 91.4224 130.604 94.8724C121.496 99.7714 112.698 103.687 108.179 104.653C108.179 104.653 108.179 104.394 108.041 104.36C100.813 101.962 79.2676 94.2859 79.2331 94.2859C79.6791 91.3996 79.9728 88.4918 80.1128 85.5746C80.1128 85.5746 79.9748 85.5746 79.9748 85.6781C79.2331 88.5244 79.1296 91.6121 78.6638 94.5274C78.6551 94.5801 78.6618 94.6343 78.6832 94.6833C78.7047 94.7323 78.7399 94.774 78.7846 94.8034C88.1686 98.8571 98.0701 101.703 107.799 104.791C108.028 108.081 107.877 111.386 107.351 114.641C92.0498 116.038 72.2641 119.298 62.0866 104.55ZM133.916 93.1474C132.95 93.6994 131.966 94.2341 131 94.7516C131.104 93.4579 131.173 92.0951 131.19 90.6979C132.01 91.6075 132.924 92.4285 133.916 93.1474ZM108.368 107.241C108.941 107.484 109.557 107.609 110.18 107.609C110.802 107.609 111.418 107.484 111.991 107.241C113.267 106.568 113.906 105.171 115.061 104.325C115.137 105.268 114.881 106.208 114.337 106.982C114.216 107.137 114.337 107.327 114.578 107.31C115.751 107.482 118.184 107.016 119.029 107.706C120.219 108.655 115.976 109.069 114.889 109.207C114.716 109.207 114.768 109.483 114.889 109.5C116.231 109.492 117.563 109.277 118.839 108.862C119.857 111.45 115.562 110.863 114.751 111.156C114.716 111.168 114.686 111.19 114.665 111.219C114.644 111.249 114.632 111.284 114.632 111.32C114.632 111.357 114.644 111.392 114.665 111.421C114.686 111.451 114.716 111.473 114.751 111.484C115.756 111.553 116.766 111.483 117.752 111.277C118.667 113.433 110.231 115.124 108.11 112.26C108.345 110.598 108.431 108.918 108.368 107.241ZM82.0276 139.05C82.0276 138.946 82.2518 139.05 82.2346 139.05C81.8033 145.605 77.6633 172.273 76.4041 179.018C76.4041 179.208 76.0936 179.121 76.1281 179.018C77.0251 172.359 80.7166 145.674 82.0276 139.05ZM68.3138 182.744C70.1162 183.647 71.971 184.442 73.8683 185.124C73.8683 185.625 73.9718 186.315 74.0236 187.091C69.7456 186.677 65.6746 187.522 61.4138 187.229C61.4138 185.694 61.2931 182.865 61.2931 182.865C62.4488 182.83 65.7091 182.761 68.3138 182.796V182.744ZM69.5731 187.712H73.9373C74.0926 189.799 74.2651 192.663 74.4376 195.733C72.9065 195.518 71.3567 195.466 69.8146 195.578C69.8975 192.972 69.8341 190.363 69.6248 187.764L69.5731 187.712ZM69.1418 195.561C68.9521 195.561 63.9668 195.561 61.7071 195.664C61.7071 193.594 61.4138 188.35 61.4138 187.798C63.964 187.969 66.5227 187.969 69.0728 187.798C68.7667 190.395 68.7898 193.021 69.1418 195.612V195.561ZM2.07385 173.412C17.5988 159.853 32.6408 146.985 48.5108 133.737C54.3931 138.912 60.8791 143.535 67.1926 148.244C65.2433 157.3 63.1043 167.219 61.8623 172.929C45.9751 173.205 11.7856 173.55 2.07385 173.412ZM5.00635 230.216C5.11613 227.803 4.96577 225.386 4.55785 223.005C10.3366 223.695 62.2763 223.109 76.5248 222.885C76.6283 224.61 76.8008 226.938 76.9733 229.491C60.9998 229.491 16.7708 229.905 5.00635 230.216ZM44.4743 206.997C47.6308 206.75 50.8001 206.71 53.9618 206.877C53.9618 206.877 53.9618 219.78 54.2378 222.574L44.8021 222.729C44.6641 217.33 44.8021 212.362 44.4743 206.997ZM86.8058 253.572C77.2148 255.211 71.5396 254.262 68.5208 254.452C68.4001 253.676 69.6766 251.899 70.2458 251.468C70.8151 251.037 78.2498 247.483 78.2498 247.483C80.5786 251.709 85.3913 249.674 86.8748 248.932C87.264 250.478 87.264 252.096 86.8748 253.641L86.8058 253.572ZM92.8606 223.264C86.9266 225.869 81.0443 224.23 76.3351 220.004L76.4731 222.143L54.8761 222.488C55.1312 217.102 54.9755 211.704 54.4103 206.342C54.4103 206.342 47.0963 205.359 43.8361 206.221C43.7326 206.221 43.9223 217.261 44.0603 222.66L11.2853 222.54C11.2853 222.54 10.6988 190.265 9.7846 174.24C17.1331 174.464 46.7858 173.895 61.7761 173.584L60.8618 177.776C62.7277 179.511 64.816 180.99 67.0718 182.175C65.0334 181.96 62.9732 182.1 60.9826 182.589C60.9716 182.628 60.9716 182.67 60.9826 182.709C60.6205 187.191 60.6898 191.696 61.1896 196.164C61.1896 196.164 61.3103 196.371 61.3966 196.371C63.5356 196.509 72.1433 196.113 74.6618 196.475C75.0586 203.599 75.5243 211.655 75.9728 214.415C75.9728 214.415 76.4731 219.814 76.5593 219.866C78.9916 221.591 84.9946 226.404 92.7743 222.971C92.9296 222.85 93.0848 223.247 92.8606 223.333V223.264ZM94.3268 216.571C86.8748 218.4 78.5948 215.226 76.5248 214.294C75.8348 209.257 75.4208 189.816 74.3686 185.331C82.8433 188.171 91.7381 189.553 100.675 189.42C99.3293 193.732 95.2756 211.965 94.3268 216.675V216.571ZM91.7738 157.921C91.7859 157.883 91.81 157.849 91.8426 157.825C91.8751 157.801 91.9145 157.788 91.955 157.788C91.9954 157.788 92.0348 157.801 92.0674 157.825C92.1 157.849 92.124 157.883 92.1361 157.921C92.1361 163.855 92.3258 169.806 92.1361 175.74C92.1361 175.913 91.8601 175.913 91.8428 175.74C91.5841 169.893 91.7566 163.941 91.7738 158.025V157.921ZM104.936 121.144C101.072 121.351 82.5106 122.214 77.1803 119.592H77.0941C75.7363 118.194 74.9174 116.361 74.7826 114.417C75.5071 114.675 76.2661 114.9 77.0078 115.107C86.3056 117.539 95.9828 116.107 105.35 115.262C105.085 117.241 104.947 119.234 104.936 121.23V121.144ZM123.514 218.589C121.789 213.639 116.752 193.266 114.665 188.488C116.39 188.281 120.064 187.643 121.358 187.419C123.083 191.024 125.153 194.508 127.05 198.01C128.948 201.512 130.966 205.272 133.053 208.809C134.778 211.655 136.503 214.449 138.418 217.14C132.639 221.194 125.791 219.435 123.514 218.676V218.589ZM148.544 252.451C143.075 252.572 138.728 253.003 133.019 252.693C132.613 250.805 132.549 248.859 132.829 246.948C138.176 251.382 140.315 245.62 140.315 245.62C141.506 246.724 148.492 249.95 148.544 252.537V252.451ZM217.337 234.339C221.218 235.477 226.686 234.735 230.516 233.942C230.343 235.374 231.464 240.531 225.134 241.256C217.233 242.274 217.682 235.77 217.337 234.425V234.339ZM222.65 250.053C220.459 250.416 211.765 251.778 211.161 248.104C211.816 248.543 212.581 248.788 213.369 248.811C216.371 249.053 230.809 246.431 231.62 245.465C232.534 249.277 225.013 249.76 222.65 250.14V250.053ZM231.62 245.085C230.705 245.931 218.837 248.035 216.388 248.225C213.938 248.415 209.626 248.794 211.437 245.051C211.818 244.299 212.3 243.603 212.869 242.981C213.582 243.687 214.336 244.349 215.129 244.965C215.336 245.103 215.543 244.861 215.439 244.654C214.898 243.783 214.12 243.083 213.197 242.636C213.697 242.118 214.266 241.601 214.835 241.118C215.18 241.394 216.405 242.739 216.785 242.964C216.824 242.986 216.868 242.997 216.913 242.994C216.958 242.991 217.001 242.974 217.037 242.946C217.072 242.918 217.098 242.88 217.112 242.837C217.125 242.794 217.125 242.748 217.112 242.705C216.73 241.867 216.073 241.186 215.249 240.773L216.509 239.755C217.423 240.342 218.234 241.066 219.131 241.687C219.251 241.687 219.407 241.687 219.32 241.515C218.64 240.664 217.78 239.975 216.802 239.496C217.144 239.218 217.501 238.959 217.871 238.72C218.634 239.717 219.619 240.522 220.747 241.072C221.875 241.623 223.115 241.903 224.37 241.891C225.625 241.88 226.86 241.576 227.978 241.005C229.095 240.433 230.065 239.61 230.809 238.599C232.051 239.91 231.62 244.05 231.62 245.172V245.085ZM234.638 175.723C233.327 192.231 214.111 224.265 214.111 224.265V224.679C204.175 239.1 190.979 247.725 185.855 251.847C178.645 249.691 172.159 245.499 165.966 241.325C159.302 237.057 153.038 232.196 147.25 226.8C141.742 221.17 137.019 214.822 133.208 207.929C129.206 201.029 125.825 193.818 121.651 187.074C119.926 183.382 106.35 152.298 105.643 121.196C105.8 119.245 105.829 117.286 105.729 115.331L107.351 115.193C107.458 115.125 107.537 115.021 107.575 114.9C107.769 114.197 107.919 113.482 108.023 112.761C108.944 113.403 109.996 113.832 111.103 114.017C112.21 114.202 113.344 114.138 114.423 113.83C115.682 113.554 118.787 112.968 118.149 111.053C118.345 110.979 118.53 110.881 118.701 110.76C118.881 110.668 119.036 110.533 119.152 110.368C119.269 110.202 119.343 110.011 119.368 109.81C119.394 109.61 119.37 109.406 119.299 109.217C119.227 109.027 119.111 108.858 118.96 108.724C119.581 108.414 119.857 107.982 119.374 107.379C119.115 107.163 118.814 107.005 118.49 106.912C118.166 106.82 117.827 106.797 117.494 106.844C116.571 106.832 115.648 106.89 114.734 107.016C115.355 106.154 115.682 103.187 114.837 103.704C114.063 104.303 113.388 105.019 112.836 105.826C111.542 107.31 110.042 107.154 108.282 106.878C108.282 106.275 108.282 105.671 108.127 105.153C111.599 104.713 114.968 103.668 118.08 102.066C122.117 100.341 141.695 91.3189 151.907 82.4179C152.175 83.0211 152.564 83.5625 153.051 84.0078C153.538 84.4531 154.112 84.7928 154.736 85.0054C155.875 85.2641 156.082 84.6086 155.909 83.7806C156.032 83.8696 156.175 83.9278 156.325 83.9503C156.475 83.9728 156.628 83.959 156.772 83.91C156.916 83.861 157.045 83.7782 157.15 83.6687C157.255 83.5591 157.333 83.4259 157.376 83.2804C157.505 82.9237 157.505 82.5331 157.376 82.1764C157.997 82.5041 158.445 82.5559 158.635 81.8141C158.698 81.2126 158.639 80.6046 158.461 80.0265C158.283 79.4484 157.99 78.9123 157.6 78.4504C158.825 77.4844 159.963 76.4321 161.171 75.4489C163.637 73.4824 166.656 75.7766 169.123 76.8289C172.883 78.4504 180.577 81.7451 180.629 81.6761C180.519 82.1364 180.438 82.603 180.387 83.0734C180.387 83.7116 180.025 84.9364 180.853 85.2641C181.388 85.4711 181.784 85.1606 182.06 84.6431C182.11 84.8149 182.199 84.9727 182.321 85.1042C182.442 85.2356 182.592 85.3371 182.76 85.4006C182.927 85.4642 183.106 85.488 183.284 85.4703C183.462 85.4526 183.634 85.3939 183.785 85.2986C183.916 85.2139 184.032 85.1091 184.13 84.9881C184.596 85.7471 185.459 86.1611 186.166 85.4711C186.726 84.9328 187.131 84.2535 187.339 83.5046C196.109 86.57 205.092 88.9914 214.214 90.7496C218.544 91.5604 222.96 91.7156 227.29 92.4746C233.12 93.4579 234.38 98.7191 234.19 103.86C233.769 103.837 233.353 103.768 232.948 103.653C232.055 103.376 231.18 103.048 230.326 102.669C230.326 102.669 230.222 102.669 230.222 102.773C230.049 103.456 230.103 104.177 230.378 104.826C230.533 105.332 230.872 105.762 231.326 106.033C230.305 106.566 229.396 107.292 228.653 108.172C228.152 108.69 226.755 109.897 226.928 110.76C227.1 111.622 227.997 111.381 228.653 111.191C228.583 111.345 228.553 111.514 228.566 111.683C228.579 111.851 228.635 112.014 228.728 112.155C228.821 112.297 228.948 112.412 229.098 112.491C229.248 112.569 229.415 112.609 229.584 112.605H230.119C231.188 113.813 232.741 112.812 233.828 112.105L235.259 111.191C235.259 115.314 235.898 119.454 236.277 123.559C236.553 126.716 236.691 129.924 237.105 133.081C237.933 156.783 235.932 159.336 234.638 175.809V175.723ZM237.692 132.96C237.467 129.51 236.984 126.06 236.691 122.61C236.346 118.695 236.208 114.693 235.587 110.811C236.92 109.959 238.142 108.945 239.227 107.793C240.107 109.19 241.038 110.553 241.866 111.881C242.099 112.024 242.356 112.123 242.625 112.174C242.315 115.624 243.988 128.889 244.609 133.616C241.262 133.512 238.778 133.202 237.692 133.047V132.96ZM244.937 133.65C244.574 128.855 243.643 115.624 243.212 112.174C255.39 111.984 268.328 108.621 277.108 99.9094C277.298 105.291 278.971 121.403 279.057 124.059C279.181 124.882 279.096 125.722 278.81 126.503C278.523 127.284 278.045 127.98 277.418 128.527C266.551 133.875 253.234 134.202 244.937 133.737V133.65ZM269.087 247.949C266.309 249.208 260.72 251.658 258.857 248.156C259.832 248.241 260.814 248.147 261.755 247.88C266.915 246.885 271.792 244.765 276.038 241.67C277.919 243.723 270.173 247.5 269 248.035L269.087 247.949ZM275.866 241.239C271.872 244.219 267.254 246.254 262.359 247.19C260.824 247.5 258.357 248.104 258.047 246.051C258.097 245.292 258.373 244.565 258.84 243.964C259.03 243.619 259.254 243.291 259.478 242.964C260.101 243.296 260.643 243.761 261.065 244.326C261.255 244.464 261.428 244.206 261.359 244.033C260.975 243.404 260.401 242.915 259.72 242.636C260.048 242.187 260.393 241.756 260.738 241.325C261.962 241.825 262.29 242.791 262.652 243.05C263.015 243.309 262.963 243.05 262.911 242.86C262.476 242.065 261.816 241.417 261.014 240.997L261.893 239.928C263.204 240.738 263.618 241.791 263.998 242.153C264.153 242.274 264.464 242.153 264.377 241.929C263.918 240.936 263.181 240.097 262.256 239.514L263.17 238.375C265.205 241.825 273.037 240.1 273.33 236.133C274.314 237.78 275.134 239.519 275.78 241.325L275.866 241.239ZM272.071 231.648C272.416 232.924 274.917 238.358 268.241 239.565C263.601 240.411 261.824 234.873 261.721 234.649C265.336 234.576 268.871 233.572 271.985 231.734L272.071 231.648ZM316.3 205.255C315.489 204.893 315.489 204.203 315.196 203.53C314.807 202.411 314.292 201.341 313.661 200.339C310.814 196.544 305.036 197.579 301.361 199.649C300.447 200.197 299.672 200.95 299.098 201.847C298.523 202.745 298.164 203.764 298.049 204.824C298.029 205.286 297.983 205.747 297.911 206.204C297.584 207.36 297.325 207.325 296.083 207.48C294.479 207.687 279.954 208.688 271.743 208.929C270.449 201.374 269.173 193.887 268.621 190.834C267.801 187.398 267.666 183.834 268.224 180.346C270.317 177.215 271.906 173.775 272.933 170.151C278.298 169.789 290.183 168.754 293.219 169.548C296.997 170.583 299.015 173.791 300.413 177.207C301.81 180.622 302.879 184.417 304.087 187.815C304.087 187.953 304.449 188.022 304.501 188.022C307.502 188.022 310.573 187.591 313.574 187.453C316.576 187.315 320.612 186.177 323.165 188.074C325.034 189.819 326.2 192.187 326.443 194.733C327.04 198.063 327.329 201.441 327.305 204.824C324.269 204.72 316.783 205.479 316.3 205.255Z" fill="black"/>
<path d="M311.418 214.087C312.002 213.622 312.485 213.043 312.838 212.384C313.191 211.726 313.406 211.003 313.471 210.259C313.535 209.515 313.448 208.766 313.214 208.057C312.979 207.348 312.603 206.694 312.108 206.135C311.045 204.805 309.564 203.872 307.905 203.487C306.246 203.102 304.506 203.287 302.965 204.013C299.412 206.118 300.481 210.551 302.103 212.794C303.966 215.347 308.865 215.812 311.418 214.087ZM303.241 204.6C304.28 204.095 305.436 203.884 306.586 203.99C307.736 204.097 308.834 204.516 309.762 205.204C312.177 206.773 313.695 210.499 311.487 212.88C309.762 214.726 305.587 214.605 303.673 213.139C299.981 210.361 301.327 205.531 303.241 204.6Z" fill="black"/>
<path d="M307.675 209.775C307.991 209.452 308.168 209.019 308.168 208.567C308.168 208.116 307.991 207.682 307.675 207.36C307.355 207.059 306.932 206.891 306.493 206.891C306.054 206.891 305.632 207.059 305.312 207.36C305.15 207.495 305.018 207.662 304.924 207.85C304.83 208.039 304.775 208.244 304.764 208.455C304.752 208.665 304.784 208.875 304.858 209.073C304.931 209.27 305.045 209.45 305.191 209.602C305.34 209.781 305.523 209.927 305.731 210.033C305.938 210.139 306.164 210.202 306.396 210.218C306.628 210.234 306.861 210.203 307.081 210.127C307.301 210.051 307.503 209.931 307.675 209.775ZM306.968 207.722C307.098 207.772 307.214 207.852 307.307 207.956C307.399 208.06 307.466 208.185 307.502 208.319C307.537 208.454 307.54 208.595 307.51 208.731C307.48 208.867 307.418 208.994 307.33 209.102C305.588 210.948 304.57 206.928 306.933 207.687L306.968 207.722ZM291.788 175.482C288.338 172.825 281.817 174.654 278.143 175.758C278.105 175.762 278.07 175.78 278.044 175.809C278.019 175.838 278.005 175.875 278.005 175.913C278.315 179.967 279.264 184.279 279.902 188.298C279.902 188.298 290.718 186.936 296.083 186.953C296.221 186.953 296.48 186.953 296.462 186.763C295.962 182.899 295.082 178.035 291.788 175.482ZM280.385 187.557C279.816 183.831 279.575 179.984 278.833 176.275C282.473 175.585 288.51 173.636 291.632 176.448C294.358 178.88 294.979 182.813 295.496 186.246C292.978 186.246 282.904 187.177 280.385 187.591V187.557ZM309.296 220.918C304.294 217.899 297.359 218.917 292.046 220.918C289.253 221.938 286.63 223.374 284.267 225.179C282.421 226.611 280.696 228.284 281.075 230.785C281.075 231.165 283.922 240.221 283.973 240.238C288.579 243.188 295.41 242.998 300.516 241.773C303.354 241.103 306.072 239.997 308.572 238.496C310.806 237.106 312.638 235.155 313.885 232.838C313.885 232.838 313.436 227.094 313.419 226.956C313.272 225.691 312.82 224.481 312.102 223.429C311.384 222.377 310.421 221.516 309.296 220.918ZM282.99 227.283C285.143 225.022 287.763 223.256 290.666 222.108C296.221 219.642 304.156 218.814 308.762 221.522C311.746 223.247 313.747 226.887 311.556 230.147C309.718 232.336 307.339 234.007 304.656 234.994C299.222 237.426 291.684 239.376 286.181 236.15C283.232 234.425 280.385 230.475 282.99 227.283ZM307.433 238.237C305.211 239.459 302.831 240.37 300.361 240.945C295.201 242.304 289.733 241.891 284.836 239.772C284.836 239.772 283.542 235.908 282.904 234.011C284.094 235.434 285.59 236.569 287.281 237.33C288.972 238.092 290.813 238.461 292.667 238.41C298.725 238.255 304.601 236.31 309.555 232.821C310.896 231.965 311.957 230.736 312.608 229.284C312.764 230.388 312.902 232.648 312.902 232.734C311.612 235.031 309.722 236.933 307.433 238.237Z" fill="black"/>
</svg>
