<svg width="345" height="305" viewBox="0 0 345 305" fill="none" xmlns="http://www.w3.org/2000/svg">
<path d="M37.4012 267.149C46.5769 278.091 52.0744 290.691 53.3776 303.765C53.3776 304.185 54.2829 304.206 54.2563 303.765C53.258 290.521 47.6472 277.751 38.0402 266.856C37.774 266.541 37.1615 266.835 37.4012 267.149ZM115.127 263.435C106.206 272.039 107.751 284.041 115.34 292.812C115.739 293.253 116.671 292.812 116.298 292.371C109.455 283.537 107.005 272.437 115.606 263.729C115.872 263.54 115.393 263.163 115.127 263.435ZM227.068 201.157C233.528 215.3 236.956 230.192 237.213 245.222C237.213 245.322 237.264 245.418 237.354 245.489C237.443 245.56 237.565 245.6 237.692 245.6C237.82 245.6 237.941 245.56 238.031 245.489C238.121 245.418 238.172 245.322 238.172 245.222C238.067 230.117 234.522 215.15 227.707 201.031C227.574 200.717 226.935 200.842 227.068 201.157ZM279.684 228.918C263.974 244.53 262.775 264.988 263.255 284.062C263.255 284.162 263.305 284.258 263.395 284.329C263.485 284.4 263.607 284.44 263.734 284.44C263.861 284.44 263.983 284.4 264.073 284.329C264.163 284.258 264.213 284.162 264.213 284.062C264.4 265.177 264.799 244.865 280.19 229.317C280.483 229.023 279.977 228.603 279.684 228.918ZM237.426 35.9352C237.203 35.6886 236.904 35.4909 236.557 35.3607C236.21 35.2305 235.826 35.1721 235.443 35.191C235.059 35.2099 234.688 35.3054 234.364 35.4687C234.04 35.632 233.774 35.8575 233.592 36.1241C233.432 36.3129 233.831 36.5647 234.018 36.3759C234.197 36.1974 234.422 36.0504 234.677 35.9442C234.933 35.8381 235.214 35.7751 235.502 35.7593C235.79 35.7435 236.079 35.7752 236.351 35.8525C236.623 35.9298 236.871 36.0508 237.08 36.208C237.128 36.2233 237.181 36.227 237.232 36.2188C237.284 36.2105 237.33 36.1906 237.367 36.1616C237.404 36.1325 237.429 36.0956 237.44 36.0554C237.45 36.0151 237.446 35.9734 237.426 35.9352ZM242.565 36.6696C242.8 36.5251 243.079 36.4332 243.375 36.4036C243.67 36.3741 243.97 36.408 244.243 36.5018C244.775 36.6906 244.935 37.0473 245.228 37.446C245.27 37.5008 245.333 37.5433 245.408 37.5672C245.483 37.5911 245.566 37.595 245.644 37.5784C245.723 37.5618 245.792 37.5256 245.842 37.4752C245.892 37.4248 245.919 37.363 245.92 37.2991C245.887 36.9775 245.736 36.6705 245.485 36.4156C245.234 36.1608 244.894 35.9693 244.506 35.8646C244.119 35.7599 243.701 35.7465 243.304 35.8262C242.908 35.9058 242.549 36.075 242.272 36.3129C241.9 36.4808 242.299 36.8375 242.565 36.6696ZM240.515 42.0204C240.009 41.8735 238.145 41.8945 237.852 41.6846C237.559 41.4748 238.731 38.684 238.864 37.6978C238.864 37.446 238.411 37.425 238.332 37.6978C238.024 38.4634 237.767 39.2408 237.559 40.027C237.107 41.5797 236.095 42.7758 240.222 42.503C240.303 42.5336 240.397 42.5375 240.481 42.5139C240.566 42.4903 240.636 42.4411 240.675 42.3771C240.714 42.3131 240.719 42.2395 240.689 42.1727C240.659 42.1058 240.596 42.051 240.515 42.0204ZM243.577 46.8045C243.755 47.0582 244.008 47.2743 244.314 47.4346C244.621 47.595 244.972 47.6948 245.337 47.7257C245.703 47.7565 246.073 47.7176 246.415 47.612C246.758 47.5065 247.063 47.3375 247.305 47.1193C247.685 46.5218 247.842 45.8515 247.757 45.1865C247.672 44.5215 247.349 43.8892 246.826 43.3633C246.639 43.1535 246.053 43.1744 246.133 43.5102C246.227 43.9744 246.15 44.4501 245.911 44.8809C245.672 45.3116 245.281 45.6792 244.785 45.9399C244.289 46.2007 243.708 46.3437 243.111 46.3519C242.515 46.3601 241.928 46.2332 241.42 45.9862C241.396 45.9738 241.368 45.9653 241.34 45.9612C241.311 45.9572 241.282 45.9576 241.253 45.9625C241.225 45.9673 241.198 45.9766 241.174 45.9896C241.15 46.0027 241.13 46.0194 241.114 46.0387C241.098 46.058 241.088 46.0795 241.082 46.1021C241.077 46.1246 241.078 46.1478 241.084 46.1702C241.09 46.1926 241.102 46.2138 241.118 46.2326C241.135 46.2515 241.156 46.2676 241.181 46.28C241.879 46.6674 242.725 46.8528 243.577 46.8045ZM246.799 44.5803C247.891 47.0983 245.281 47.7278 244.296 46.6786C244.911 46.5332 245.466 46.2627 245.905 45.8943C246.344 45.5259 246.653 45.0726 246.799 44.5803ZM98.7507 120.12C98.0949 120.111 97.4463 120.229 96.8615 120.463C96.2767 120.697 95.7735 121.04 95.3957 121.463C95.156 121.673 95.5554 122.008 95.795 121.778C96.5801 121.079 97.6571 120.625 98.8306 120.498C98.8941 120.489 98.9509 120.461 98.9883 120.42C99.0258 120.379 99.0409 120.327 99.0303 120.277C99.0197 120.227 98.9843 120.183 98.9319 120.153C98.8794 120.124 98.8143 120.112 98.7507 120.12ZM108.07 118.777C109.375 117.917 110.2 118.945 110.52 119.176C110.574 119.216 110.646 119.238 110.72 119.238C110.794 119.238 110.865 119.216 110.919 119.176C111.159 118.966 110.68 118.106 109.668 117.938C109.304 117.877 108.927 117.892 108.572 117.98C108.217 118.068 107.898 118.227 107.644 118.441C107.588 118.486 107.556 118.546 107.556 118.609C107.556 118.672 107.588 118.733 107.644 118.777C107.701 118.822 107.777 118.847 107.857 118.847C107.937 118.847 108.014 118.822 108.07 118.777ZM105.86 122.617C105.48 122.659 105.095 122.659 104.715 122.617C104.449 122.617 104.156 122.869 104.422 123.037C104.732 123.226 105.098 123.348 105.485 123.392C105.873 123.436 106.268 123.401 106.632 123.288C106.735 123.256 106.821 123.196 106.874 123.12C106.927 123.043 106.946 122.955 106.925 122.869C106.112 121.721 105.223 120.607 104.263 119.532C104.227 119.488 104.171 119.456 104.106 119.444C104.041 119.433 103.973 119.442 103.916 119.469C103.86 119.497 103.82 119.542 103.805 119.593C103.79 119.644 103.801 119.698 103.837 119.742C104.438 120.732 105.113 121.691 105.86 122.617ZM103.437 127.779C104.422 127.926 105.381 127.128 105.141 126.52C105.9 126.454 106.619 126.221 107.218 125.848C107.278 125.818 107.32 125.77 107.335 125.715C107.35 125.659 107.337 125.602 107.298 125.555C107.259 125.507 107.198 125.474 107.128 125.462C107.058 125.451 106.985 125.461 106.925 125.492C106.171 125.867 105.289 126.051 104.398 126.017C103.507 125.983 102.651 125.734 101.946 125.303C101.904 125.244 101.834 125.202 101.751 125.184C101.669 125.166 101.581 125.175 101.507 125.208C101.432 125.242 101.378 125.297 101.356 125.362C101.333 125.427 101.344 125.496 101.387 125.555C101.653 126.436 102.079 127.569 103.437 127.779ZM104.635 126.541C104.209 127.59 102.905 127.443 102.319 126.079C103.018 126.387 103.807 126.547 104.609 126.541H104.635Z" fill="#0D2152"/>
<path d="M171.55 111.832C171.446 111.658 171.261 111.522 171.033 111.451C170.805 111.381 170.552 111.382 170.325 111.454C170.325 111.307 171.79 109.356 170.964 108.915C170.827 108.853 170.671 108.82 170.512 108.82C170.353 108.82 170.197 108.853 170.059 108.915C170.432 108.223 170.618 107.509 170.059 107.174C169.849 107.062 169.596 107.011 169.343 107.03C169.09 107.049 168.854 107.137 168.675 107.279C168.834 106.838 168.888 105.642 168.328 105.621C166.944 105.621 166.118 107.111 165.506 107.887C164.893 108.664 164.494 109.985 163.722 109.503C162.95 109.02 160.819 107.908 159.887 108.202C158.103 108.747 160.287 114.14 160.26 114.182C159.089 114.665 158.716 116.28 158.636 117.183C154.269 116.784 152.032 120.771 144.71 129.017C137.387 137.264 124.1 139.677 112.171 138.334C112.226 138.111 112.218 137.882 112.147 137.662C112.076 137.443 111.944 137.238 111.761 137.063C111.578 136.889 111.347 136.748 111.087 136.652C110.826 136.556 110.542 136.507 110.254 136.508C109.838 134.927 109.606 133.318 109.562 131.703C109.562 130.885 109.562 130.99 111.026 130.381C111.721 130.145 112.349 129.803 112.874 129.374C113.4 128.946 113.813 128.439 114.088 127.884C115.389 124.082 115.306 120.068 113.849 116.301C114.28 115.199 114.583 114.069 114.754 112.923C115.366 113.154 115.366 112.692 115.446 112.524C115.95 110.555 115.463 108.509 114.088 106.817C113.124 105.917 111.8 105.303 110.334 105.075C108.708 102.502 105.879 100.527 102.443 99.5641C99.0061 98.6013 95.2295 98.7266 91.9077 99.9135C85.7035 102.39 79.3396 108.097 82.9343 113.7C81.6562 115.168 80.4579 116.952 81.1236 118.274C81.4468 119.018 82.1052 119.642 82.974 120.029C83.8427 120.416 84.8613 120.538 85.8367 120.372C85.3339 121.027 85.0681 121.778 85.0681 122.544C85.0681 123.31 85.3339 124.061 85.8367 124.716C87.8604 126.94 89.8308 126.185 89.8308 126.185C90.0971 129.374 93.7716 131.032 97.6326 131.325C97.6326 131.325 96.5143 134.851 96.035 135.858C95.2628 135.312 93.6385 135.858 93.3722 136.865C86.2848 136.556 79.4533 134.671 73.6679 131.43C64.8277 126.688 66.159 120.372 58.6767 104.761C58.4473 104.089 58.0486 103.46 57.5042 102.912C56.9598 102.364 56.2809 101.908 55.5081 101.571C55.5081 100.48 53.085 99.8716 52.8453 99.8296C54.2033 98.7175 57.8246 96.2624 56.1738 95.4861C55.1619 95.0244 53.511 96.5352 53.511 95.612C53.511 94.1012 52.9252 91.9819 52.3128 92.0448C51.7003 92.1078 51.4074 92.5484 51.1944 92.9471C50.6885 91.0166 49.224 91.5622 48.9577 93.2199C48.6382 92.4645 48.1589 91.835 47.44 91.9399C46.721 92.0448 46.4281 93.2409 46.5346 94.311C46.2417 93.9753 45.6559 93.4087 45.0968 93.7654C44.5376 94.1222 44.937 95.3602 45.0968 96.0526C45.3301 97.5198 45.8984 98.9416 46.7743 100.249C46.1439 100.692 45.6665 101.253 45.387 101.881C45.1076 102.508 45.0352 103.182 45.1766 103.837C42.5139 107.53 42.9399 116.427 42.8334 120.834C42.3808 136.97 49.0642 153.232 68.0229 159.527C66.3659 164.5 64.3839 169.403 62.085 174.215C61.3577 175.691 61.1275 177.289 61.4168 178.856C61.7061 180.422 62.5051 181.903 63.7359 183.154C60.9134 184.413 61.3661 185.924 62.8572 187.351C55.8967 194.522 51.9248 203.215 51.4873 212.237C51.927 217.831 51.8113 223.443 51.1412 229.023C51.1412 229.317 50.5021 229.317 50.5287 229.023C50.9681 224.407 50.9681 219.77 50.5287 215.153C40.6007 209.571 31.2517 203.376 22.57 196.625C21.537 196.999 20.5323 197.419 19.5611 197.884C18.3362 197.066 17.138 196.248 15.9664 195.387C16.1262 194.569 11.8391 191.652 11.3332 191.547C10.9021 191.513 10.4667 191.549 10.0543 191.654C9.64184 191.759 9.26137 191.93 8.93675 192.156C5.60798 194.114 2.61817 196.407 0.0432007 198.975C-0.169818 199.437 0.442609 199.962 1.05504 200.046C4.13662 199.895 7.20417 199.601 10.2415 199.164C10.9338 200.255 11.5462 201.409 12.2385 202.522C11.4664 203.193 10.8007 203.823 10.2681 204.389C17.6972 220.693 40.7299 246.104 53.0583 247.531C56.3355 248.013 59.7164 247.803 62.8572 246.922C73.7212 243.733 85.6237 221.742 85.6237 221.742C88.5459 217.69 91.1083 213.483 93.2924 209.152C93.3219 209.096 93.3763 209.05 93.4453 209.023C93.5144 208.996 93.5935 208.99 93.6681 209.005C93.7427 209.021 93.8077 209.057 93.8512 209.107C93.8947 209.157 93.9137 209.218 93.9048 209.278C92.2272 213.999 88.5793 218.028 85.9166 222.456C86.6854 224.232 87.6848 225.94 88.8988 227.555C92.0986 231.443 96.0519 234.912 100.615 237.836C101.014 238.046 100.615 238.55 100.242 238.34C97.9433 237.126 95.8184 235.719 93.9048 234.143C83.9994 242.914 74.5467 251.846 65.5466 260.939C66.2922 261.694 67.091 262.492 67.9431 263.289C67.1176 264.086 66.2123 264.842 65.4667 265.66C63.8973 266.872 62.4795 268.2 61.233 269.626C61.0199 271.137 70.6324 277.516 71.2182 277.621C71.5098 277.683 71.8188 277.675 72.1041 277.596C72.3894 277.518 72.6376 277.372 72.8159 277.18C73.5881 276.005 71.3514 272.606 71.0052 270.255C71.8839 269.584 72.736 268.892 73.6679 268.157L75.7449 269.794C80.0851 267.863 123.062 248.496 127.162 242.516C133.154 233.724 122.662 202.459 122.662 202.459C122.662 202.459 127.322 202.333 125.325 198.556C128.334 197.234 129.026 190.456 129.293 186.889C129.825 179.566 129.825 172.201 129.612 164.878C145.218 156.496 157.276 144.618 164.228 130.78C165.852 127.381 168.355 123.646 165.745 120.624C167.237 119.848 168.888 118.526 168.408 117.372C168.163 116.85 167.75 116.387 167.21 116.029C168.781 115.336 172.322 113.112 171.55 111.832ZM13.277 201.745C12.5581 200.675 11.7859 199.647 10.9338 198.598V198.451C10.9213 198.031 11.0277 197.613 11.2451 197.23C11.4625 196.846 11.7856 196.505 12.191 196.232C12.5963 195.959 13.0737 195.76 13.5885 195.65C14.1033 195.54 14.6427 195.522 15.1676 195.597C16.279 196.553 17.4521 197.464 18.6824 198.325C16.726 199.304 14.9132 200.451 13.277 201.745ZM70.6058 269.542C69.5426 269.552 68.5124 269.251 67.7153 268.697C66.9182 268.142 66.4109 267.374 66.2922 266.541C67.0377 265.639 67.9164 264.821 68.7419 263.961C69.4342 264.59 72.3898 267.171 73.1354 267.758C70.659 269.353 70.6058 269.752 70.6058 269.542ZM92.387 100.417C99.1504 97.7732 105.834 100.165 109.642 104.908C105.111 104.269 100.448 104.557 96.0986 105.744C91.7492 106.931 87.8586 108.976 84.7982 111.685C84.3988 112.084 83.8396 112.608 83.2804 113.217C80.2982 107.971 86.5822 102.704 92.387 100.417ZM85.7035 119.113C84.239 119.974 80.3781 118.358 83.0408 114.917C84.9432 112.461 87.4872 110.353 90.5035 108.732C93.5198 107.111 96.9394 106.015 100.535 105.516C104.289 104.929 110.387 104.488 113.236 106.964C114.082 107.702 114.665 108.603 114.927 109.576C115.189 110.548 115.12 111.558 114.727 112.503C107.884 110.405 99.4965 109.923 93.2391 113.007C90.4606 114.827 87.9347 116.874 85.7035 119.113ZM98.1119 131.262C98.1119 131.262 98.1119 131.011 97.9255 130.99C96.0919 130.915 94.3424 130.361 92.9535 129.414C91.5646 128.468 90.6157 127.184 90.2568 125.765C89.3481 125.579 88.458 125.341 87.5941 125.051C87.1215 124.795 86.7242 124.462 86.4286 124.074C86.1331 123.686 85.9462 123.254 85.8806 122.804C85.8151 122.355 85.8723 121.9 86.0484 121.47C86.2245 121.039 86.5155 120.644 86.9018 120.309C87.1947 121.61 88.1799 122.408 89.3515 122.408C90.5231 122.408 90.4965 120.54 90.4965 120.162C92.5468 119.506 94.312 118.396 95.5785 116.966C96.8449 115.536 97.5584 113.848 97.6326 112.105C99.3649 113.359 101.443 114.278 103.704 114.791C106.749 115.695 109.94 116.26 113.183 116.469C114.568 121.421 115.846 129.227 109.322 130.507C109.249 130.517 109.184 130.549 109.139 130.596C109.095 130.643 109.075 130.701 109.082 130.759C108.961 132.739 109.121 134.724 109.562 136.676C108.923 136.676 106.899 138.439 104.955 138.774C103.409 138.967 101.826 138.84 100.36 138.406C98.8948 137.972 97.5972 137.246 96.5941 136.298C97.2542 134.651 97.7614 132.968 98.1119 131.262ZM96.1149 136.634C99.4699 139.047 104.103 140.369 107.804 138.376C108.736 137.83 109.988 136.907 110.467 137.054C110.946 137.201 111.772 137.809 111.372 138.984C109.961 142.95 103.384 142.782 99.177 141.754C98.1501 141.591 97.1862 141.241 96.3629 140.73C95.5396 140.22 94.88 139.565 94.4373 138.816C94.1444 137.914 94.3841 135.312 96.1947 136.634H96.1149ZM45.5228 95.4441C45.1766 93.5766 45.9755 94.1641 46.6944 96.1785C46.7151 96.2355 46.7587 96.2857 46.8188 96.3214C46.8788 96.3571 46.952 96.3764 47.0272 96.3764C47.1025 96.3764 47.1756 96.3571 47.2357 96.3214C47.2958 96.2857 47.3394 96.2355 47.3601 96.1785C47.3601 95.528 46.8009 93.3668 47.5198 93.094C48.2388 92.8212 48.6915 95.1923 48.9045 95.7379C48.9341 95.794 48.9884 95.8398 49.0574 95.8668C49.1265 95.8938 49.2056 95.9002 49.2802 95.8849C49.3548 95.8696 49.4198 95.8335 49.4633 95.7833C49.5068 95.7332 49.5259 95.6723 49.5169 95.612C49.5169 95.3811 49.2773 92.1078 50.2891 93.1569C50.6035 93.8652 50.7655 94.6098 50.7684 95.3602C50.7684 95.7588 51.4607 95.6749 51.4607 95.3602C51.4607 94.5628 51.6471 92.0448 52.6323 93.4927C52.8305 94.4142 52.9019 95.3498 52.8453 96.2834C52.8453 97.2906 56.1205 95.0244 55.5081 96.7031C55.3749 97.1437 53.8039 98.025 53.4578 98.3398L51.94 99.6827C50.356 99.3094 48.6542 99.3988 47.1471 99.9345C46.2678 98.5253 45.7091 97.0054 45.4962 95.4441H45.5228ZM49.7033 100.186C50.9282 100.186 53.9903 100.333 54.6826 101.361C53.1082 101.081 51.4719 101.098 49.9076 101.412C48.3433 101.726 46.8955 102.327 45.6826 103.166C45.6855 102.761 45.7925 102.361 45.997 101.989C46.2015 101.618 46.4993 101.283 46.8725 101.004C47.2457 100.726 47.6865 100.51 48.1684 100.369C48.6504 100.229 49.1634 100.166 49.6767 100.186H49.7033ZM118.056 202.249C108.763 201.787 92.7864 198.43 76.1177 193.1C67.1176 190.246 59.2625 185.756 64.1087 183.574C67.6513 186.429 71.9148 188.666 76.6236 190.141C82.1114 192.12 87.76 193.81 93.532 195.198C100.295 196.835 119.307 201.346 124.819 199.143C126.683 202.543 119.76 202.333 118.029 202.249H118.056ZM165.186 127.444C159.515 140.642 150.728 151.742 129.745 164.563C129.585 159.653 129.346 154.827 129.053 149.875C129.053 149.518 128.334 149.497 128.361 149.875C128.733 158.897 129.159 167.92 129.026 176.943C129.026 181.37 129.878 196.499 123.701 198.451C116.991 200.549 83.1739 193.31 70.0733 186.721C61.2063 182.252 60.6472 178.475 62.7773 173.837C64.9873 169.194 66.8718 164.459 68.4223 159.653C71.6646 160.637 75.0945 161.183 78.5674 161.269C78.6333 161.253 78.6912 161.221 78.7323 161.178C78.7734 161.134 78.7956 161.081 78.7956 161.027C78.7956 160.973 78.7734 160.92 78.7323 160.877C78.6912 160.833 78.6333 160.801 78.5674 160.786C75.0603 160.481 71.5942 159.934 68.2093 159.149C50.8483 153.819 43.4192 136.55 43.4725 122.366C43.4725 118.022 43.7388 113.637 44.1648 109.314C44.4044 106.733 44.8837 103.649 48.2388 102.432C49.0644 102.075 49.9752 101.858 50.9131 101.793C51.8511 101.729 52.7958 101.819 53.6873 102.058C54.5787 102.296 55.3974 102.679 56.0913 103.18C56.7852 103.682 57.3393 104.291 57.7181 104.97C63.6561 116.721 63.9756 123.079 67.1442 126.961C74.4668 135.9 87.9669 137.201 93.3456 137.222C92.7864 140.411 97.606 142.111 100.775 142.572C105.221 143.202 111.266 142.845 112.065 138.795C121.058 140.037 130.317 138.609 138.053 134.788C141.714 132.789 144.784 130.191 147.053 127.171C148.571 125.345 155.334 116.952 159.248 117.896C160.686 118.271 162.023 118.855 163.189 119.617C166.651 121.757 166.438 124.443 165.16 127.444H165.186ZM167.53 117.33C168.222 118.673 166.677 120.036 165.639 120.498C164.028 118.86 161.754 117.705 159.195 117.225C159.195 115.861 159.914 114.686 161.858 114.686C162.995 114.75 164.098 115.022 165.078 115.481C166.058 115.94 166.888 116.573 167.503 117.33H167.53ZM167.024 115.924C165.36 114.697 163.177 114.002 160.899 113.972C160.899 112.755 160.021 111.182 159.994 109.985C159.994 107.195 164.148 110.909 164.734 110.174C165.19 109.135 165.865 108.163 166.731 107.3C167.05 107.027 167.689 106.397 167.956 107.3C167.651 108.144 167.231 108.96 166.704 109.734C166.669 109.784 166.66 109.843 166.68 109.898C166.7 109.953 166.747 110 166.811 110.027C166.874 110.055 166.949 110.062 167.019 110.046C167.089 110.031 167.148 109.994 167.183 109.944C167.183 109.944 168.328 108.202 168.515 107.845C169.287 106.985 169.926 107.551 169.367 108.643C169.035 109.361 168.644 110.062 168.195 110.741C168.16 110.791 168.151 110.85 168.171 110.905C168.191 110.96 168.238 111.007 168.302 111.035C168.365 111.062 168.44 111.069 168.51 111.054C168.58 111.038 168.639 111.001 168.675 110.951C168.861 110.72 170.379 108.852 170.751 109.44C171.124 110.027 169.314 112.021 169.021 112.42C168.728 112.818 169.021 112.713 169.287 112.566C169.553 112.42 170.751 111.244 170.938 112.336C171.124 113.427 167.476 115.567 166.997 115.924H167.024ZM324.445 54.7996C325.548 54.6571 326.557 54.2214 327.303 53.5649C328.049 52.9083 328.487 52.0705 328.545 51.1905C345.747 55.0724 350.566 35.8727 337.705 27.1646C338.078 29.7875 338.025 33.2078 335.309 35.1802C332.167 37.4884 327.747 36.0615 324.897 38.3697C323.46 39.5028 322.235 41.748 323.433 46.6371C322.842 46.6058 322.248 46.6668 321.687 46.8166C321.126 46.9664 320.608 47.2021 320.163 47.5102C319.717 47.8182 319.353 48.1925 319.092 48.6117C318.831 49.0308 318.677 49.4864 318.64 49.9524C317.686 49.6971 316.676 49.6012 315.673 49.671C314.669 49.7408 313.696 49.9747 312.814 50.3578C311.932 50.7409 311.161 51.2647 310.55 51.8958C309.939 52.5269 309.502 53.2515 309.267 54.0232C308.161 53.6515 306.957 53.4993 305.759 53.5797C304.562 53.6602 303.407 53.971 302.397 54.4848C307.713 47.7675 311.699 40.4514 314.22 32.7882C315.924 28.0459 318.294 22.968 318.187 17.974C318.187 16.2534 317.921 14.239 316.19 13.3157C316.425 13.1497 316.605 12.9419 316.717 12.7096C316.828 12.4773 316.867 12.2274 316.831 11.9807C316.794 11.7341 316.683 11.4979 316.507 11.2921C316.33 11.0862 316.094 10.9167 315.817 10.7977C317.122 9.76954 322.235 6.05551 321.143 4.8175C320.637 4.29292 319.812 4.48177 318.986 4.8175C319.891 3.49555 320.637 1.94279 319.386 1.54411C318.56 1.29231 317.522 2.00574 316.723 2.90802C317.229 1.60706 317.495 0.285118 316.483 0.0333189C315.471 -0.21848 314.406 0.998548 313.581 2.27853C313.762 1.57392 313.67 0.842512 313.315 0.180202C313.276 0.126788 313.215 0.0852806 313.143 0.0624241C313.07 0.0395677 312.99 0.0367056 312.915 0.0543026C310.066 0.452984 309.533 5.44699 309.267 5.50994C309.001 5.57289 308.522 4.5657 307.669 4.25095C304.101 2.90802 307.856 8.30072 308.628 9.34988C307.004 9.55971 305.832 10.5879 306.578 12.917C304.133 13.5262 302.081 14.857 300.853 16.6311C291.427 28.7594 290.868 34.1521 288.018 37.6143C285.942 40.2162 281.388 42.5034 277.368 44.6437C278.086 41.9159 274.518 40.447 270.924 41.1395C272.324 37.0472 272.077 32.7132 270.217 28.7364C268.357 24.7595 264.975 21.3361 260.539 18.9392C256.359 16.5891 252.285 15.6868 248.503 18.3937C236.521 11.2174 221.556 26.2833 231.968 33.6694C230.882 36.1905 230.558 38.8763 231.02 41.5134C231.482 44.1506 232.719 46.6665 234.631 48.8613C236.499 50.532 239.091 51.5942 241.9 51.8409C240.852 54.868 239.198 57.7439 237 60.3601C236.814 59.3949 233.193 60.3601 232.713 60.3601C230.423 60.6119 229.012 62.5634 228.293 63.9273C214.42 71.9848 212.903 74.6287 206.539 78.9932C201.959 82.1197 193.758 76.5382 189.364 74.7966C185.624 73.166 181.416 72.3206 177.142 72.3416C175.301 72.2995 173.473 72.6091 171.817 73.2438C171.495 72.5973 170.894 72.0613 170.119 71.7309C169.344 71.4006 168.445 71.2973 167.583 71.4393C167.396 67.2426 167.37 66.718 166.837 66.3823C166.777 66.3525 166.708 66.3366 166.638 66.3366C166.567 66.3366 166.498 66.3525 166.438 66.3823C165.319 66.739 164.92 68.3128 164.467 69.257C161.805 67.3266 160.793 66.0676 159.861 66.4872C158.929 66.9069 159.435 67.7672 160.021 68.5856C158.529 67.7043 156.719 66.8859 155.893 67.6413C155.068 68.3967 156.293 69.278 157.571 70.0964C156.133 69.7187 154.668 69.5718 154.376 70.3482C154.083 71.1245 155.334 71.796 156.666 72.2996C155.467 72.2996 154.455 72.4465 154.695 73.2438C154.935 74.0412 156.905 74.5448 157.677 74.8176C159.32 75.3804 161.08 75.7004 162.87 75.7618C162.582 76.1029 162.427 76.5029 162.424 76.9126C162.421 77.3223 162.57 77.7237 162.853 78.0673C163.136 78.411 163.541 78.6817 164.017 78.8463C164.493 79.0108 165.02 79.0619 165.532 78.9932C165.295 80.3727 165.743 81.7712 166.784 82.8961C172.456 89.3799 186.728 95.4861 192 97.9621C196.962 99.8467 202.523 100.526 207.977 99.9135C212.191 99.7222 216.341 99.0143 220.278 97.8152C220.012 100.984 219.879 103.732 219.799 105.978C217.855 160.681 217.429 171.865 254.734 192.869C266.361 199.373 279.284 204.302 292.971 207.453L294.489 204.725C296.886 204.893 299.264 205.208 301.598 205.669C302.611 207.614 304.024 209.415 305.779 210.999C305.954 211.13 306.178 211.214 306.418 211.236C306.658 211.259 306.901 211.22 307.11 211.125C308.016 210.579 308.415 200.633 307.616 200.129C306.113 199.985 304.593 199.985 303.09 200.129C301.45 199.419 299.922 198.56 298.536 197.57L299.442 195.954C287.699 186.721 271.376 177.593 266.211 171.005C260.539 163.787 257.503 151.952 256.252 150.022C262.163 160.513 271.989 171.571 291.027 176.88C297.178 178.601 310.146 180.72 320.158 158.981C325.27 147.881 329.477 137.998 332.939 129.605L329.957 128.052C330.436 126.143 330.995 124.254 331.687 122.387C334.074 121.483 336.325 120.371 338.398 119.071C338.527 118.967 338.617 118.837 338.658 118.695C338.7 118.553 338.692 118.405 338.634 118.266C338.576 118.128 338.472 118.005 338.332 117.91C338.191 117.815 338.021 117.752 337.838 117.728C333.421 117.252 328.942 117.252 324.525 117.728C324.305 118.946 324.305 120.182 324.525 121.4C323.709 122.5 322.82 123.564 321.862 124.59L318.374 123.079C314.486 127.632 299.734 145.636 296.353 149.875C292.758 144.188 281.468 123.604 279.524 119.638C280.94 104.676 281.358 89.6667 280.776 74.6707C280.776 70.7888 282.001 70.9357 286.101 68.1659C287.539 74.8595 296.22 71.9639 300.72 66.3403C306.045 69.215 311.637 65.6899 311.211 60.9477C316.989 63.004 322.9 60.0244 324.445 54.7996ZM323.486 47.6443C324.045 47.7912 327.906 50.1623 327.88 51.5681C327.847 51.8756 327.736 52.1748 327.553 52.4479C327.371 52.721 327.121 52.9625 326.818 53.1581C326.515 53.3538 326.166 53.4995 325.79 53.5869C325.414 53.6742 325.02 53.7012 324.631 53.6665C322.642 52.736 320.977 51.431 319.785 49.8685C319.711 49.493 319.768 49.1086 319.95 48.7566C320.131 48.4045 320.431 48.0979 320.816 47.8696C321.202 47.6412 321.659 47.4996 322.138 47.4599C322.618 47.4203 323.102 47.484 323.539 47.6443H323.486ZM163.269 75.3841C160.931 75.1551 158.634 74.7114 156.426 74.0622C155.174 73.5796 155.467 72.971 155.867 72.8871C157.162 72.8545 158.456 72.9819 159.701 73.2648C160.1 73.2648 160.26 72.8661 159.887 72.7822C159.089 72.6353 155.813 72.0058 155.521 71.0616C155.068 69.6347 159.887 71.5442 160.26 71.7121C160.633 71.8799 160.899 71.4393 160.606 71.2714C159.754 70.8308 156.932 69.4669 157.145 68.5226C157.358 67.5784 158.583 68.6485 159.222 68.9633C161.592 70.2432 161.725 70.8098 162.151 70.4111C162.577 70.0124 161.405 69.8236 160.713 68.1239C160.5 67.4525 160.26 67.2216 161.245 67.6833C162.87 68.4597 164.521 70.8937 165.106 70.0334C165.692 69.1731 166.038 67.5993 166.651 67.9351C166.969 69.2484 167.05 70.5907 166.89 71.9219C166.001 72.2952 165.242 72.8357 164.68 73.4956C164.141 74.0916 163.669 74.7235 163.269 75.3841ZM163.509 77.6923C163.528 76.0506 164.337 74.4759 165.772 73.2858C166.075 72.8894 166.511 72.5669 167.033 72.3545C167.554 72.1421 168.14 72.0481 168.726 72.0829C169.311 72.1177 169.873 72.28 170.348 72.5517C170.823 72.8234 171.193 73.1938 171.417 73.6215C170.051 74.0642 168.831 74.7457 167.849 75.6144C166.866 76.4832 166.147 77.5166 165.745 78.6365C165.292 78.6998 164.825 78.6411 164.42 78.4698C164.014 78.2985 163.693 78.0247 163.509 77.6923ZM220.438 97.3116C205.154 100.732 196.473 99.4099 193.012 97.8991C190.349 96.766 187.686 95.4231 185.024 94.1222C179.535 91.4153 174.367 88.3253 169.58 84.8895C162.124 79.266 168.089 73.2858 177.009 73.034C188.379 72.6773 198.311 81.7001 204.914 80.504C207.843 79.9585 213.249 74.3979 215.565 72.7612C219.48 69.9914 227.761 64.8505 227.761 64.8505C223.887 75.4395 221.433 86.3193 220.438 97.3116ZM229.465 87.1557C228.74 87.2476 227.998 87.1383 227.364 86.8467C226.73 86.555 226.244 86.0991 225.99 85.5566C225.735 85.0141 225.727 84.4189 225.968 83.8724C226.208 83.326 226.682 82.8622 227.308 82.5604C227.926 82.2303 228.685 82.1068 229.419 82.2169C230.153 82.327 230.801 82.6618 231.222 83.1479C231.481 83.4955 231.641 83.8831 231.691 84.284C231.742 84.685 231.681 85.0898 231.514 85.4706C231.347 85.8514 231.078 86.1992 230.724 86.4901C230.37 86.781 229.941 87.0081 229.465 87.1557ZM298.243 198.367C299.646 199.476 301.275 200.391 303.063 201.074C303.451 201.751 303.542 202.511 303.32 203.233C303.098 203.955 302.577 204.598 301.838 205.061C299.611 204.587 297.341 204.251 295.048 204.053C296.087 202.144 297.152 200.234 298.243 198.346V198.367ZM326.176 121.149C326.982 120.837 327.906 120.767 328.773 120.953C329.64 121.138 330.392 121.566 330.889 122.156C330.889 122.156 329.451 125.933 329.025 127.737L322.767 125.009C323.789 123.655 324.927 122.358 326.176 121.128V121.149ZM307.03 4.83848C308.069 4.67062 308.388 5.48896 309.134 6.01354C309.294 6.13944 309.667 6.01354 309.64 5.86666C309.728 4.5489 310.242 3.27066 311.131 2.15263C311.451 1.67001 312.143 0.662816 312.702 1.22936C313.261 1.79591 312.303 3.97817 312.09 4.6916C312.09 5.02733 312.622 5.17421 312.729 4.83848C312.835 4.50275 314.965 0.494951 315.924 0.935599C316.883 1.37625 314.886 4.62865 314.539 5.23716C314.193 5.84568 315.072 5.78273 315.285 5.48896C315.871 4.75455 317.282 2.69819 318.533 2.76114C319.785 2.82409 318.533 3.91522 318.107 4.50275C317.681 5.09028 317.282 5.69879 316.856 6.28632C316.803 6.35867 316.789 6.44463 316.816 6.5253C316.844 6.60597 316.911 6.67474 317.002 6.71648C317.094 6.75822 317.203 6.76951 317.306 6.74786C317.408 6.72622 317.495 6.67342 317.548 6.60107C318.48 5.53093 321.622 4.25095 319.066 6.78992C317.815 8.02793 316.403 9.20299 315.125 10.3571C313.156 9.77652 311.096 9.40946 309.001 9.26594C307.164 6.34927 305.806 5.04831 307.03 4.83848ZM307.03 10.6299C307.883 9.58069 310.385 9.70659 313.607 10.441C313.949 10.5015 314.27 10.6189 314.549 10.7853C314.828 10.9518 315.059 11.1634 315.225 11.406C315.392 11.6485 315.49 11.9164 315.514 12.1915C315.538 12.4667 315.487 12.7427 315.365 13.001C312.581 12.6561 309.751 12.6067 306.951 12.8541C306.636 12.0942 306.703 11.2682 307.137 10.5459L307.03 10.6299ZM242.725 51.5052C242.737 51.4693 242.739 51.432 242.732 51.3953C242.725 51.3587 242.709 51.3236 242.684 51.2922C242.659 51.2608 242.626 51.2337 242.587 51.2126C242.549 51.1915 242.505 51.1768 242.459 51.1695C230.024 50.8757 230.104 35.8097 234.231 30.3751C238.752 29.5194 242.86 27.6457 246.054 24.9824C245.495 32.3475 250.341 37.3205 251.379 36.9848C251.794 36.7407 252.268 36.5663 252.772 36.4725C253.276 36.3786 253.799 36.3673 254.308 36.4392C256.146 36.691 257.983 40.1742 256.092 41.4123C255.398 41.8295 254.542 42.0445 253.669 42.0208C253.829 43.049 254.255 50.6659 254.282 50.8547C254.707 51.4899 255.377 52.0026 256.195 52.3192C257.013 52.6359 257.937 52.7402 258.835 52.6173C257.603 56.211 255.144 59.4697 251.725 62.0388C245.361 66.6341 238.997 64.6197 237.213 60.7378C239.891 58.0177 241.773 54.865 242.725 51.5052ZM256.039 107.488C255.693 108.076 248.929 113.238 245.601 114.014C242.273 114.791 234.604 109.629 234.284 109.146C233.965 108.664 233.725 95.2343 233.805 95.1503C233.885 95.0664 255.986 93.3877 256.332 93.8494C256.678 94.311 256.279 106.88 255.906 107.488H256.039ZM258.169 61.8289C256.779 66.9785 256.18 72.2411 256.385 77.5034C254.925 78.973 253.069 80.1684 250.95 81.0031C248.832 81.8378 246.504 82.2909 244.137 82.3296C240.036 82.2988 236.111 81.012 233.193 78.7414C231.941 72.9081 236.441 60.6119 236.521 60.5909C242.086 70.7468 255.799 63.4447 259.634 52.5753C260.06 52.4494 260.459 52.4704 260.885 52.3235C259.767 54.9674 258.728 59.227 258.036 61.8289H258.169ZM265.066 83.4417C264.558 83.6356 263.985 83.6974 263.43 83.6182C262.875 83.539 262.366 83.3229 261.977 83.001C261.651 82.6858 261.449 82.3028 261.394 81.8985C261.339 81.4942 261.435 81.0861 261.669 80.7238C261.903 80.3615 262.265 80.0606 262.712 79.8577C263.16 79.6548 263.672 79.5586 264.187 79.5808C268.128 80.0004 266.983 82.7283 265.039 83.4207L265.066 83.4417ZM282.56 69.8446C281.935 70.1961 281.406 70.6427 281.003 71.1581C280.601 71.6734 280.333 72.2471 280.217 72.8452C280.03 73.8943 280.217 77.8182 280.217 78.6575C276.169 82.0778 269.566 80.4621 266.69 75.8877C266.53 73.2438 267.116 54.9045 267.808 49.9315C274.399 47.3387 280.56 44.1181 286.155 40.3421C291.8 36.5232 290.362 31.9488 301.119 17.7432C303.169 15.0154 304.554 13.6514 308.788 13.5465C311.451 13.4206 315.258 13.0639 316.323 14.197C319.865 18.0579 314.433 30.5429 312.702 35.1802C304.261 56.9608 292.066 63.1299 282.427 69.8446H282.56Z" fill="#0D2152"/>
</svg>
