<svg width="345" height="303" viewBox="0 0 345 303" fill="none" xmlns="http://www.w3.org/2000/svg">
<path d="M37.9879 266.222C47.1237 277.116 52.5973 289.661 53.8949 302.679C53.8949 303.097 54.7963 303.117 54.7698 302.679C53.7758 289.492 48.1894 276.777 38.6241 265.93C38.359 265.616 37.7493 265.909 37.9879 266.222ZM115.376 262.524C106.494 271.09 108.032 283.04 115.588 291.773C115.985 292.212 116.913 291.773 116.542 291.334C109.729 282.539 107.289 271.487 115.853 262.817C116.118 262.629 115.641 262.253 115.376 262.524ZM226.831 200.516C233.262 214.598 236.676 229.425 236.932 244.39C236.932 244.49 236.982 244.585 237.071 244.656C237.161 244.726 237.282 244.766 237.409 244.766C237.535 244.766 237.657 244.726 237.746 244.656C237.836 244.585 237.886 244.49 237.886 244.39C237.782 229.35 234.253 214.448 227.467 200.391C227.334 200.078 226.698 200.203 226.831 200.516ZM279.218 228.157C263.576 243.7 262.383 264.07 262.86 283.061C262.86 283.161 262.91 283.256 263 283.327C263.089 283.397 263.211 283.437 263.337 283.437C263.464 283.437 263.585 283.397 263.675 283.327C263.764 283.256 263.815 283.161 263.815 283.061C264 264.258 264.398 244.035 279.722 228.554C280.013 228.261 279.51 227.843 279.218 228.157ZM237.144 36.0123C236.922 35.7668 236.624 35.5699 236.278 35.4403C235.932 35.3106 235.551 35.2525 235.169 35.2713C234.787 35.2901 234.417 35.3853 234.095 35.5478C233.772 35.7103 233.508 35.9349 233.326 36.2003C233.167 36.3884 233.565 36.6391 233.75 36.451C233.929 36.2734 234.153 36.127 234.407 36.0213C234.661 35.9156 234.941 35.8528 235.228 35.8371C235.515 35.8214 235.803 35.853 236.073 35.9299C236.344 36.0069 236.591 36.1274 236.799 36.2839C236.847 36.2991 236.9 36.3028 236.951 36.2946C237.002 36.2864 237.048 36.2666 237.085 36.2377C237.122 36.2088 237.147 36.172 237.157 36.1319C237.168 36.0919 237.163 36.0503 237.144 36.0123ZM242.261 36.7435C242.494 36.5996 242.772 36.5081 243.066 36.4786C243.361 36.4492 243.659 36.483 243.931 36.5764C244.461 36.7644 244.62 37.1196 244.912 37.5165C244.953 37.571 245.016 37.6134 245.091 37.6372C245.166 37.661 245.249 37.6649 245.326 37.6484C245.404 37.6318 245.473 37.5958 245.523 37.5456C245.572 37.4954 245.6 37.4339 245.601 37.3703C245.568 37.0501 245.418 36.7443 245.167 36.4906C244.917 36.2369 244.579 36.0462 244.193 35.942C243.807 35.8377 243.392 35.8244 242.997 35.9037C242.601 35.983 242.244 36.1515 241.969 36.3884C241.598 36.5555 241.995 36.9107 242.261 36.7435ZM240.219 42.071C239.715 41.9248 237.86 41.9457 237.568 41.7367C237.276 41.5278 238.443 38.7492 238.575 37.7672C238.575 37.5165 238.125 37.4956 238.045 37.7672C237.739 38.5295 237.483 39.3035 237.276 40.0863C236.826 41.6323 235.818 42.8231 239.928 42.5515C240.008 42.582 240.101 42.5859 240.186 42.5624C240.27 42.5389 240.34 42.4899 240.378 42.4262C240.417 42.3625 240.422 42.2892 240.392 42.2226C240.362 42.156 240.3 42.1015 240.219 42.071ZM243.268 46.8344C243.445 47.0869 243.697 47.3021 244.002 47.4617C244.307 47.6214 244.656 47.7208 245.02 47.7515C245.385 47.7823 245.753 47.7434 246.094 47.6383C246.435 47.5333 246.739 47.365 246.98 47.1478C247.358 46.5529 247.514 45.8855 247.43 45.2234C247.345 44.5612 247.024 43.9317 246.502 43.4081C246.317 43.1992 245.734 43.2201 245.813 43.5543C245.907 44.0165 245.83 44.4902 245.592 44.9191C245.354 45.3479 244.965 45.7139 244.471 45.9735C243.976 46.2332 243.398 46.3755 242.804 46.3837C242.21 46.3919 241.626 46.2655 241.121 46.0196C241.096 46.0073 241.069 45.9988 241.04 45.9948C241.012 45.9907 240.983 45.9911 240.954 45.996C240.926 46.0008 240.899 46.01 240.875 46.023C240.852 46.036 240.831 46.0526 240.816 46.0718C240.8 46.091 240.789 46.1125 240.784 46.135C240.779 46.1574 240.78 46.1805 240.786 46.2028C240.792 46.2251 240.803 46.2462 240.82 46.265C240.837 46.2837 240.858 46.2998 240.882 46.3121C241.577 46.6979 242.42 46.8824 243.268 46.8344ZM246.476 44.6198C247.563 47.1269 244.965 47.7536 243.984 46.709C244.596 46.5643 245.148 46.2949 245.586 45.9281C246.023 45.5613 246.33 45.11 246.476 44.6198ZM99.0708 119.831C98.4179 119.823 97.7721 119.94 97.1899 120.173C96.6076 120.406 96.1065 120.748 95.7304 121.168C95.4918 121.377 95.8894 121.712 96.128 121.482C96.9097 120.786 97.9819 120.334 99.1504 120.207C99.2136 120.199 99.2702 120.171 99.3074 120.13C99.3447 120.089 99.3598 120.038 99.3492 119.988C99.3387 119.938 99.3034 119.894 99.2512 119.864C99.199 119.835 99.1341 119.823 99.0708 119.831ZM108.35 118.494C109.649 117.638 110.471 118.661 110.789 118.891C110.843 118.931 110.914 118.953 110.988 118.953C111.062 118.953 111.133 118.931 111.187 118.891C111.425 118.682 110.948 117.826 109.941 117.659C109.578 117.598 109.203 117.613 108.85 117.7C108.496 117.788 108.178 117.947 107.926 118.16C107.869 118.204 107.838 118.264 107.838 118.327C107.838 118.39 107.869 118.45 107.926 118.494C107.982 118.539 108.058 118.563 108.138 118.563C108.217 118.563 108.294 118.539 108.35 118.494ZM106.149 122.317C105.771 122.359 105.388 122.359 105.009 122.317C104.744 122.317 104.453 122.568 104.718 122.735C105.026 122.923 105.39 123.045 105.776 123.089C106.162 123.133 106.555 123.098 106.918 122.986C107.021 122.954 107.106 122.894 107.159 122.818C107.212 122.742 107.23 122.654 107.21 122.568C106.4 121.425 105.515 120.316 104.559 119.246C104.524 119.202 104.468 119.17 104.403 119.159C104.338 119.147 104.27 119.156 104.214 119.184C104.158 119.211 104.118 119.256 104.103 119.306C104.088 119.357 104.099 119.411 104.135 119.455C104.733 120.44 105.406 121.396 106.149 122.317ZM103.737 127.457C104.718 127.603 105.672 126.809 105.434 126.203C106.189 126.138 106.905 125.906 107.502 125.535C107.561 125.504 107.603 125.456 107.618 125.402C107.633 125.347 107.62 125.289 107.581 125.242C107.542 125.195 107.482 125.162 107.412 125.15C107.342 125.139 107.27 125.149 107.21 125.18C106.459 125.554 105.58 125.736 104.693 125.702C103.806 125.669 102.954 125.421 102.252 124.992C102.21 124.933 102.14 124.891 102.058 124.873C101.976 124.856 101.889 124.864 101.815 124.898C101.741 124.931 101.687 124.986 101.665 125.05C101.642 125.115 101.653 125.184 101.696 125.242C101.961 126.12 102.385 127.248 103.737 127.457ZM104.93 126.224C104.506 127.269 103.207 127.123 102.623 125.765C103.32 126.071 104.106 126.23 104.903 126.224H104.93Z" fill="#0D2152"/>
<path d="M171.554 111.579C171.45 111.405 171.266 111.27 171.039 111.2C170.812 111.13 170.56 111.131 170.334 111.203C170.334 111.056 171.793 109.114 170.971 108.675C170.834 108.612 170.678 108.58 170.52 108.58C170.362 108.58 170.206 108.612 170.069 108.675C170.44 107.985 170.626 107.275 170.069 106.941C169.86 106.829 169.608 106.779 169.356 106.798C169.105 106.817 168.869 106.904 168.691 107.045C168.85 106.606 168.903 105.416 168.346 105.395C166.967 105.395 166.146 106.878 165.536 107.651C164.926 108.424 164.528 109.74 163.76 109.26C162.991 108.779 160.87 107.672 159.942 107.964C158.166 108.508 160.339 113.877 160.313 113.919C159.146 114.399 158.775 116.008 158.696 116.906C154.348 116.509 152.121 120.479 144.83 128.689C137.539 136.9 124.31 139.303 112.433 137.965C112.488 137.744 112.48 137.516 112.409 137.297C112.338 137.078 112.207 136.875 112.024 136.701C111.842 136.527 111.613 136.387 111.353 136.291C111.094 136.196 110.81 136.147 110.524 136.148C110.11 134.573 109.879 132.972 109.835 131.364C109.835 130.549 109.835 130.653 111.293 130.047C111.984 129.812 112.61 129.471 113.133 129.045C113.656 128.618 114.067 128.114 114.342 127.561C115.637 123.776 115.554 119.779 114.103 116.029C114.533 114.932 114.834 113.806 115.004 112.665C115.614 112.895 115.614 112.435 115.694 112.268C116.196 110.308 115.711 108.27 114.342 106.586C113.382 105.69 112.063 105.078 110.604 104.852C108.985 102.29 106.168 100.323 102.747 99.3642C99.325 98.4056 95.5648 98.5303 92.2574 99.7121C86.0802 102.177 79.7439 107.86 83.323 113.438C82.0504 114.901 80.8574 116.676 81.5202 117.993C81.842 118.733 82.4975 119.355 83.3625 119.74C84.2274 120.125 85.2417 120.247 86.2128 120.082C85.7122 120.734 85.4476 121.482 85.4476 122.244C85.4476 123.007 85.7122 123.754 86.2128 124.407C88.2277 126.621 90.1895 125.869 90.1895 125.869C90.4546 129.045 94.1133 130.695 97.9575 130.988C97.9575 130.988 96.844 134.497 96.3668 135.5C95.5979 134.957 93.9807 135.5 93.7156 136.503C86.659 136.195 79.8572 134.319 74.0969 131.092C65.295 126.37 66.6206 120.082 59.1708 104.538C58.9424 103.869 58.5454 103.243 58.0034 102.697C57.4613 102.152 56.7854 101.698 56.0159 101.363C56.0159 100.276 53.6034 99.6703 53.3648 99.6285C54.7169 98.5213 58.3224 96.0769 56.6787 95.3039C55.6713 94.8443 54.0276 96.3485 54.0276 95.4292C54.0276 93.925 53.4443 91.8149 52.8345 91.8776C52.2248 91.9403 51.9331 92.379 51.721 92.7759C51.2173 90.8539 49.7592 91.3971 49.494 93.0475C49.1759 92.2954 48.6987 91.6687 47.9829 91.7731C47.2671 91.8776 46.9754 93.0684 47.0815 94.1339C46.7899 93.7997 46.2066 93.2356 45.6499 93.5907C45.0931 93.9459 45.4908 95.1785 45.6499 95.868C45.8821 97.3288 46.448 98.7444 47.3201 100.046C46.6924 100.487 46.2171 101.046 45.9389 101.671C45.6606 102.296 45.5885 102.966 45.7294 103.619C43.0782 107.296 43.5024 116.154 43.3964 120.542C42.9457 136.608 49.6001 152.799 68.4764 159.066C66.8265 164.018 64.8532 168.9 62.5643 173.691C61.8402 175.16 61.611 176.752 61.899 178.312C62.1871 179.871 62.9825 181.345 64.208 182.591C61.3978 183.844 61.8485 185.349 63.3332 186.769C56.4028 193.909 52.4482 202.565 52.0127 211.547C52.4504 217.117 52.3352 222.705 51.668 228.261C51.668 228.554 51.0317 228.554 51.0582 228.261C51.4956 223.664 51.4956 219.048 51.0582 214.451C41.1734 208.893 31.8649 202.725 23.2209 196.004C22.1925 196.376 21.1922 196.794 20.2251 197.257C19.0056 196.442 17.8126 195.628 16.646 194.771C16.8051 193.956 12.5367 191.052 12.033 190.948C11.6038 190.914 11.1702 190.95 10.7596 191.054C10.349 191.158 9.97015 191.328 9.64694 191.554C6.33264 193.503 3.35581 195.786 0.792036 198.344C0.579943 198.803 1.18971 199.326 1.79948 199.409C4.86767 199.259 7.92189 198.966 10.946 198.532C11.6353 199.618 12.2451 200.767 12.9344 201.874C12.1656 202.543 11.5028 203.17 10.9725 203.734C18.3693 219.967 41.3019 245.267 53.5769 246.688C56.8398 247.168 60.206 246.959 63.3332 246.082C74.1499 242.906 86.0007 221.011 86.0007 221.011C88.9103 216.977 91.4615 212.789 93.6361 208.476C93.6655 208.42 93.7196 208.375 93.7884 208.348C93.8571 208.321 93.9359 208.315 94.0102 208.33C94.0844 208.345 94.1492 208.381 94.1925 208.431C94.2358 208.481 94.2547 208.542 94.2458 208.602C92.5756 213.302 88.9435 217.314 86.2923 221.722C87.0579 223.49 88.0529 225.191 89.2616 226.799C92.4475 230.67 96.3836 234.124 100.927 237.036C101.324 237.245 100.927 237.746 100.556 237.537C98.2668 236.328 96.1511 234.927 94.2458 233.359C84.3835 242.092 74.9718 250.985 66.0108 260.038C66.7532 260.79 67.5485 261.584 68.3969 262.378C67.575 263.172 66.6736 263.924 65.9313 264.739C64.3687 265.945 62.9571 267.267 61.716 268.687C61.5039 270.191 71.0746 276.543 71.6578 276.647C71.9482 276.71 72.2558 276.701 72.5398 276.623C72.8239 276.544 73.0711 276.4 73.2485 276.208C74.0174 275.038 71.7904 271.654 71.4457 269.314C72.3206 268.645 73.169 267.956 74.0969 267.225L76.1648 268.854C80.4862 266.932 123.276 247.649 127.359 241.695C133.324 232.941 122.878 201.812 122.878 201.812C122.878 201.812 127.518 201.686 125.53 197.926C128.525 196.61 129.215 189.861 129.48 186.31C130.01 179.018 130.01 171.685 129.798 164.394C145.337 156.048 157.342 144.222 164.263 130.444C165.88 127.06 168.373 123.341 165.774 120.333C167.259 119.56 168.903 118.243 168.426 117.094C168.182 116.575 167.771 116.114 167.233 115.757C168.797 115.068 172.323 112.853 171.554 111.579ZM13.9684 201.101C13.2525 200.036 12.4837 199.012 11.6353 197.968V197.821C11.6229 197.403 11.7288 196.988 11.9453 196.605C12.1618 196.223 12.4835 195.884 12.887 195.612C13.2906 195.34 13.7659 195.142 14.2785 195.033C14.7911 194.924 15.3281 194.905 15.8507 194.98C16.9573 195.932 18.1253 196.839 19.3502 197.696C17.4024 198.671 15.5974 199.813 13.9684 201.101ZM71.0481 268.604C69.9895 268.614 68.9638 268.314 68.1701 267.762C67.3764 267.21 66.8714 266.445 66.7532 265.616C67.4955 264.718 68.3704 263.903 69.1922 263.046C69.8816 263.673 72.8243 266.243 73.5667 266.828C71.1011 268.416 71.0481 268.813 71.0481 268.604ZM92.7346 100.214C99.4686 97.5811 106.123 99.9628 109.914 104.684C105.403 104.049 100.761 104.336 96.4301 105.517C92.0997 106.699 88.2259 108.735 85.1788 111.433C84.7811 111.83 84.2244 112.352 83.6676 112.958C80.6983 107.735 86.9551 102.491 92.7346 100.214ZM86.0802 118.828C84.6221 119.685 80.7779 118.076 83.429 114.65C85.3232 112.205 87.8561 110.106 90.8593 108.492C93.8625 106.878 97.2673 105.787 100.847 105.29C104.585 104.705 110.657 104.267 113.493 106.732C114.335 107.467 114.916 108.364 115.177 109.332C115.438 110.301 115.369 111.306 114.978 112.247C108.164 110.158 99.8133 109.678 93.583 112.749C90.8166 114.561 88.3017 116.599 86.0802 118.828ZM98.4347 130.925C98.4347 130.925 98.4347 130.674 98.2491 130.653C96.4235 130.579 94.6815 130.027 93.2986 129.085C91.9158 128.143 90.971 126.864 90.6137 125.451C89.7089 125.266 88.8227 125.029 87.9625 124.741C87.4921 124.485 87.0964 124.154 86.8021 123.768C86.5079 123.382 86.3218 122.951 86.2566 122.503C86.1913 122.056 86.2482 121.603 86.4236 121.175C86.5989 120.746 86.8886 120.352 87.2732 120.019C87.5649 121.315 88.5458 122.108 89.7123 122.108C90.8788 122.108 90.8523 120.249 90.8523 119.873C92.8938 119.22 94.6513 118.114 95.9122 116.691C97.1732 115.267 97.8836 113.586 97.9575 111.85C99.6822 113.099 101.752 114.014 104.002 114.525C107.034 115.425 110.211 115.987 113.44 116.196C114.819 121.126 116.091 128.898 109.596 130.173C109.523 130.183 109.458 130.215 109.414 130.261C109.37 130.308 109.35 130.366 109.358 130.423C109.236 132.395 109.396 134.371 109.835 136.315C109.198 136.315 107.184 138.07 105.248 138.404C103.709 138.596 102.132 138.469 100.673 138.037C99.2141 137.605 97.9222 136.882 96.9235 135.939C97.5807 134.299 98.0857 132.623 98.4347 130.925ZM96.4463 136.273C99.7868 138.676 104.4 139.992 108.085 138.007C109.013 137.464 110.259 136.545 110.736 136.691C111.213 136.837 112.035 137.443 111.638 138.613C110.232 142.562 103.684 142.395 99.4951 141.371C98.4727 141.209 97.5129 140.86 96.6932 140.352C95.8735 139.844 95.2168 139.191 94.7761 138.446C94.4844 137.548 94.723 134.957 96.5258 136.273H96.4463ZM46.074 95.2621C45.7294 93.4027 46.5247 93.9877 47.2406 95.9933C47.2611 96.0501 47.3046 96.1 47.3644 96.1355C47.4242 96.1711 47.497 96.1903 47.5719 96.1903C47.6468 96.1903 47.7197 96.1711 47.7795 96.1355C47.8393 96.1 47.8828 96.0501 47.9033 95.9933C47.9033 95.3457 47.3466 93.1938 48.0624 92.9222C48.7782 92.6506 49.2289 95.0114 49.441 95.5546C49.4705 95.6104 49.5246 95.656 49.5933 95.6829C49.6621 95.7098 49.7408 95.7162 49.8151 95.701C49.8894 95.6857 49.9542 95.6498 49.9975 95.5999C50.0408 95.5499 50.0597 95.4893 50.0508 95.4292C50.0508 95.1994 49.8122 91.9403 50.8196 92.9849C51.1326 93.69 51.2939 94.4315 51.2968 95.1785C51.2968 95.5755 51.9861 95.4919 51.9861 95.1785C51.9861 94.3846 52.1717 91.8776 53.1527 93.3191C53.35 94.2366 53.4211 95.1683 53.3648 96.0978C53.3648 97.1006 56.6257 94.8443 56.0159 96.5156C55.8834 96.9544 54.3192 97.8318 53.9745 98.1452L52.4634 99.4823C50.8862 99.1106 49.1918 99.1996 47.6913 99.733C46.8158 98.3299 46.2595 96.8167 46.0475 95.2621H46.074ZM50.2364 99.9837C51.4559 99.9837 54.5048 100.13 55.1941 101.154C53.6265 100.875 51.9973 100.892 50.4398 101.204C48.8823 101.516 47.4408 102.115 46.2331 102.95C46.2361 102.547 46.3426 102.149 46.5462 101.779C46.7498 101.409 47.0463 101.075 47.4179 100.798C47.7894 100.521 48.2284 100.306 48.7082 100.166C49.188 100.026 49.6988 99.964 50.2099 99.9837H50.2364ZM118.292 201.603C109.039 201.143 93.1323 197.8 76.536 192.494C67.575 189.652 59.7541 185.182 64.5792 183.009C68.1064 185.852 72.3514 188.079 77.0397 189.548C82.5037 191.518 88.1277 193.2 93.8747 194.583C100.609 196.213 119.538 200.704 125.026 198.511C126.882 201.895 119.989 201.686 118.265 201.603H118.292ZM165.218 127.123C159.571 140.264 150.822 151.316 129.931 164.081C129.771 159.192 129.533 154.387 129.241 149.456C129.241 149.101 128.525 149.08 128.552 149.456C128.923 158.44 129.347 167.423 129.215 176.407C129.215 180.815 130.063 195.878 123.912 197.821C117.231 199.91 83.5616 192.703 70.5178 186.143C61.6894 181.693 61.1327 177.932 63.2536 173.315C65.4539 168.692 67.3303 163.977 68.8741 159.192C72.1023 160.172 75.5172 160.716 78.9751 160.801C79.0407 160.785 79.0983 160.753 79.1393 160.71C79.1802 160.667 79.2023 160.614 79.2023 160.56C79.2023 160.506 79.1802 160.454 79.1393 160.41C79.0983 160.367 79.0407 160.335 78.9751 160.32C75.4833 160.017 72.0322 159.472 68.662 158.69C51.3764 153.384 43.9796 136.19 44.0326 122.067C44.0326 117.742 44.2978 113.376 44.7219 109.072C44.9606 106.502 45.4378 103.431 48.7782 102.219C49.6003 101.864 50.5071 101.648 51.441 101.584C52.3749 101.519 53.3155 101.609 54.203 101.847C55.0906 102.085 55.9057 102.465 56.5966 102.964C57.2876 103.464 57.8392 104.071 58.2164 104.747C64.1285 116.447 64.4467 122.777 67.6015 126.642C74.8923 135.542 88.3337 136.837 93.6891 136.858C93.1323 140.034 97.9309 141.726 101.086 142.186C105.513 142.812 111.531 142.457 112.327 138.425C121.281 139.661 130.5 138.24 138.202 134.435C141.848 132.445 144.904 129.858 147.163 126.851C148.674 125.033 155.408 116.676 159.306 117.617C160.737 117.99 162.068 118.571 163.229 119.33C166.676 121.461 166.464 124.135 165.191 127.123H165.218ZM167.551 117.053C168.24 118.39 166.702 119.748 165.668 120.207C164.064 118.576 161.8 117.426 159.253 116.948C159.253 115.59 159.968 114.42 161.904 114.42C163.036 114.484 164.134 114.755 165.109 115.212C166.085 115.669 166.912 116.299 167.524 117.053H167.551ZM167.047 115.653C165.39 114.432 163.217 113.739 160.949 113.71C160.949 112.498 160.074 110.931 160.048 109.74C160.048 106.962 164.184 110.66 164.767 109.928C165.222 108.893 165.894 107.926 166.755 107.066C167.073 106.795 167.71 106.168 167.975 107.066C167.671 107.907 167.254 108.719 166.729 109.49C166.694 109.539 166.685 109.598 166.705 109.653C166.725 109.708 166.772 109.754 166.835 109.782C166.898 109.81 166.973 109.817 167.042 109.801C167.112 109.785 167.171 109.748 167.206 109.699C167.206 109.699 168.346 107.964 168.532 107.609C169.3 106.753 169.937 107.317 169.38 108.403C169.05 109.119 168.66 109.817 168.214 110.492C168.178 110.542 168.17 110.601 168.19 110.656C168.21 110.711 168.256 110.757 168.32 110.785C168.383 110.813 168.457 110.819 168.527 110.804C168.597 110.788 168.656 110.751 168.691 110.701C168.876 110.472 170.387 108.612 170.759 109.197C171.13 109.782 169.327 111.767 169.035 112.164C168.744 112.561 169.035 112.456 169.3 112.31C169.566 112.164 170.759 110.994 170.944 112.08C171.13 113.167 167.498 115.298 167.02 115.653H167.047ZM323.784 54.7942C324.883 54.6523 325.887 54.2185 326.63 53.5648C327.372 52.9111 327.809 52.0769 327.867 51.2007C344.994 55.0658 349.792 35.9495 336.987 27.2793C337.358 29.8908 337.305 33.2962 334.601 35.2601C331.473 37.5582 327.072 36.1375 324.235 38.4357C322.803 39.5638 321.584 41.7993 322.777 46.6671C322.188 46.636 321.597 46.6967 321.039 46.8459C320.48 46.9951 319.964 47.2297 319.521 47.5364C319.077 47.8431 318.715 48.2158 318.455 48.6331C318.195 49.0504 318.042 49.5041 318.005 49.9681C317.055 49.7138 316.049 49.6184 315.05 49.6879C314.051 49.7574 313.082 49.9902 312.204 50.3717C311.325 50.7531 310.558 51.2746 309.95 51.903C309.342 52.5314 308.907 53.2528 308.673 54.0211C307.572 53.6511 306.372 53.4995 305.18 53.5796C303.987 53.6598 302.838 53.9692 301.832 54.4808C307.125 47.7926 311.094 40.5083 313.604 32.8784C315.3 28.1568 317.66 23.1009 317.554 18.1286C317.554 16.4154 317.289 14.4098 315.566 13.4905C315.799 13.3253 315.979 13.1183 316.09 12.8871C316.201 12.6558 316.239 12.4069 316.203 12.1613C316.167 11.9157 316.056 11.6806 315.881 11.4757C315.705 11.2707 315.47 11.1019 315.194 10.9835C316.493 9.95976 321.584 6.26187 320.497 5.02923C319.993 4.50693 319.171 4.69496 318.349 5.02923C319.251 3.71303 319.993 2.16702 318.747 1.77007C317.925 1.51937 316.891 2.2297 316.096 3.12805C316.6 1.83275 316.865 0.516545 315.857 0.26584C314.85 0.0151353 313.789 1.22688 312.967 2.50129C313.148 1.79975 313.056 1.07152 312.702 0.412085C312.664 0.358903 312.603 0.317576 312.531 0.294819C312.459 0.272062 312.379 0.269212 312.305 0.286733C309.468 0.683682 308.938 5.656 308.673 5.71867C308.407 5.78135 307.93 4.77853 307.082 4.46515C303.529 3.12806 307.267 8.49732 308.036 9.54192C306.419 9.75084 305.253 10.7746 305.995 13.0936C303.56 13.7001 301.518 15.0252 300.295 16.7915C290.91 28.8671 290.353 34.2364 287.516 37.6835C285.448 40.2742 280.915 42.5514 276.911 44.6824C277.627 41.9664 274.075 40.504 270.496 41.1934C271.89 37.1189 271.644 32.8038 269.792 28.8442C267.94 24.8846 264.573 21.4761 260.156 19.0896C255.994 16.7497 251.937 15.8513 248.173 18.5464C236.243 11.4013 221.343 26.4018 231.709 33.7558C230.628 36.2659 230.305 38.94 230.765 41.5658C231.226 44.1915 232.457 46.6964 234.36 48.8817C236.221 50.5451 238.801 51.6027 241.598 51.8484C240.555 54.8623 238.908 57.7257 236.72 60.3306C236.534 59.3695 232.929 60.3306 232.451 60.3306C230.171 60.5813 228.766 62.5242 228.05 63.8822C214.238 71.9048 212.727 74.5372 206.39 78.8827C201.83 81.9956 193.665 76.4383 189.29 74.7043C185.567 73.0808 181.377 72.239 177.121 72.2599C175.288 72.2181 173.469 72.5263 171.819 73.1583C171.499 72.5145 170.9 71.9809 170.129 71.6519C169.357 71.323 168.462 71.2202 167.604 71.3616C167.418 67.1832 167.392 66.6609 166.861 66.3266C166.802 66.2969 166.733 66.2811 166.663 66.2811C166.592 66.2811 166.523 66.2969 166.464 66.3266C165.35 66.6817 164.953 68.2486 164.502 69.1888C161.851 67.2667 160.843 66.0132 159.915 66.431C158.987 66.8489 159.491 67.7055 160.074 68.5202C158.59 67.6428 156.787 66.828 155.965 67.5801C155.143 68.3322 156.363 69.2097 157.635 70.0245C156.204 69.6484 154.746 69.5022 154.454 70.2752C154.162 71.0482 155.408 71.7167 156.734 72.2181C155.541 72.2181 154.533 72.3644 154.772 73.1583C155.011 73.9522 156.973 74.4536 157.741 74.7252C159.377 75.2855 161.129 75.6042 162.911 75.6653C162.624 76.0049 162.47 76.4032 162.467 76.8111C162.464 77.219 162.613 77.6187 162.895 77.9608C163.176 78.303 163.579 78.5726 164.053 78.7364C164.527 78.9002 165.052 78.9511 165.562 78.8827C165.326 80.2562 165.772 81.6486 166.808 82.7686C172.455 89.2243 186.666 95.3039 191.915 97.7691C196.855 99.6456 202.392 100.322 207.822 99.7121C212.018 99.5216 216.15 98.8167 220.07 97.6229C219.805 100.778 219.673 103.514 219.593 105.75C217.658 160.216 217.234 171.351 254.377 192.264C265.953 198.74 278.82 203.647 292.447 206.784L293.958 204.068C296.346 204.235 298.712 204.55 301.037 205.008C302.046 206.945 303.452 208.738 305.199 210.315C305.374 210.446 305.597 210.529 305.836 210.551C306.075 210.574 306.317 210.535 306.525 210.44C307.426 209.897 307.824 199.994 307.029 199.493C305.532 199.348 304.019 199.348 302.522 199.493C300.89 198.785 299.368 197.93 297.988 196.944L298.89 195.335C287.198 186.143 270.946 177.055 265.803 170.494C260.156 163.308 257.134 151.524 255.888 149.602C261.773 160.048 271.556 171.059 290.512 176.344C296.636 178.057 309.547 180.167 319.516 158.523C324.606 147.471 328.795 137.631 332.241 129.274L329.272 127.728C329.749 125.827 330.306 123.947 330.995 122.088C333.372 121.188 335.613 120.08 337.676 118.787C337.805 118.683 337.895 118.553 337.936 118.412C337.978 118.27 337.969 118.123 337.912 117.985C337.854 117.847 337.75 117.725 337.611 117.63C337.471 117.536 337.301 117.473 337.12 117.449C332.721 116.975 328.262 116.975 323.864 117.449C323.645 118.662 323.645 119.893 323.864 121.106C323.052 122.2 322.167 123.26 321.213 124.281L317.74 122.777C313.869 127.311 299.181 145.236 295.814 149.456C292.235 143.794 280.994 123.299 279.059 119.351C280.468 104.454 280.884 89.5098 280.305 74.5789C280.305 70.7139 281.525 70.8602 285.607 68.1024C287.039 74.767 295.682 71.8839 300.162 66.2848C305.465 69.147 311.032 65.6371 310.608 60.9155C316.361 62.963 322.247 59.9963 323.784 54.7942ZM322.83 47.67C323.387 47.8162 327.231 50.177 327.204 51.5768C327.171 51.8829 327.061 52.1808 326.879 52.4527C326.698 52.7246 326.449 52.9651 326.147 53.1598C325.846 53.3546 325.497 53.4998 325.124 53.5867C324.75 53.6736 324.357 53.7006 323.97 53.666C321.989 52.7395 320.331 51.4402 319.145 49.8845C319.071 49.5106 319.128 49.1279 319.308 48.7774C319.489 48.4269 319.788 48.1216 320.171 47.8942C320.555 47.6669 321.01 47.5259 321.488 47.4864C321.965 47.4469 322.447 47.5103 322.883 47.67H322.83ZM163.309 75.2893C160.98 75.0612 158.694 74.6195 156.495 73.9731C155.249 73.4926 155.541 72.8867 155.939 72.8031C157.228 72.7706 158.516 72.8975 159.756 73.1792C160.154 73.1792 160.313 72.7822 159.942 72.6987C159.146 72.5524 155.886 71.9257 155.594 70.9855C155.143 69.5648 159.942 71.466 160.313 71.6332C160.684 71.8003 160.949 71.3616 160.658 71.1944C159.809 70.7557 156.999 69.3977 157.211 68.4576C157.423 67.5174 158.643 68.5829 159.279 68.8963C161.639 70.1707 161.771 70.7348 162.195 70.3379C162.62 69.9409 161.453 69.7529 160.764 68.0606C160.552 67.3921 160.313 67.1623 161.294 67.6219C162.911 68.3949 164.555 70.8184 165.138 69.9618C165.721 69.1052 166.066 67.5383 166.676 67.8726C166.993 69.1802 167.073 70.5167 166.914 71.8421C166.028 72.2137 165.273 72.7519 164.714 73.409C164.177 74.0024 163.707 74.6315 163.309 75.2893ZM163.547 77.5874C163.567 75.9529 164.372 74.385 165.801 73.2001C166.102 72.8053 166.537 72.4843 167.056 72.2729C167.575 72.0614 168.159 71.9677 168.742 72.0024C169.325 72.0371 169.884 72.1987 170.357 72.4692C170.83 72.7397 171.199 73.1084 171.421 73.5343C170.062 73.9751 168.847 74.6536 167.868 75.5186C166.89 76.3836 166.174 77.4125 165.774 78.5275C165.323 78.5906 164.858 78.5321 164.454 78.3616C164.05 78.191 163.731 77.9184 163.547 77.5874ZM220.229 97.1215C205.012 100.527 196.369 99.2107 192.922 97.7065C190.271 96.5783 187.62 95.2412 184.969 93.9459C179.504 91.2508 174.358 88.1742 169.592 84.7534C162.169 79.1543 168.107 73.2001 176.989 72.9494C188.309 72.5942 198.198 81.5778 204.773 80.3869C207.689 79.8438 213.071 74.3074 215.378 72.6778C219.275 69.92 227.52 64.8015 227.52 64.8015C223.663 75.3444 221.22 86.177 220.229 97.1215ZM229.217 87.0097C228.495 87.1012 227.756 86.9924 227.125 86.702C226.494 86.4117 226.01 85.9576 225.757 85.4176C225.503 84.8775 225.496 84.2848 225.735 83.7407C225.974 83.1966 226.446 82.7349 227.069 82.4344C227.685 82.1057 228.441 81.9827 229.171 82.0924C229.902 82.202 230.547 82.5353 230.967 83.0193C231.224 83.3654 231.383 83.7513 231.434 84.1505C231.484 84.5497 231.424 84.9528 231.257 85.3319C231.091 85.7111 230.823 86.0574 230.47 86.347C230.118 86.6366 229.691 86.8627 229.217 87.0097ZM297.697 197.738C299.093 198.842 300.715 199.753 302.495 200.433C302.882 201.107 302.972 201.864 302.751 202.583C302.53 203.302 302.011 203.942 301.276 204.402C299.058 203.931 296.798 203.596 294.515 203.399C295.549 201.498 296.61 199.597 297.697 197.717V197.738ZM325.507 120.855C326.311 120.545 327.23 120.475 328.093 120.66C328.957 120.844 329.706 121.27 330.2 121.858C330.2 121.858 328.768 125.618 328.344 127.415L322.114 124.699C323.131 123.351 324.265 122.059 325.507 120.834V120.855ZM306.446 5.05013C307.479 4.88299 307.798 5.69778 308.54 6.22008C308.699 6.34543 309.07 6.22008 309.044 6.07384C309.132 4.76181 309.643 3.48911 310.528 2.37594C310.846 1.89542 311.536 0.892603 312.093 1.45669C312.649 2.02077 311.695 4.19355 311.483 4.90388C311.483 5.23815 312.013 5.3844 312.119 5.05013C312.225 4.71585 314.346 0.725466 315.3 1.1642C316.255 1.60293 314.266 4.8412 313.922 5.44707C313.577 6.05295 314.452 5.99027 314.664 5.69778C315.247 4.96656 316.653 2.91913 317.899 2.98181C319.145 3.04449 317.899 4.13087 317.474 4.71585C317.05 5.30083 316.653 5.9067 316.228 6.49168C316.176 6.56371 316.161 6.6493 316.189 6.72962C316.216 6.80994 316.283 6.87841 316.374 6.91997C316.466 6.96152 316.574 6.97276 316.676 6.95121C316.778 6.92966 316.865 6.87709 316.918 6.80506C317.846 5.73956 320.974 4.46515 318.429 6.99309C317.183 8.22572 315.778 9.39568 314.505 10.5447C312.544 9.96671 310.493 9.60125 308.407 9.45835C306.578 6.55436 305.226 5.25905 306.446 5.05013ZM306.446 10.8163C307.294 9.77173 309.786 9.89709 312.994 10.6283C313.334 10.6885 313.654 10.8054 313.931 10.9711C314.209 11.1369 314.439 11.3476 314.605 11.5891C314.77 11.8306 314.869 12.0973 314.893 12.3712C314.917 12.6452 314.866 12.92 314.744 13.1771C311.972 12.8338 309.154 12.7846 306.366 13.0309C306.053 12.2743 306.119 11.452 306.552 10.7328L306.446 10.8163ZM242.42 51.5141C242.431 51.4784 242.434 51.4412 242.427 51.4047C242.42 51.3683 242.403 51.3333 242.378 51.3021C242.354 51.2708 242.321 51.2438 242.282 51.2228C242.244 51.2018 242.201 51.1872 242.155 51.1798C229.774 50.8873 229.853 35.8868 233.963 30.4758C238.464 29.6238 242.554 27.7583 245.734 25.1065C245.177 32.4396 250.002 37.3911 251.036 37.0568C251.449 36.8137 251.921 36.6401 252.423 36.5467C252.924 36.4532 253.445 36.442 253.952 36.5136C255.782 36.7643 257.611 40.2324 255.729 41.465C255.037 41.8804 254.185 42.0945 253.316 42.0709C253.475 43.0946 253.899 50.6784 253.926 50.8664C254.349 51.4989 255.016 52.0093 255.831 52.3246C256.645 52.6399 257.565 52.7438 258.459 52.6214C257.233 56.1995 254.784 59.444 251.381 62.0019C245.044 66.5773 238.708 64.5716 236.932 60.7066C239.598 57.9983 241.472 54.8593 242.42 51.5141ZM255.676 107.254C255.331 107.839 248.597 112.979 245.283 113.752C241.969 114.525 234.334 109.385 234.016 108.905C233.697 108.424 233.459 95.0532 233.538 94.9696C233.618 94.886 255.623 93.2147 255.967 93.6743C256.312 94.1339 255.914 106.648 255.543 107.254H255.676ZM257.797 61.793C256.413 66.9202 255.816 72.16 256.02 77.3994C254.567 78.8626 252.718 80.0528 250.609 80.8839C248.5 81.7149 246.183 82.166 243.825 82.2046C239.742 82.174 235.834 80.8927 232.929 78.632C231.683 72.824 236.163 60.5813 236.243 60.5604C241.783 70.6721 255.437 63.4017 259.255 52.5796C259.679 52.4542 260.077 52.4751 260.501 52.3289C259.387 54.9613 258.353 59.2024 257.664 61.793H257.797ZM264.663 83.3118C264.158 83.5049 263.587 83.5664 263.035 83.4875C262.482 83.4087 261.975 83.1935 261.588 82.8731C261.263 82.5592 261.062 82.1778 261.007 81.7753C260.953 81.3728 261.048 80.9665 261.281 80.6058C261.514 80.245 261.875 79.9455 262.32 79.7434C262.765 79.5414 263.275 79.4456 263.788 79.4677C267.712 79.8855 266.572 82.6015 264.637 83.2909L264.663 83.3118ZM282.081 69.7738C281.459 70.1238 280.932 70.5685 280.531 71.0816C280.131 71.5947 279.864 72.1658 279.748 72.7613C279.563 73.8059 279.748 77.7128 279.748 78.5484C275.718 81.9538 269.144 80.3452 266.28 75.7907C266.121 73.1583 266.704 54.8986 267.394 49.9472C273.956 47.3657 280.09 44.1591 285.66 40.3995C291.281 36.5972 289.849 32.0427 300.56 17.8988C302.601 15.1828 303.98 13.8248 308.195 13.7203C310.846 13.595 314.638 13.2398 315.698 14.368C319.224 18.2121 313.816 30.6429 312.093 35.2601C303.688 56.946 291.546 63.0883 281.949 69.7738H282.081Z" fill="#0D2152"/>
</svg>
