<svg width="346" height="345" viewBox="0 0 346 345" fill="none" xmlns="http://www.w3.org/2000/svg">
<path d="M235.186 52.5956C235.177 52.5732 235.162 52.554 235.142 52.5404C235.122 52.5269 235.098 52.5197 235.074 52.5197C235.05 52.5197 235.026 52.5269 235.006 52.5404C234.986 52.554 234.971 52.5732 234.962 52.5956C234.962 53.6651 233.409 54.3206 233.841 55.5281C234.03 56.0456 234.738 56.4078 235.134 55.8903C235.149 55.8648 235.157 55.8364 235.158 55.8073C235.159 55.7782 235.154 55.7492 235.142 55.7225C235.13 55.6959 235.113 55.6722 235.091 55.6534C235.068 55.6347 235.042 55.6213 235.014 55.6143H234.824C233.996 55.6143 233.996 55.0278 234.927 53.8893C235.069 53.7089 235.166 53.4979 235.211 53.2732C235.255 53.0485 235.247 52.8165 235.186 52.5956ZM238.843 50.8533C238.947 51.1293 239.395 51.0431 239.447 50.7671C239.446 50.1849 239.371 49.6051 239.223 49.0421C239.223 48.978 239.197 48.9166 239.152 48.8713C239.107 48.826 239.045 48.8006 238.981 48.8006C238.917 48.8006 238.856 48.826 238.81 48.8713C238.765 48.9166 238.74 48.978 238.74 49.0421C238.627 49.6453 238.662 50.267 238.843 50.8533ZM230.977 49.5251C230.977 50.0598 230.977 51.1121 231.512 51.4398C231.537 51.4539 231.566 51.462 231.595 51.4633C231.624 51.4646 231.653 51.4593 231.68 51.4476C231.706 51.4359 231.73 51.4182 231.749 51.396C231.768 51.3737 231.781 51.3474 231.788 51.3191C231.703 50.7358 231.576 50.1593 231.408 49.5941C231.374 49.2663 230.977 49.2491 230.977 49.5251ZM229.321 47.4378C229.289 47.4905 229.279 47.5536 229.294 47.6135C229.308 47.6733 229.346 47.7249 229.399 47.757C229.451 47.789 229.515 47.7988 229.574 47.7842C229.634 47.7697 229.686 47.732 229.718 47.6793C229.977 47.3343 231.443 46.3166 231.615 45.9543C231.638 45.9271 231.652 45.8942 231.657 45.8592C231.662 45.8242 231.657 45.7886 231.643 45.7563C231.628 45.7241 231.605 45.6965 231.576 45.6766C231.547 45.6567 231.513 45.6454 231.477 45.6438C230.529 45.6266 229.701 46.6961 229.321 47.4378ZM239.016 45.1781C239.878 45.2816 240.327 45.9716 240.741 46.6271C240.769 46.6772 240.814 46.7163 240.868 46.738C240.921 46.7598 240.981 46.763 241.036 46.7471C241.092 46.7312 241.14 46.6972 241.174 46.6504C241.208 46.6037 241.226 46.5469 241.224 46.4891C241.224 45.3678 239.999 44.6778 238.981 44.6606C238.671 44.6433 238.688 45.1436 239.016 45.1781ZM256.266 103.5C259.974 103.276 263.614 102.224 267.323 101.896C267.616 101.896 267.616 101.396 267.323 101.43C263.58 101.761 259.874 102.425 256.248 103.414L256.266 103.5ZM238.412 104.242C238.688 104.242 238.567 103.776 238.291 103.811C234.444 104.415 230.58 105.105 226.751 105.829C226.647 105.829 226.751 106.019 226.751 106.019C230.667 105.484 234.565 104.915 238.412 104.242ZM181.521 202.567L154.025 183.42L148.815 192.096L185.437 216.315L216.108 159.546L207.276 155.406L181.521 202.567Z" fill="black"/>
<path d="M228.079 134.688C227.613 133.515 227.389 133.67 226.147 133.412C224.094 132.963 222.024 132.566 219.954 132.152C213.537 130.859 207.241 128.702 200.979 126.977C194.648 125.279 188.459 123.087 182.47 120.422C180.745 119.663 179.158 118.922 177.571 118.025C176.622 117.473 174.656 115.748 173.603 115.817C173 115.817 173.293 115.817 172.603 116.403C171.309 117.611 170.05 118.801 168.687 119.853C163.357 124.006 157.684 127.699 151.73 130.893C142.575 136.443 133.041 141.343 123.199 145.556C123.13 145.574 123.07 145.615 123.026 145.671C122.983 145.727 122.959 145.795 122.957 145.866C122.074 156.108 123.032 166.425 125.786 176.33C128.357 186.317 131.449 196.163 135.05 205.827C141.467 223.37 151.04 239.672 165.203 251.936C179.986 264.753 192.803 266.996 192.923 266.875C198.11 262.927 202.863 258.44 207.103 253.489C216.929 242.528 224.585 229.803 229.666 215.987C232.764 207.381 234.707 198.402 235.445 189.284C236.411 177.209 234.686 165.29 232.598 153.335C231.764 146.976 230.249 140.724 228.079 134.688ZM232.633 203.688C230.297 215.049 225.869 225.876 219.575 235.618C203.722 258.974 192.872 266.202 192.699 266.323C176.68 260.894 162.696 250.713 152.61 237.136C147.846 230.871 143.753 224.124 140.397 217.005C136.699 208.702 133.525 200.175 130.892 191.475C128.028 183.171 125.808 174.659 124.251 166.014C123.495 161.419 123.143 156.767 123.199 152.111C123.199 151.007 123.406 146.211 123.389 146.228C123.561 145.935 136.24 140.519 141.587 137.483C148.85 133.274 156.371 129.375 163.34 124.614C166.392 122.596 169.276 120.335 171.965 117.852C172.931 116.955 173.31 116.489 174.621 117.024C175.535 117.386 180.952 120.474 182.849 121.25C190.47 124.463 198.325 127.093 206.344 129.116C210.536 130.307 214.727 131.669 218.988 132.566C221.687 132.988 224.359 133.564 226.992 134.291C227.975 134.912 229.942 142.761 230.442 144.831C231.374 149.109 232.064 153.456 232.805 157.734C235.41 173.121 236.117 188.353 232.633 203.723V203.688ZM113.746 63.7216C113.72 63.7503 113.703 63.7857 113.696 63.8238C113.689 63.8619 113.693 63.9011 113.707 63.9371C113.722 63.973 113.746 64.0042 113.777 64.0271C113.808 64.05 113.845 64.0636 113.884 64.0666C114.199 64.0269 114.493 63.8833 114.718 63.6584C114.943 63.4335 115.086 63.1401 115.126 62.8246C115.126 62.5313 114.074 61.2376 113.901 60.6511C113.891 60.6206 113.871 60.5943 113.844 60.5756C113.818 60.5569 113.787 60.5469 113.755 60.5469C113.722 60.5469 113.691 60.5569 113.665 60.5756C113.638 60.5943 113.618 60.6206 113.608 60.6511C113.453 61.1513 114.626 62.5658 114.557 62.9453C114.488 63.3248 114.005 63.4628 113.746 63.7216ZM116.92 58.1326C116.756 58.6921 116.686 59.2751 116.713 59.8576C116.713 60.3578 117.489 60.3578 117.506 59.8576C117.585 59.2757 117.519 58.6836 117.317 58.1326C117.298 58.0965 117.269 58.0662 117.234 58.0452C117.199 58.0241 117.159 58.0129 117.118 58.0129C117.077 58.0129 117.037 58.0241 117.002 58.0452C116.967 58.0662 116.939 58.0965 116.92 58.1326ZM109.899 58.0808C109.739 58.6447 109.739 59.242 109.899 59.8058C109.899 60.1681 110.589 60.1163 110.555 59.8058C110.52 59.4953 110.434 58.7363 110.365 58.2016C110.381 58.1398 110.372 58.0742 110.339 58.0192C110.307 57.9642 110.254 57.9244 110.192 57.9083C110.131 57.8923 110.065 57.9015 110.01 57.9339C109.955 57.9662 109.915 58.0191 109.899 58.0808ZM108.433 57.5978C108.709 57.2356 110.158 56.0971 110.365 55.7693C110.4 55.7352 110.423 55.6905 110.431 55.642C110.438 55.5935 110.429 55.5439 110.406 55.5008C110.382 55.4577 110.345 55.4236 110.301 55.4035C110.256 55.3835 110.206 55.3787 110.158 55.3898C109.238 55.7283 108.467 56.3824 107.984 57.2356C107.795 57.5116 108.226 57.8393 108.433 57.5978ZM116.575 55.5968C117.202 55.9123 117.782 56.3128 118.3 56.7871C118.334 56.8216 118.377 56.8452 118.424 56.8548C118.472 56.8644 118.521 56.8596 118.565 56.841C118.61 56.8225 118.648 56.791 118.674 56.7506C118.701 56.7102 118.715 56.6629 118.714 56.6146C118.714 56.1661 116.989 55.1656 116.523 55.2001C116.481 55.2174 116.446 55.2482 116.423 55.2877C116.4 55.3272 116.391 55.3731 116.396 55.4184C116.402 55.4636 116.423 55.5057 116.455 55.5379C116.488 55.5702 116.53 55.5909 116.575 55.5968ZM108.536 66.4643H108.381C108.381 67.5683 110.831 69.8108 114.091 68.4136C114.246 68.4136 114.091 68.0858 113.97 68.1376C113.011 68.5363 111.944 68.5873 110.951 68.2818C109.959 67.9762 109.105 67.3333 108.536 66.4643ZM42.4516 212.175C36.7419 212.744 30.8941 211.847 25.2016 212.555C25.2016 212.555 25.0809 212.658 25.0809 212.71C24.6294 217.414 24.722 222.155 25.3569 226.838C25.3604 226.88 25.3745 226.921 25.3979 226.957C25.4213 226.993 25.4532 227.023 25.4909 227.043C25.5285 227.064 25.5706 227.075 25.6135 227.075C25.6563 227.075 25.6986 227.065 25.7364 227.045C31.2909 227.338 37.1041 227.148 42.6759 226.889C42.8311 226.889 42.9001 226.544 42.9001 226.51C43.0672 221.799 42.9751 217.083 42.6241 212.382C42.6265 212.357 42.6239 212.332 42.6165 212.308C42.6091 212.284 42.597 212.262 42.581 212.243C42.565 212.223 42.5453 212.208 42.5231 212.196C42.5009 212.184 42.4766 212.177 42.4516 212.175ZM25.7191 217.16C25.7191 215.711 25.7191 214.262 25.6156 212.796C31.0758 213.076 36.5477 213.036 42.0031 212.675C41.8679 214.356 41.8276 216.044 41.8824 217.73C36.508 217.265 31.1123 217.092 25.7191 217.212V217.16ZM26.0814 226.458C25.8226 223.577 25.7881 220.714 25.7536 217.833C28.3066 217.833 30.9286 217.937 33.4126 218.006C33.2052 220.717 33.3618 223.444 33.8784 226.113C31.2727 226.002 28.6624 226.135 26.0814 226.51V226.458ZM34.7064 226.165C34.7064 224.63 34.3096 219.144 34.0854 217.954C36.6556 217.954 41.8651 218.385 41.8824 218.385C41.8824 221.007 42.1411 223.646 42.1929 226.234C39.7951 226.406 37.2594 226.286 34.7581 226.217L34.7064 226.165Z" fill="black"/>
<path d="M335.702 223.732C335.346 221.357 334.175 219.18 332.39 217.574C330.234 215.935 327.37 216.211 324.834 216.297C321.039 216.418 313.225 217.16 313.225 217.143C311.914 213.468 310.758 209.708 309.24 206.137C308.197 203.097 306.023 200.576 303.168 199.099C300.374 197.892 287.264 198.823 281.192 199.375C285.763 184.264 286.005 163.374 286.005 159.338C286.638 158.912 287.183 158.367 287.609 157.734C288.972 155.474 288.023 151.989 287.816 149.557C287.229 142.95 286.867 136.24 285.936 129.668C287.698 127.875 289.238 125.877 290.524 123.717C294.699 116.696 294.716 108.882 292.784 101.102C290.852 93.3221 285.401 87.3019 279.277 82.0234C273.194 76.4991 265.637 72.8614 257.525 71.5526C256.691 70.0945 255.726 68.7147 254.644 67.4299L253.126 68.3096C253.126 65.9809 252.16 56.0104 252.16 56.0104C253.575 55.6309 256.369 51.5426 256.8 48.5411C257.007 45.6167 256.496 42.6862 255.311 40.0044C254.126 37.3227 252.305 34.9711 250.004 33.1541C243.621 27.9791 231.029 30.4114 228.252 32.5159C227.489 33.118 226.607 33.5522 225.665 33.7901C224.723 34.0279 223.741 34.0639 222.783 33.8959C222.783 33.8959 225.095 36.2074 223.68 36.6386C222.266 37.0699 221.3 34.7239 221.3 34.7239C220.972 39.4159 222.852 40.5889 222.852 40.5889C229.045 47.2474 233.72 41.9171 233.72 41.9171C233.72 41.9171 234.358 39.8471 241.017 41.3479C241.874 41.4702 242.696 41.7726 243.428 42.2351C244.161 42.6976 244.787 43.3099 245.266 44.0316C245.745 44.7533 246.066 45.5681 246.207 46.4226C246.349 47.2771 246.308 48.152 246.088 48.9896L246.933 49.3346C247.251 48.8727 247.609 48.4398 248.003 48.0409C251.763 45.4361 252.729 49.3864 252.729 49.3864C253.488 52.5949 249.538 53.5264 249.538 53.5264C249.642 57.9769 248.831 58.7014 248.831 58.7014C245.622 62.5481 242.362 58.3736 242.362 58.3736C241.642 57.5439 240.734 56.8981 239.714 56.4901C238.694 56.082 237.591 55.9235 236.497 56.0276C232.426 56.2001 233.047 57.4939 231.322 58.7531C230.235 59.5466 229.131 58.6496 228.459 57.9079C228.459 56.4416 227.872 50.6974 227.544 49.2829V44.2631C226.336 43.9101 225.234 43.2643 224.336 42.3829C222.611 47.5579 226.285 49.1449 227.303 49.5071C227.424 51.0769 226.854 63.0311 229.028 67.5161C229.609 68.7632 230.49 69.8472 231.591 70.6718C232.693 71.4964 233.981 72.036 235.341 72.2426C235.152 73.2604 234.962 74.9509 234.927 75.4166C230.684 76.0376 227.251 78.7631 223.956 81.3334C220.003 84.3539 216.337 87.7319 213.003 91.4246C206.996 97.9427 203.09 106.117 201.79 114.885L195.873 113.16C195.959 112.78 195.999 112.393 195.994 112.004C195.989 111.31 195.774 110.633 195.379 110.063C194.983 109.493 194.424 109.055 193.776 108.807C193.127 108.56 192.419 108.513 191.744 108.674C191.069 108.835 190.458 109.196 189.991 109.71C189.651 110.181 189.405 110.714 189.267 111.279C189.267 111.279 179.365 106.898 174.414 104.776C173.363 104.096 172.085 103.86 170.861 104.121C168.966 105.135 167.285 106.505 165.91 108.157V108.054C164.185 105.932 160.39 106.104 159.838 109.192C159.731 110.093 159.874 111.006 160.252 111.831C159.39 112.47 158.527 113.142 157.527 113.798C155.112 107.829 152.817 101.602 148.902 96.5479C145.647 92.2204 141.722 88.4409 137.275 85.3526C131.174 81.0061 123.821 78.7711 116.334 78.9874L115.885 77.9006C115.885 77.1934 115.747 76.4861 115.661 75.7961C121.267 76.2619 124.182 67.8266 124.182 67.8266C124.38 69.2837 124.232 70.7668 123.751 72.1564C123.751 72.1564 129.444 63.9799 126.08 50.4041C122.716 36.8284 110.555 39.6746 110.555 39.6746C96.1166 31.3084 88.6128 46.2986 88.6128 46.2986C79.8153 67.5851 95.5128 76.4861 95.5128 76.4861C93.9948 75.3476 94.4778 72.7946 94.4778 72.7946C95.2653 73.9072 96.296 74.8256 97.4916 75.4802C98.6872 76.1348 100.016 76.5083 101.378 76.5724C101.378 77.1071 101.188 77.6936 101.136 78.2974L100.774 79.5739C85.7493 84.8696 72.5186 94.6159 67.3608 110.244C64.9113 117.645 64.7561 125.338 68.4821 132.359C71.6125 138.057 76.7732 142.368 82.9376 144.434C82.863 145.444 83.0218 146.458 83.4017 147.397C83.7815 148.337 84.3723 149.176 85.1283 149.85C83.9553 150.385 80.9366 152.559 79.2116 161.184C78.5043 164.737 77.1933 170.947 75.7616 177.692C68.2233 171.792 57.1488 162.788 56.9763 162.926C40.7958 175.95 9.2111 203.412 9.2111 203.446C9.17672 203.474 9.15147 203.512 9.13857 203.555C9.12567 203.597 9.12568 203.642 9.13862 203.685C9.15156 203.727 9.17683 203.765 9.21123 203.793C9.24564 203.821 9.28762 203.839 9.33185 203.843C11.9366 204.067 14.5068 204.222 17.1806 204.309C17.1806 220.334 18.5261 252.609 18.5951 252.609H12.5748C12.4542 255.315 12.5581 258.027 12.8853 260.716C24.7878 260.716 69.6206 260.406 85.5768 260.095C86.0943 267.702 86.7326 276.845 86.7326 276.845C85.6803 277.259 81.1608 279.95 79.7463 280.571C77.8488 281.399 76.2963 282.417 76.5378 284.711C76.6185 284.801 76.7188 284.872 76.8311 284.918C83.0485 285.384 89.2987 285.141 95.4611 284.193C95.5976 284.149 95.7139 284.057 95.7888 283.935C96.2805 282.192 96.2805 280.347 95.7888 278.604L103.5 246.519C104.638 241.983 108.83 223.887 109.865 219.42C114.212 219.393 118.554 219.128 122.871 218.626C124.596 223.905 129.426 244.087 131.358 248.4C133.29 252.712 133.497 254.489 133.532 254.506C138.448 255.886 142.519 257.628 148.419 252.781C148.471 252.729 148.543 252.699 148.617 252.699C148.691 252.699 148.763 252.729 148.815 252.781C148.868 252.834 148.898 252.905 148.898 252.979C148.898 253.054 148.868 253.125 148.815 253.178C145.262 256.99 137.758 257.49 133.48 254.627L140.984 276.69C140.513 278.896 140.513 281.176 140.984 283.383C140.984 283.521 152.265 283.383 157.803 283.227C157.975 283.227 158.113 282.882 158.113 282.848C158.163 281.99 157.955 281.137 157.515 280.399C157.075 279.661 156.424 279.072 155.646 278.708C154.646 278.139 150.144 275.982 148.936 275.379V249.78C151.09 252.615 153.46 255.28 156.026 257.749C161.925 263.108 168.273 267.95 175.001 272.222C181.038 276.276 187.404 280.295 194.424 282.382C194.562 282.382 212.985 270.549 222.766 255.972V262.614C223.544 263.415 224.511 264.009 225.578 264.339C225.716 265.77 225.935 267.193 226.233 268.599C223.715 270.324 219.834 272.946 219.178 276.086C219.096 276.374 219.075 276.677 219.117 276.974C219.158 277.271 219.262 277.556 219.42 277.811C218.523 282.106 228.2 281.261 230.27 280.985C232.961 280.623 242.345 280.088 240.758 275.275C240.758 275.275 241.258 269.238 239.568 268.185C239.722 266.792 239.722 265.387 239.568 263.994C241.983 263.476 243.673 262.959 243.673 262.959L245.812 209.484C249.797 230.011 266.012 264.546 266.012 264.546C267.257 264.727 268.514 264.819 269.772 264.822C270.26 266.013 270.836 267.167 271.497 268.272C270.169 269.531 263.373 276.017 267.03 278.242C267.823 282.486 274.499 280.122 276.966 279.07C278.518 278.415 287.937 273.895 284.952 271.428C284.952 271.428 282.727 266.064 281.968 265.77C281.82 264.359 281.507 262.969 281.037 261.63C281.927 261.072 282.754 260.418 283.503 259.681C283.503 259.681 281.778 249.728 280.053 239.723C289.093 239.983 298.138 239.447 307.084 238.119C307.205 238.119 307.291 237.946 307.308 237.825C307.308 235.514 307.464 233.064 309.258 231.374C310.863 230.066 312.785 229.203 314.829 228.873C320.28 227.7 322.626 231.357 324.006 235.962C324.006 236.083 332.545 235.566 336.685 235.721C336.909 235.721 336.996 235.238 336.996 235.186C336.971 231.333 336.538 227.493 335.702 223.732ZM235.1 40.8649C232.788 42.1931 229.839 40.2094 229.131 37.9496C229.131 37.8289 229.269 37.7426 229.338 37.8634C229.89 38.8639 232.098 41.4169 234.962 40.3646C235.1 40.2784 235.29 40.7441 235.1 40.8649ZM276.276 80.3674C282.313 84.9559 288.661 90.8209 291.283 98.1004C293.905 105.38 294.63 114.436 291.024 121.629C287.536 128.131 282.026 133.321 275.327 136.413C267.658 139.94 259.308 141.742 250.866 141.691C250.822 141.674 250.773 141.674 250.728 141.691C249.116 138.417 247.222 135.289 245.07 132.342C254.75 126.162 264.752 120.502 275.034 115.385C275.074 115.361 275.106 115.324 275.124 115.281C275.143 115.238 275.147 115.189 275.137 115.143C274.084 111.593 273.385 107.947 273.05 104.259C273.05 104.103 272.791 104.086 272.791 104.259C272.871 107.207 273.265 110.139 273.964 113.004C274.309 114.488 275.137 114.729 273.861 115.471C271.377 116.765 255.179 125.373 249.711 128.719C249.469 125.787 248.658 112.159 248.693 112.125C251.056 108.174 260.009 91.8904 262.493 87.9746C262.512 87.9554 262.527 87.9325 262.538 87.9074C262.548 87.8822 262.554 87.8552 262.554 87.828C262.554 87.8008 262.548 87.7738 262.538 87.7486C262.527 87.7235 262.512 87.7006 262.493 87.6814C261.447 85.9771 260.189 84.4121 258.75 83.0239C260.671 81.5263 262.754 80.2476 264.96 79.2116C265.149 79.2116 265.374 79.0564 265.236 78.8494C263.824 76.5781 262.17 74.467 260.302 72.5531C266.095 74.0228 271.517 76.6842 276.224 80.3674H276.276ZM241.086 140.294C237.825 143.209 237.636 141.536 237.549 141.001C238.759 140.358 239.879 139.558 240.879 138.621C240.879 138.621 240.775 138.345 240.689 138.414C239.982 138.897 236.031 142.226 236.031 140.242C237.315 138.649 238.8 137.229 240.447 136.016C240.206 135.55 239.343 136.016 239.119 133.135C240.206 133.958 241.534 134.401 242.897 134.394C243.714 134.436 244.526 134.232 245.226 133.808C245.855 135.118 246.569 136.386 247.365 137.603C246.278 138.647 245.126 139.621 243.915 140.518C242.828 141.277 240.465 143.157 239.085 142.243C239.88 141.718 240.641 141.142 241.362 140.518C241.396 140.415 241.137 140.208 241.034 140.294H241.086ZM259.854 72.4496C260.492 73.5019 263.959 77.7799 264.839 78.9874C262.454 79.7622 260.313 81.1479 258.629 83.0066L262.251 87.7504C257.663 95.6336 252.264 103.275 248.676 111.745C249.931 98.4482 252.662 85.3323 256.818 72.6394L257.439 71.9839L259.854 72.4496ZM254.558 67.8266C255.265 69.1721 256.283 70.3106 257.025 71.6906C254.713 74.1056 252.16 76.2101 249.728 78.5906C248.815 76.4945 247.657 74.5141 246.278 72.6911C249.219 71.4141 251.998 69.7928 254.558 67.8611V67.8266ZM244.932 71.6734C250.366 70.4831 251.729 63.5486 252.074 59.3051C252.074 60.1676 252.419 66.2051 252.678 68.3786C252.668 68.4183 252.668 68.4597 252.678 68.4994L245.967 72.4496C245.224 73.8121 244.59 75.231 244.07 76.6931C243.488 75.156 242.797 73.6628 242 72.2254C242.983 72.1046 243.932 71.9321 244.932 71.7079V71.6734ZM243.846 77.4694C243.839 77.5056 243.839 77.5429 243.847 77.5789C243.854 77.615 243.869 77.6493 243.89 77.6797C243.911 77.7101 243.937 77.7362 243.968 77.7563C243.999 77.7765 244.034 77.7903 244.07 77.7971C244.106 77.8039 244.143 77.8035 244.179 77.7959C244.215 77.7883 244.25 77.7737 244.28 77.7529C244.311 77.7321 244.337 77.7054 244.357 77.6746C244.377 77.6437 244.391 77.6091 244.398 77.5729C244.915 76.0031 245.674 74.4851 246.123 72.9154C247.081 75.0205 248.236 77.0304 249.573 78.9184C251.955 77.2057 254.199 75.3081 256.283 73.2431C250.608 85.7839 248.469 103.724 248.141 109.623C246.761 104.448 240.603 83.3689 238.326 78.2456C238.905 78.6077 239.56 78.832 240.24 78.9011C240.672 78.1594 241.482 73.6054 241.965 72.3461C242 72.6049 243.449 76.4861 243.846 77.5039V77.4694ZM235.859 62.5309C236.233 62.6414 236.626 62.6722 237.013 62.6216C237.4 62.5709 237.772 62.4398 238.105 62.2367C238.438 62.0336 238.725 61.7629 238.947 61.4422C239.169 61.1215 239.322 60.7579 239.395 60.3746C239.395 60.1504 239.861 60.2711 239.826 60.4954C239.326 63.6521 236.376 63.4106 235.807 62.6516C235.773 62.6344 235.807 62.5654 235.859 62.5654V62.5309ZM235.755 72.2944C237.717 72.5777 239.71 72.5777 241.672 72.2944C240.883 74.2688 240.26 76.3056 239.809 78.3836C239.292 78.0386 236.256 76.2791 235.324 75.6581C235.341 75.6236 235.686 73.5364 235.755 72.3289V72.2944ZM235.1 75.8996C235.909 76.6574 236.8 77.3227 237.756 77.8834C239.257 83.6276 246.381 105.38 247.779 110.658C245.622 107.588 234.117 95.1334 231.236 91.4419C232.069 89.5859 232.784 87.6788 233.375 85.7321C231.865 85.1465 230.298 84.7187 228.7 84.4556C230.43 81.9919 231.807 79.2977 232.788 76.4516C233.496 76.2101 235.1 75.8996 235.1 75.8996ZM202.17 114.919C203.693 106.302 207.567 98.2729 213.365 91.7179C216.146 88.5908 219.187 85.7054 222.456 83.0929C225.382 80.3824 228.74 78.1787 232.392 76.5724C230.891 79.1426 229.459 82.2131 227.82 84.7316C227.682 84.9559 231.391 85.6631 232.875 86.1806C232.547 86.7326 231.063 90.5621 230.632 91.5971C230.632 91.7179 245.467 108.33 248.175 112.142C247.951 114.798 249.486 128.909 249.504 128.926C247.899 129.909 246.192 131.031 244.656 132.1C244.518 132.1 245.036 133.014 245.191 133.342C244.552 133.661 243.852 133.837 243.138 133.86C243.328 130.185 243 125.925 239.861 123.51C238.483 122.519 236.861 121.922 235.169 121.785C232.426 121.44 229.683 121.284 226.941 120.888C225.768 120.715 224.577 120.508 223.404 120.284V120.18C222.451 114.907 222.081 109.544 222.3 104.19C222.3 104.052 222.076 104 222.042 104.19C221.405 109.537 221.662 114.952 222.801 120.215C215.78 118.887 209.001 116.886 202.101 114.902L202.17 114.919ZM189.663 111.469C189.827 110.653 190.288 109.928 190.957 109.434C191.48 109.098 192.096 108.938 192.716 108.975C193.336 109.012 193.928 109.245 194.407 109.641C194.932 110.091 195.31 110.688 195.492 111.356C195.673 112.023 195.65 112.73 195.425 113.384C195.183 114.195 193.89 116.592 192.855 114.678C192.917 114.538 192.969 114.394 193.01 114.246C193.178 113.501 193.305 112.746 193.389 111.987C193.182 112.677 193.062 113.418 192.82 114.091C192.766 114.305 192.668 114.504 192.531 114.677C192.394 114.849 192.222 114.991 192.027 115.092C191.475 115.281 191.061 114.85 190.854 114.384C191.187 113.35 191.389 112.278 191.457 111.193C191.358 112.331 191.055 113.441 190.56 114.471C190.215 115.092 189.56 115.161 189.336 114.471C189.293 114.237 189.293 113.997 189.336 113.763C189.36 112.983 189.47 112.208 189.663 111.452V111.469ZM165.203 108.019C165.358 108.174 165.496 108.347 165.651 108.537C165.653 108.563 165.662 108.588 165.677 108.61C165.692 108.631 165.713 108.648 165.738 108.657C166.098 109.119 166.378 109.638 166.566 110.193C166.79 110.883 167.256 112.59 165.824 111.918C165.392 111.307 164.913 110.73 164.392 110.193C164.289 110.193 164.392 110.193 164.392 110.193C164.703 110.745 167.169 114.143 164.392 113.384C164.127 112.584 163.705 111.845 163.15 111.21C163.12 111.189 163.083 111.178 163.045 111.179C163.008 111.18 162.972 111.193 162.943 111.217C162.914 111.24 162.893 111.272 162.884 111.308C162.874 111.345 162.877 111.383 162.891 111.417C163.236 112.211 165.168 115.178 162.891 114.384C161.595 113.619 160.643 112.383 160.235 110.934C159.97 110.286 159.947 109.565 160.171 108.901C160.394 108.238 160.849 107.677 161.452 107.321C162.055 106.966 162.765 106.839 163.454 106.964C164.143 107.088 164.763 107.457 165.203 108.002V108.019ZM98.2211 69.8621C99.0529 69.8596 99.8765 70.0265 100.642 70.3527C101.407 70.679 102.098 71.1577 102.672 71.7596C102.361 69.2756 98.6006 65.7394 98.6006 65.7394C94.2018 65.8429 95.1506 61.4959 95.1506 61.4959C95.3492 61.0378 95.6554 60.6343 96.0432 60.3198C96.431 60.0052 96.889 59.7888 97.3782 59.6889C97.8674 59.589 98.3736 59.6086 98.8536 59.746C99.3337 59.8834 99.7735 60.1345 100.136 60.4781C100.136 61.0129 101.067 63.4624 102.413 63.5659C103.758 63.6694 103.275 65.0839 103.275 65.0839C103.275 65.0839 104.276 63.7901 103.275 63.0656C102.275 62.3411 102.189 60.4609 102.189 60.4609C107.847 59.9434 111.831 46.3331 111.831 46.3331C113.28 53.8714 121.457 54.0094 121.457 54.0094C121.47 58.4835 121.205 62.9542 120.663 67.3954C120.428 68.7403 119.751 69.9682 118.738 70.8839C117.726 71.7997 116.436 72.3508 115.074 72.4496C115.074 72.4496 115.074 76.9691 115.316 78.2284C113.436 79.8503 111.036 80.7427 108.554 80.7427C106.071 80.7427 103.671 79.8503 101.792 78.2284V76.5034C102.592 76.5591 103.397 76.5244 104.19 76.3999C99.3596 75.4511 98.2211 69.8621 98.2211 69.8621ZM100.878 79.9534C102.603 83.1619 112.383 85.1284 116.403 79.2979C118.304 79.3102 120.202 79.4717 122.078 79.7809C120.75 93.4601 100.515 93.9431 95.7026 82.2304C97.3758 81.4369 99.1181 80.6951 100.878 79.9534ZM70.5866 134.55C61.3578 121.164 68.1888 103.137 78.9701 92.8219C83.7249 88.4712 89.1923 84.9702 95.1333 82.4719C97.0998 88.7336 104.914 91.8731 111.072 91.0969C113.998 90.8218 116.742 89.5577 118.853 87.513C120.963 85.4683 122.314 82.7653 122.682 79.8499C127.618 80.7118 132.319 82.598 136.482 85.3871C140.863 88.3439 144.741 91.9838 147.97 96.1684C152.145 101.464 154.508 107.881 156.992 114.108C152.835 116.989 147.953 120.008 142.95 122.837C142.088 122.181 140.121 120.439 139.725 120.077C139.856 114.967 138.768 109.899 136.551 105.294H136.378C139.932 114.074 138.948 121.422 139.104 124.872C129.996 129.771 121.198 133.687 116.679 134.653C116.679 134.653 116.679 134.394 116.541 134.36C109.313 131.962 87.7676 124.286 87.7331 124.286C88.1791 121.4 88.4728 118.492 88.6128 115.575C88.6128 115.575 88.4748 115.575 88.4748 115.678C87.7331 118.524 87.6296 121.612 87.1638 124.527C87.1551 124.58 87.1618 124.634 87.1832 124.683C87.2047 124.732 87.2399 124.774 87.2846 124.803C96.6686 128.857 106.57 131.703 116.299 134.791C116.528 138.081 116.377 141.386 115.851 144.641C100.55 146.038 80.7641 149.298 70.5866 134.55ZM142.416 123.147C141.45 123.699 140.466 124.234 139.5 124.752C139.604 123.458 139.673 122.095 139.69 120.698C140.51 121.607 141.424 122.428 142.416 123.147ZM116.868 137.241C117.441 137.484 118.057 137.609 118.68 137.609C119.302 137.609 119.918 137.484 120.491 137.241C121.767 136.568 122.406 135.171 123.561 134.325C123.637 135.268 123.381 136.208 122.837 136.982C122.716 137.137 122.837 137.327 123.078 137.31C124.251 137.482 126.684 137.016 127.529 137.706C128.719 138.655 124.476 139.069 123.389 139.207C123.216 139.207 123.268 139.483 123.389 139.5C124.731 139.492 126.063 139.277 127.339 138.862C128.357 141.45 124.062 140.863 123.251 141.156C123.216 141.168 123.186 141.19 123.165 141.219C123.144 141.249 123.132 141.284 123.132 141.32C123.132 141.357 123.144 141.392 123.165 141.421C123.186 141.451 123.216 141.473 123.251 141.484C124.256 141.553 125.266 141.483 126.252 141.277C127.167 143.433 118.731 145.124 116.61 142.26C116.845 140.598 116.931 138.918 116.868 137.241ZM90.5276 169.05C90.5276 168.946 90.7518 169.05 90.7346 169.05C90.3033 175.605 86.1633 202.273 84.9041 209.018C84.9041 209.208 84.5936 209.121 84.6281 209.018C85.5251 202.359 89.2166 175.674 90.5276 169.05ZM76.8138 212.744C78.6162 213.647 80.471 214.442 82.3683 215.124C82.3683 215.625 82.4718 216.315 82.5236 217.091C78.2456 216.677 74.1746 217.522 69.9138 217.229C69.9138 215.694 69.7931 212.865 69.7931 212.865C70.9488 212.83 74.2091 212.761 76.8138 212.796V212.744ZM78.0731 217.712H82.4373C82.5926 219.799 82.7651 222.663 82.9376 225.733C81.4065 225.518 79.8567 225.466 78.3146 225.578C78.3975 222.972 78.3341 220.363 78.1248 217.764L78.0731 217.712ZM77.6418 225.561C77.4521 225.561 72.4668 225.561 70.2071 225.664C70.2071 223.594 69.9138 218.35 69.9138 217.798C72.464 217.969 75.0227 217.969 77.5728 217.798C77.2667 220.395 77.2898 223.021 77.6418 225.612V225.561ZM10.5738 203.412C26.0988 189.853 41.1408 176.985 57.0108 163.737C62.8931 168.912 69.3791 173.535 75.6926 178.244C73.7433 187.3 71.6043 197.219 70.3623 202.929C54.4751 203.205 20.2856 203.55 10.5738 203.412ZM13.5063 260.216C13.6161 257.803 13.4658 255.386 13.0578 253.005C18.8366 253.695 70.7763 253.109 85.0248 252.885C85.1283 254.61 85.3008 256.938 85.4733 259.491C69.4998 259.491 25.2708 259.905 13.5063 260.216ZM52.9743 236.997C56.1308 236.75 59.3001 236.71 62.4618 236.877C62.4618 236.877 62.4618 249.78 62.7378 252.574L53.3021 252.729C53.1641 247.33 53.3021 242.362 52.9743 236.997ZM95.3058 283.572C85.7148 285.211 80.0396 284.262 77.0208 284.452C76.9001 283.676 78.1766 281.899 78.7458 281.468C79.3151 281.037 86.7498 277.483 86.7498 277.483C89.0786 281.709 93.8913 279.674 95.3748 278.932C95.764 280.478 95.764 282.096 95.3748 283.641L95.3058 283.572ZM101.361 253.264C95.4266 255.869 89.5443 254.23 84.8351 250.004L84.9731 252.143L63.3761 252.488C63.6312 247.102 63.4755 241.704 62.9103 236.342C62.9103 236.342 55.5963 235.359 52.3361 236.221C52.2326 236.221 52.4223 247.261 52.5603 252.66L19.7853 252.54C19.7853 252.54 19.1988 220.265 18.2846 204.24C25.6331 204.464 55.2858 203.895 70.2761 203.584L69.3618 207.776C71.2277 209.511 73.316 210.99 75.5718 212.175C73.5334 211.96 71.4732 212.1 69.4826 212.589C69.4716 212.628 69.4716 212.67 69.4826 212.709C69.1205 217.191 69.1898 221.696 69.6896 226.164C69.6896 226.164 69.8103 226.371 69.8966 226.371C72.0356 226.509 80.6433 226.113 83.1618 226.475C83.5586 233.599 84.0243 241.655 84.4728 244.415C84.4728 244.415 84.9731 249.814 85.0593 249.866C87.4916 251.591 93.4946 256.404 101.274 252.971C101.43 252.85 101.585 253.247 101.361 253.333V253.264ZM102.827 246.571C95.3748 248.4 87.0948 245.226 85.0248 244.294C84.3348 239.257 83.9208 219.816 82.8686 215.331C91.3433 218.171 100.238 219.553 109.175 219.42C107.829 223.732 103.776 241.965 102.827 246.675V246.571ZM100.274 187.921C100.286 187.883 100.31 187.849 100.343 187.825C100.375 187.801 100.415 187.788 100.455 187.788C100.495 187.788 100.535 187.801 100.567 187.825C100.6 187.849 100.624 187.883 100.636 187.921C100.636 193.855 100.826 199.806 100.636 205.74C100.636 205.913 100.36 205.913 100.343 205.74C100.084 199.893 100.257 193.941 100.274 188.025V187.921ZM113.436 151.144C109.572 151.351 91.0106 152.214 85.6803 149.592H85.5941C84.2363 148.194 83.4174 146.361 83.2826 144.417C84.0071 144.675 84.7661 144.9 85.5078 145.107C94.8056 147.539 104.483 146.107 113.85 145.262C113.585 147.241 113.447 149.234 113.436 151.23V151.144ZM132.014 248.589C130.289 243.639 125.252 223.266 123.165 218.488C124.89 218.281 128.564 217.643 129.858 217.419C131.583 221.024 133.653 224.508 135.55 228.01C137.448 231.512 139.466 235.272 141.553 238.809C143.278 241.655 145.003 244.449 146.918 247.14C141.139 251.194 134.291 249.435 132.014 248.676V248.589ZM157.044 282.451C151.575 282.572 147.228 283.003 141.519 282.693C141.113 280.805 141.049 278.859 141.329 276.948C146.676 281.382 148.815 275.62 148.815 275.62C150.006 276.724 156.992 279.95 157.044 282.537V282.451ZM225.837 264.339C229.718 265.477 235.186 264.735 239.016 263.942C238.843 265.374 239.964 270.531 233.634 271.256C225.733 272.274 226.182 265.77 225.837 264.425V264.339ZM231.15 280.053C228.959 280.416 220.265 281.778 219.661 278.104C220.316 278.543 221.081 278.788 221.869 278.811C224.871 279.053 239.309 276.431 240.12 275.465C241.034 279.277 233.513 279.76 231.15 280.14V280.053ZM240.12 275.085C239.205 275.931 227.337 278.035 224.888 278.225C222.438 278.415 218.126 278.794 219.937 275.051C220.318 274.299 220.8 273.603 221.369 272.981C222.082 273.687 222.836 274.349 223.629 274.965C223.836 275.103 224.043 274.861 223.939 274.654C223.398 273.783 222.62 273.083 221.697 272.636C222.197 272.118 222.766 271.601 223.335 271.118C223.68 271.394 224.905 272.739 225.285 272.964C225.324 272.986 225.368 272.997 225.413 272.994C225.458 272.991 225.501 272.974 225.537 272.946C225.572 272.918 225.598 272.88 225.612 272.837C225.625 272.794 225.625 272.748 225.612 272.705C225.23 271.867 224.573 271.186 223.749 270.773L225.009 269.755C225.923 270.342 226.734 271.066 227.631 271.687C227.751 271.687 227.907 271.687 227.82 271.515C227.14 270.664 226.28 269.975 225.302 269.496C225.644 269.218 226.001 268.959 226.371 268.72C227.134 269.717 228.119 270.522 229.247 271.072C230.375 271.623 231.615 271.903 232.87 271.891C234.125 271.88 235.36 271.576 236.478 271.005C237.595 270.433 238.565 269.61 239.309 268.599C240.551 269.91 240.12 274.05 240.12 275.172V275.085ZM243.138 205.723C241.827 222.231 222.611 254.265 222.611 254.265V254.679C212.675 269.1 199.479 277.725 194.355 281.847C187.145 279.691 180.659 275.499 174.466 271.325C167.802 267.057 161.538 262.196 155.75 256.8C150.242 251.17 145.519 244.822 141.708 237.929C137.706 231.029 134.325 223.818 130.151 217.074C128.426 213.382 114.85 182.298 114.143 151.196C114.3 149.245 114.329 147.286 114.229 145.331L115.851 145.193C115.958 145.125 116.037 145.021 116.075 144.9C116.269 144.197 116.419 143.482 116.523 142.761C117.444 143.403 118.496 143.832 119.603 144.017C120.71 144.202 121.844 144.138 122.923 143.83C124.182 143.554 127.287 142.968 126.649 141.053C126.845 140.979 127.03 140.881 127.201 140.76C127.381 140.668 127.536 140.533 127.652 140.368C127.769 140.202 127.843 140.011 127.868 139.81C127.894 139.61 127.87 139.406 127.799 139.217C127.727 139.027 127.611 138.858 127.46 138.724C128.081 138.414 128.357 137.982 127.874 137.379C127.615 137.163 127.314 137.005 126.99 136.912C126.666 136.82 126.327 136.797 125.994 136.844C125.071 136.832 124.148 136.89 123.234 137.016C123.855 136.154 124.182 133.187 123.337 133.704C122.563 134.303 121.888 135.019 121.336 135.826C120.042 137.31 118.542 137.154 116.782 136.878C116.782 136.275 116.782 135.671 116.627 135.153C120.099 134.713 123.468 133.668 126.58 132.066C130.617 130.341 150.195 121.319 160.407 112.418C160.675 113.021 161.064 113.562 161.551 114.008C162.038 114.453 162.612 114.793 163.236 115.005C164.375 115.264 164.582 114.609 164.409 113.781C164.532 113.87 164.675 113.928 164.825 113.95C164.975 113.973 165.128 113.959 165.272 113.91C165.416 113.861 165.545 113.778 165.65 113.669C165.755 113.559 165.833 113.426 165.876 113.28C166.005 112.924 166.005 112.533 165.876 112.176C166.497 112.504 166.945 112.556 167.135 111.814C167.198 111.213 167.139 110.605 166.961 110.026C166.783 109.448 166.49 108.912 166.1 108.45C167.325 107.484 168.463 106.432 169.671 105.449C172.137 103.482 175.156 105.777 177.623 106.829C181.383 108.45 189.077 111.745 189.129 111.676C189.019 112.136 188.938 112.603 188.887 113.073C188.887 113.712 188.525 114.936 189.353 115.264C189.888 115.471 190.284 115.161 190.56 114.643C190.61 114.815 190.699 114.973 190.821 115.104C190.942 115.236 191.092 115.337 191.26 115.401C191.427 115.464 191.606 115.488 191.784 115.47C191.962 115.453 192.134 115.394 192.285 115.299C192.416 115.214 192.532 115.109 192.63 114.988C193.096 115.747 193.959 116.161 194.666 115.471C195.226 114.933 195.631 114.254 195.839 113.505C204.609 116.57 213.592 118.991 222.714 120.75C227.044 121.56 231.46 121.716 235.79 122.475C241.62 123.458 242.88 128.719 242.69 133.86C242.269 133.837 241.853 133.768 241.448 133.653C240.555 133.376 239.68 133.048 238.826 132.669C238.826 132.669 238.722 132.669 238.722 132.773C238.549 133.456 238.603 134.177 238.878 134.826C239.033 135.332 239.372 135.762 239.826 136.033C238.805 136.566 237.896 137.292 237.153 138.172C236.652 138.69 235.255 139.897 235.428 140.76C235.6 141.622 236.497 141.381 237.153 141.191C237.083 141.345 237.053 141.514 237.066 141.683C237.079 141.851 237.135 142.014 237.228 142.155C237.321 142.297 237.448 142.412 237.598 142.491C237.748 142.569 237.915 142.609 238.084 142.605H238.619C239.688 143.813 241.241 142.812 242.328 142.105L243.759 141.191C243.759 145.314 244.398 149.454 244.777 153.559C245.053 156.716 245.191 159.924 245.605 163.081C246.433 186.783 244.432 189.336 243.138 205.809V205.723ZM246.192 162.96C245.967 159.51 245.484 156.06 245.191 152.61C244.846 148.695 244.708 144.693 244.087 140.811C245.42 139.959 246.642 138.945 247.727 137.793C248.607 139.19 249.538 140.553 250.366 141.881C250.599 142.024 250.856 142.123 251.125 142.174C250.815 145.624 252.488 158.889 253.109 163.616C249.762 163.512 247.278 163.202 246.192 163.047V162.96ZM253.437 163.65C253.074 158.855 252.143 145.624 251.712 142.174C263.89 141.984 276.828 138.621 285.608 129.909C285.798 135.291 287.471 151.403 287.557 154.059C287.681 154.882 287.596 155.722 287.31 156.503C287.023 157.284 286.545 157.98 285.918 158.527C275.051 163.875 261.734 164.202 253.437 163.737V163.65ZM277.587 277.949C274.809 279.208 269.22 281.658 267.357 278.156C268.332 278.241 269.314 278.147 270.255 277.88C275.415 276.885 280.292 274.765 284.538 271.67C286.419 273.723 278.673 277.5 277.5 278.035L277.587 277.949ZM284.366 271.239C280.372 274.219 275.754 276.254 270.859 277.19C269.324 277.5 266.857 278.104 266.547 276.051C266.597 275.292 266.873 274.565 267.34 273.964C267.53 273.619 267.754 273.291 267.978 272.964C268.601 273.296 269.143 273.761 269.565 274.326C269.755 274.464 269.928 274.206 269.859 274.033C269.475 273.404 268.901 272.915 268.22 272.636C268.548 272.187 268.893 271.756 269.238 271.325C270.462 271.825 270.79 272.791 271.152 273.05C271.515 273.309 271.463 273.05 271.411 272.86C270.976 272.065 270.316 271.417 269.514 270.997L270.393 269.928C271.704 270.738 272.118 271.791 272.498 272.153C272.653 272.274 272.964 272.153 272.877 271.929C272.418 270.936 271.681 270.097 270.756 269.514L271.67 268.375C273.705 271.825 281.537 270.1 281.83 266.133C282.814 267.78 283.634 269.519 284.28 271.325L284.366 271.239ZM280.571 261.648C280.916 262.924 283.417 268.358 276.741 269.565C272.101 270.411 270.324 264.873 270.221 264.649C273.836 264.576 277.371 263.572 280.485 261.734L280.571 261.648ZM324.8 235.255C323.989 234.893 323.989 234.203 323.696 233.53C323.307 232.411 322.792 231.341 322.161 230.339C319.314 226.544 313.536 227.579 309.861 229.649C308.947 230.197 308.172 230.95 307.598 231.847C307.023 232.745 306.664 233.764 306.549 234.824C306.529 235.286 306.483 235.747 306.411 236.204C306.084 237.36 305.825 237.325 304.583 237.48C302.979 237.687 288.454 238.688 280.243 238.929C278.949 231.374 277.673 223.887 277.121 220.834C276.301 217.398 276.166 213.834 276.724 210.346C278.817 207.215 280.406 203.775 281.433 200.151C286.798 199.789 298.683 198.754 301.719 199.548C305.497 200.583 307.515 203.791 308.913 207.207C310.31 210.622 311.379 214.417 312.587 217.815C312.587 217.953 312.949 218.022 313.001 218.022C316.002 218.022 319.073 217.591 322.074 217.453C325.076 217.315 329.112 216.177 331.665 218.074C333.534 219.819 334.7 222.187 334.943 224.733C335.54 228.063 335.829 231.441 335.805 234.824C332.769 234.72 325.283 235.479 324.8 235.255Z" fill="black"/>
<path d="M319.918 244.087C320.502 243.622 320.985 243.043 321.338 242.384C321.691 241.726 321.906 241.003 321.971 240.259C322.035 239.515 321.948 238.766 321.714 238.057C321.479 237.348 321.103 236.694 320.608 236.135C319.545 234.805 318.064 233.872 316.405 233.487C314.746 233.102 313.006 233.287 311.465 234.013C307.912 236.118 308.981 240.551 310.603 242.794C312.466 245.347 317.365 245.812 319.918 244.087ZM311.741 234.6C312.78 234.095 313.936 233.884 315.086 233.99C316.236 234.097 317.334 234.516 318.262 235.204C320.677 236.773 322.195 240.499 319.987 242.88C318.262 244.726 314.087 244.605 312.173 243.139C308.481 240.361 309.827 235.531 311.741 234.6Z" fill="black"/>
<path d="M316.175 239.775C316.491 239.452 316.668 239.019 316.668 238.567C316.668 238.116 316.491 237.682 316.175 237.36C315.855 237.059 315.432 236.891 314.993 236.891C314.554 236.891 314.132 237.059 313.812 237.36C313.65 237.495 313.518 237.662 313.424 237.85C313.33 238.039 313.275 238.244 313.264 238.455C313.252 238.665 313.284 238.875 313.358 239.073C313.431 239.27 313.545 239.45 313.691 239.602C313.84 239.781 314.023 239.927 314.231 240.033C314.438 240.139 314.664 240.202 314.896 240.218C315.128 240.234 315.361 240.203 315.581 240.127C315.801 240.051 316.003 239.931 316.175 239.775ZM315.468 237.722C315.598 237.772 315.714 237.852 315.807 237.956C315.899 238.06 315.966 238.185 316.002 238.319C316.037 238.454 316.04 238.595 316.01 238.731C315.98 238.867 315.918 238.994 315.83 239.102C314.088 240.948 313.07 236.928 315.433 237.687L315.468 237.722ZM300.288 205.482C296.838 202.825 290.317 204.654 286.643 205.758C286.605 205.762 286.57 205.78 286.544 205.809C286.519 205.838 286.505 205.875 286.505 205.913C286.815 209.967 287.764 214.279 288.402 218.298C288.402 218.298 299.218 216.936 304.583 216.953C304.721 216.953 304.98 216.953 304.962 216.763C304.462 212.899 303.582 208.035 300.288 205.482ZM288.885 217.557C288.316 213.831 288.075 209.984 287.333 206.275C290.973 205.585 297.01 203.636 300.132 206.448C302.858 208.88 303.479 212.813 303.996 216.246C301.478 216.246 291.404 217.177 288.885 217.591V217.557ZM317.796 250.918C312.794 247.899 305.859 248.917 300.546 250.918C297.753 251.938 295.13 253.374 292.767 255.179C290.921 256.611 289.196 258.284 289.575 260.785C289.575 261.165 292.422 270.221 292.473 270.238C297.079 273.188 303.91 272.998 309.016 271.773C311.854 271.103 314.572 269.997 317.072 268.496C319.306 267.106 321.138 265.155 322.385 262.838C322.385 262.838 321.936 257.094 321.919 256.956C321.772 255.691 321.32 254.481 320.602 253.429C319.884 252.377 318.921 251.516 317.796 250.918ZM291.49 257.283C293.643 255.022 296.263 253.256 299.166 252.108C304.721 249.642 312.656 248.814 317.262 251.522C320.246 253.247 322.247 256.887 320.056 260.147C318.218 262.336 315.839 264.007 313.156 264.994C307.722 267.426 300.184 269.376 294.681 266.15C291.732 264.425 288.885 260.475 291.49 257.283ZM315.933 268.237C313.711 269.459 311.331 270.37 308.861 270.945C303.701 272.304 298.233 271.891 293.336 269.772C293.336 269.772 292.042 265.908 291.404 264.011C292.594 265.434 294.09 266.569 295.781 267.33C297.472 268.092 299.313 268.461 301.167 268.41C307.225 268.255 313.101 266.31 318.055 262.821C319.396 261.965 320.457 260.736 321.108 259.284C321.264 260.388 321.402 262.648 321.402 262.734C320.112 265.031 318.222 266.933 315.933 268.237Z" fill="black"/>
</svg>
