<svg width="313" height="313" viewBox="0 0 313 313" fill="none" xmlns="http://www.w3.org/2000/svg">
<path d="M281.998 97.5936C282.201 97.8283 281.027 97.5936 298.102 100.614V99.6281L282.796 96.5763C262.31 73.2109 233.952 64.6816 202.652 65.5893C200.305 57.7643 189.272 21.159 187.3 16.0884C185.109 10.4544 181.368 7.8252 175.531 7.8252C170.038 7.8252 89.4558 29.4222 84.7608 30.7211C75.856 33.1156 48.3276 39.939 29.9858 44.6653C12.5204 49.1881 14.4454 60.3309 15.6504 66.9822C22.3799 104.855 38.3429 160.741 64.0402 219.961C61.6045 227.452 60.6374 235.343 61.1919 243.201C63.3516 272.592 86.0598 293.782 109.425 300.261L111.115 305.175H112.79C110.74 299.557 110.881 299.103 110.223 298.915C86.0754 291.982 65.3235 270.354 63.1012 243.045C61.5362 223.373 70.9262 202.902 84.2757 190.774C88.2664 187.174 96.7957 181.384 99.6283 185.891C87.2961 205.563 78.5791 228.005 76.5289 243.718C77.6052 243.537 78.7105 243.662 79.7198 244.077C80.7292 244.491 81.6025 245.18 82.2412 246.065C82.5855 246.535 82.4446 247.458 81.6621 246.675C81.0754 246.132 80.3846 245.713 79.6314 245.444C78.8783 245.175 78.0784 245.062 77.2801 245.11C77.1331 245.127 76.9909 245.173 76.8619 245.246C76.7329 245.318 76.6197 245.416 76.5289 245.533C76.0438 246.206 76.5289 247.208 77.1706 247.755C78.5034 248.76 80.0929 249.368 81.756 249.508C82.0213 249.529 82.2877 249.486 82.5329 249.383C82.778 249.279 82.9947 249.118 83.1645 248.913C88.2508 242.623 92.8397 235.947 96.8896 228.944C98.6663 235.055 101.363 240.86 104.887 246.159L101.725 251.965C101.708 251.994 101.696 252.026 101.691 252.059C101.686 252.092 101.688 252.126 101.696 252.159C101.704 252.192 101.718 252.223 101.738 252.25C101.758 252.277 101.783 252.3 101.811 252.317C101.84 252.335 101.872 252.346 101.905 252.352C101.939 252.357 101.973 252.355 102.005 252.347C102.038 252.339 102.069 252.325 102.096 252.305C102.123 252.285 102.146 252.26 102.164 252.231L106.42 246.488C106.478 246.399 106.508 246.296 106.508 246.19C106.508 246.085 106.478 245.982 106.42 245.893C103.961 242.252 101.864 238.378 100.16 234.328C98.5145 230.324 97.2924 226.159 96.514 221.902C91.3025 191.04 125.56 209.006 133.824 252.325C137.799 272.983 131.914 285.19 131.914 286.192C131.921 286.268 131.953 286.339 132.005 286.395C132.057 286.451 132.125 286.488 132.201 286.5C132.276 286.513 132.353 286.5 132.42 286.464C132.487 286.428 132.54 286.371 132.572 286.301C135.944 276.737 137.016 266.513 135.702 256.457C138.237 256.568 140.774 256.299 143.229 255.659C145.624 261.919 146.171 267.568 143.777 274.032C143.725 274.128 143.698 274.235 143.698 274.345C143.698 274.454 143.725 274.562 143.777 274.658L165.108 305.175H167.064L145.045 274.188C145.345 273.435 145.606 272.667 145.827 271.888C145.827 271.888 186.517 260.447 197.237 256.817C204.139 254.469 232.528 245.345 242.184 242.278C252.294 239.07 256.535 236.19 258.351 231.323C260.166 226.456 257.459 219.648 251.277 204.452C248.006 196.392 230.932 150.788 229.868 148.112C239.258 147.94 251.903 143.26 259.603 138.377L298.039 157.674V156.109L259.587 136.061C253.703 139.473 244.516 145.623 229.602 147.329C220.118 122.086 221.479 126.64 216.315 110.207C218.474 109.957 220.65 109.644 222.794 109.3L235.736 119.253C235.807 119.311 235.898 119.339 235.989 119.33C236.08 119.321 236.163 119.277 236.222 119.206C236.28 119.136 236.307 119.045 236.299 118.954C236.29 118.863 236.245 118.779 236.175 118.721L223.467 107.985C222.982 107.594 222.825 107.985 215.892 108.58C208.349 109.347 191.275 110.27 185.234 105.747C182.104 103.306 182.777 100.223 185.453 97.218C196.408 85.4179 228.162 81.1298 245.236 80.5351C245.277 80.5451 245.32 80.5455 245.362 80.5364C245.404 80.5273 245.443 80.5089 245.476 80.4825C245.51 80.4561 245.537 80.4225 245.555 80.3842C245.574 80.3459 245.584 80.3038 245.584 80.2612C245.584 80.2186 245.574 80.1766 245.555 80.1382C245.537 80.0999 245.51 80.0663 245.476 80.0399C245.443 80.0136 245.404 79.9951 245.362 79.986C245.32 79.9769 245.277 79.9774 245.236 79.9873C232.823 80.0023 220.462 81.5797 208.443 84.6823C206.627 78.7353 204.765 72.6162 202.95 66.6066C260.87 66.9509 278.383 95.2774 281.998 97.5936ZM31.2065 49.1568C50.4717 44.1801 158.457 15.8849 173.089 12.8645C175.058 12.2944 177.158 12.3656 179.083 13.0679C181.509 14.1008 182.542 16.417 183.778 19.8913C150.569 27.1216 42.2554 55.6516 19.6881 62.9445C18.9995 57.3731 19.9542 52.0677 31.2065 49.1568ZM19.7351 63.2418C34.8373 58.5468 86.3102 44.9939 101.678 40.9719C164.138 24.5081 183.794 20.173 183.825 20.1574C184.717 22.8335 186.063 27.0903 187.691 32.38C156.813 38.4835 49.9709 67.4517 22.2078 76.2C21.4096 72.5692 20.1576 66.4657 19.7351 63.2731V63.2418ZM22.286 76.4817C42.7719 70.2217 158.926 38.5618 187.785 32.6617C189.35 37.8106 191.243 43.9297 193.231 50.4871C169.365 55.589 52.6314 86.263 26.5115 94.3071C24.7744 87.3741 23.3346 81.2393 22.286 76.513V76.4817ZM100.16 185.108C96.6705 180.288 88.0317 185.891 83.4775 189.803C78.9899 193.785 75.086 198.379 71.8809 203.45C69.2673 202.511 67.0763 197.19 64.7288 191.368C61.3456 183.217 58.5016 174.852 56.2152 166.328C55.5892 163.59 55.4953 161.477 57.6863 159.646C60.3625 157.361 71.7713 153.699 75.1361 152.619C81.5526 150.553 88.7829 148.863 95.3402 147.408C97.9381 146.844 100.708 146.907 102.258 148.566C104.558 150.976 108.737 163.214 111.1 170.1C108.502 173.23 105.982 176.501 103.572 179.975C98.0098 176.418 92.0809 173.469 85.8876 171.18C87.4526 168.425 94.0569 156.578 96.1227 152.729C96.1704 152.646 96.1833 152.547 96.1583 152.454C96.1334 152.362 96.0727 152.283 95.9897 152.236C95.9067 152.188 95.8081 152.175 95.7157 152.2C95.6232 152.225 95.5444 152.286 95.4967 152.369C91.1617 158.895 87.5935 164.685 84.307 170.57C76.5602 167.706 70.222 165.875 62.9447 163.903C62.8534 163.872 62.7535 163.878 62.6669 163.92C62.5803 163.963 62.5142 164.038 62.483 164.13C62.4519 164.221 62.4583 164.321 62.5009 164.407C62.5434 164.494 62.6186 164.56 62.71 164.591C67.7023 166.563 76.5446 169.458 83.4619 172.072C79.3569 179.433 75.921 187.149 73.1955 195.124C73.1777 195.207 73.1897 195.294 73.2294 195.368C73.2691 195.443 73.3339 195.502 73.4124 195.533C73.4909 195.565 73.5781 195.568 73.6586 195.542C73.7392 195.516 73.8079 195.462 73.8528 195.39C79.565 182.996 84.3383 174.059 85.0738 172.682C91.2194 174.975 97.1701 177.759 102.868 181.008C101.929 182.291 101.021 183.684 100.16 185.108ZM107.985 206.658C108.674 205.015 109.347 203.372 109.989 201.729C114.277 201.901 122.759 202.589 125.075 206.22C127.391 209.851 122.556 213.591 118.189 215.016C115.404 211.552 111.93 208.706 107.985 206.658ZM119.316 216.393C125.216 217.488 139.035 220.024 140.052 225.955C140.866 230.431 134.137 232.982 129.285 233.514C126.722 227.407 123.387 221.653 119.363 216.393H119.316ZM135.436 255.612C134.643 249.556 133.173 243.608 131.054 237.88C136.688 239.899 149.724 245.705 147.83 251.23C146.61 254.845 139.645 255.674 135.482 255.612H135.436ZM253.953 229.664C252.92 232.45 250.338 234.797 240.729 237.849C192.12 253.28 194.952 253.311 146.547 266.848C146.665 262.866 145.708 258.924 143.777 255.439C144.841 255.188 145.836 254.701 146.689 254.016C147.542 253.332 148.231 252.465 148.707 251.48C150.96 245.001 136.844 238.96 130.506 236.503C129.864 234.813 129.739 234.578 129.629 234.312C134.997 233.545 141.711 230.697 140.866 225.83C140.753 225.172 140.519 224.541 140.177 223.967C140.177 223.967 238.1 194.999 242.169 193.966C249.555 213.122 255.549 225.47 254 229.664H253.953ZM184.78 96.6389C180.695 101.224 182.792 104.12 182.777 104.323C183.264 105.14 183.907 105.853 184.67 106.42C185.758 107.284 186.965 107.986 188.254 108.502C164.325 115.81 59.9086 145.858 59.4704 145.999C53.7112 147.564 49.9083 148.691 46.9504 140.302C53.2104 133.025 74.0406 108.783 78.2504 105.779C79.7333 104.67 81.5325 104.067 83.3836 104.057C89.8471 103.869 122.681 119.331 128.424 116.577C132.368 114.668 146.031 93.1959 146.171 92.9925C155.953 77.9215 154.685 78.7823 176.955 82.4131C181.916 83.2269 188.692 84.3224 197.503 85.7152L198.176 88.141C193.121 90.1598 188.035 92.9925 184.827 96.6233L184.78 96.6389ZM46.4966 139.285C43.8204 131.46 36.5901 108.314 37.0127 104.855C37.2013 103.616 37.7452 102.458 38.5786 101.522C39.4119 100.586 40.4988 99.912 41.7077 99.5811C46.8878 98.1257 182.182 61.1447 185.891 61.1447C188.849 61.1447 189.991 62.7097 191.118 65.5737C193.462 71.8742 195.489 78.2883 197.19 84.7919C164.325 79.377 161.774 78.2971 157.142 79.377C153.245 80.2847 151.508 82.507 145.092 92.2569C140.287 99.675 130.49 114.073 127.877 115.372C125.623 116.467 124.418 116.092 117.767 114.01C109.253 111.334 104.605 109.832 94.6829 105.904C88.7046 103.525 82.8828 100.943 77.4679 104.777C72.5382 108.361 50.3934 134.59 46.4966 139.285ZM203.967 85.9343C202.402 86.4351 200.727 87.0142 199.053 87.6871C197.084 80.0975 194.702 72.6213 191.916 65.292C190.649 62.162 189.24 60.3622 185.829 60.3153C183.935 60.3153 102.414 81.3802 41.4103 98.7517C40.0413 99.1391 38.8122 99.9113 37.869 100.977C36.9258 102.042 36.3081 103.355 36.0893 104.761C35.5572 108.783 42.5997 131.366 45.8393 140.115C49.6422 150.381 53.8364 148.347 61.2389 146.375C91.8659 138.393 158.269 118.925 189.678 109.065C196.439 111.319 204.53 111.146 211.588 110.63C214.202 119.003 216.283 125.419 217.41 128.268C219.492 133.573 238.272 183.637 242.106 193.653C234.672 195.5 230.979 196.689 140.052 223.686C136.688 218.49 126.155 216.001 119.911 215.25C123.369 213.685 126.718 211.181 126.484 207.425C126.249 203.669 120.396 202.151 118.487 201.682C115.846 201.067 113.152 200.711 110.442 200.618C114.192 191.087 116.93 181.189 118.612 171.086C119.066 168.222 114.23 166.391 112.68 168.112L111.335 169.677C107.688 158.879 104.495 150.099 102.43 147.893C100.865 146.124 97.6095 146.469 95.2307 146.828C87.0301 148.112 62.2092 154.951 57.3264 159.082C55.6362 160.757 54.6815 162.009 55.6675 166.313C57.9179 174.917 60.7573 183.357 64.1654 191.572C66.0278 196.126 68.6413 202.777 71.5835 203.841C69.5913 206.989 67.8438 210.285 66.3564 213.701C51.4733 179.772 41.3164 154.231 26.5741 94.7609C50.8473 87.3898 174.091 55.1195 193.309 50.9409C194.655 55.2134 201.885 78.8449 203.967 85.9343Z" fill="black"/>
<path d="M119.597 162.291C118.439 161.868 116.123 165.421 115.544 166.407C115.528 166.431 115.519 166.46 115.516 166.489C115.513 166.518 115.517 166.548 115.528 166.575C115.538 166.603 115.555 166.627 115.577 166.647C115.599 166.666 115.625 166.681 115.654 166.688C116.538 166.889 117.367 167.285 118.079 167.846C118.097 167.866 118.119 167.882 118.143 167.893C118.167 167.904 118.194 167.91 118.22 167.91C118.247 167.91 118.273 167.904 118.297 167.893C118.322 167.882 118.343 167.866 118.361 167.846C118.846 166.813 120.755 162.76 119.597 162.291ZM35.0561 64.5877C32.0407 65.1777 29.119 66.1726 26.3703 67.5455C27.2809 66.1489 28.1015 64.6958 28.8274 63.1948C28.8406 63.1603 28.8411 63.1221 28.8289 63.0872C28.8166 63.0523 28.7924 63.0228 28.7605 63.0041C28.7286 62.9853 28.6911 62.9785 28.6546 62.9847C28.6182 62.991 28.5851 63.01 28.5613 63.0383C27.5321 64.5819 26.6067 66.1922 25.7913 67.8585C25.5252 68.4219 30.1733 69.7052 30.7836 69.7991C30.8165 69.7991 30.8485 69.7888 30.8751 69.7696C30.9018 69.7504 30.9217 69.7233 30.9321 69.6921C30.9425 69.661 30.9428 69.6273 30.933 69.596C30.9232 69.5646 30.9038 69.5371 30.8775 69.5174C29.4676 68.8242 27.9811 68.2989 26.4486 67.9524C29.2698 66.7625 32.1661 65.7587 35.1187 64.9476C35.4004 64.7755 35.3221 64.5407 35.0561 64.5877ZM51.4573 60.3622C49.7131 59.4307 47.8971 58.6404 46.0267 57.999C45.991 57.9901 45.9533 57.9941 45.9202 58.0103C45.8871 58.0264 45.8608 58.0537 45.8459 58.0873C45.8309 58.121 45.8283 58.1588 45.8385 58.1942C45.8487 58.2295 45.871 58.2602 45.9015 58.2807C47.4121 59.1045 48.9814 59.8159 50.5965 60.4091C47.6075 60.6981 44.6792 61.4368 41.9108 62.6001C41.8802 62.6207 41.8579 62.6513 41.8477 62.6867C41.8376 62.7221 41.8402 62.7599 41.8551 62.7935C41.8701 62.8272 41.8964 62.8545 41.9295 62.8706C41.9625 62.8868 42.0002 62.8907 42.036 62.8818C44.1018 62.2245 47.0909 61.6455 50.9721 60.8473C49.9645 62.0686 49.0688 63.378 48.296 64.7598C48.2859 64.7943 48.2869 64.831 48.2987 64.8649C48.3105 64.8987 48.3326 64.928 48.3619 64.9487C48.3912 64.9694 48.4263 64.9804 48.4622 64.9802C48.498 64.98 48.5329 64.9686 48.562 64.9476C49.6824 63.6214 50.6729 62.1907 51.5199 60.6752C51.5432 60.6533 51.5606 60.6259 51.5703 60.5955C51.5801 60.565 51.5819 60.5326 51.5757 60.5013C51.5694 60.4699 51.5552 60.4407 51.5345 60.4164C51.5138 60.392 51.4872 60.3734 51.4573 60.3622ZM65.4327 58.2964C65.3836 59.214 65.0053 60.0831 64.3671 60.7443C63.7289 61.4055 62.8737 61.8143 61.9584 61.8959C61.0791 61.9651 60.2019 61.7376 59.4671 61.2496C58.7324 60.7616 58.1824 60.0414 57.9051 59.2041C57.6739 58.3417 57.7548 57.4254 58.1336 56.6168C58.5123 55.8083 59.1646 55.1596 59.9751 54.7852C60.7857 54.4108 61.7024 54.3348 62.5635 54.5707C63.4247 54.8065 64.1748 55.339 64.6815 56.0741C63.9242 56.0376 63.1652 56.0638 62.4123 56.1523C62.3708 56.1523 62.3309 56.1688 62.3016 56.1982C62.2723 56.2275 62.2558 56.2673 62.2558 56.3088C62.2558 56.3503 62.2723 56.3902 62.3016 56.4195C62.3309 56.4489 62.3708 56.4653 62.4123 56.4653C63.2809 56.5588 64.1571 56.5588 65.0258 56.4653C65.0601 56.4574 65.0915 56.44 65.1164 56.4151C65.1414 56.3902 65.1588 56.3588 65.1667 56.3245C65.3619 55.42 65.4095 54.4898 65.3075 53.5701C65.3075 53.5286 65.291 53.4888 65.2617 53.4594C65.2323 53.4301 65.1925 53.4136 65.151 53.4136C65.1095 53.4136 65.0697 53.4301 65.0403 53.4594C65.011 53.4888 64.9945 53.5286 64.9945 53.5701C64.8369 54.2944 64.779 55.0368 64.8224 55.7767C61.9584 51.6451 55.9958 55.0568 57.3104 59.5014C58.7345 64.4938 66.3248 63.2105 65.7614 58.4059C65.7759 58.3624 65.7725 58.3148 65.752 58.2737C65.7314 58.2326 65.6954 58.2014 65.6518 58.1868C65.6082 58.1723 65.5607 58.1757 65.5196 58.1962C65.4785 58.2168 65.4472 58.2528 65.4327 58.2964ZM29.2812 53.2101C28.8788 53.2101 28.4855 53.3295 28.1509 53.553C27.8163 53.7766 27.5556 54.0943 27.4016 54.4661C27.2476 54.8378 27.2073 55.2469 27.2858 55.6415C27.3643 56.0362 27.5581 56.3987 27.8426 56.6832C28.1271 56.9678 28.4896 57.1615 28.8843 57.24C29.279 57.3185 29.688 57.2783 30.0598 57.1243C30.4315 56.9703 30.7493 56.7095 30.9728 56.3749C31.1964 56.0404 31.3157 55.647 31.3157 55.2446C31.3157 54.7051 31.1014 54.1876 30.7198 53.806C30.3383 53.4245 29.8208 53.2101 29.2812 53.2101ZM36.4646 51.0504C36.0622 51.0504 35.6688 51.1698 35.3343 51.3933C34.9997 51.6169 34.7389 51.9346 34.5849 52.3064C34.4309 52.6781 34.3907 53.0872 34.4692 53.4819C34.5477 53.8765 34.7414 54.239 35.026 54.5235C35.3105 54.8081 35.673 55.0018 36.0677 55.0803C36.4623 55.1589 36.8714 55.1186 37.2431 54.9646C37.6149 54.8106 37.9326 54.5498 38.1562 54.2152C38.3797 53.8807 38.4991 53.4873 38.4991 53.0849C38.4991 52.5454 38.2847 52.0279 37.9032 51.6463C37.5216 51.2648 37.0041 51.0504 36.4646 51.0504ZM43.6636 48.9377C43.2612 48.9377 42.8678 49.057 42.5333 49.2806C42.1987 49.5041 41.9379 49.8219 41.7839 50.1936C41.6299 50.5654 41.5897 50.9744 41.6682 51.3691C41.7467 51.7638 41.9404 52.1263 42.225 52.4108C42.5095 52.6953 42.872 52.8891 43.2667 52.9676C43.6613 53.0461 44.0704 53.0058 44.4421 52.8518C44.8139 52.6978 45.1316 52.4371 45.3552 52.1025C45.5787 51.7679 45.6981 51.3746 45.6981 50.9722C45.6981 50.4326 45.4837 49.9151 45.1022 49.5336C44.7206 49.152 44.2031 48.9377 43.6636 48.9377ZM178.833 24.3672C177.612 24.3672 86.6072 47.4979 79.0169 49.5324C74.3219 50.8 73.2421 50.8939 72.3031 52.4589C71.9611 53.0119 71.7739 53.6466 71.7611 54.2967C71.7482 54.9468 71.9102 55.5884 72.23 56.1545C72.5498 56.7205 73.0158 57.1904 73.5792 57.5148C74.1427 57.8393 74.7829 58.0065 75.4331 57.999C76.6633 57.8414 77.8711 57.5421 79.0326 57.107C99.0176 51.6451 177.815 32.067 178.786 31.8792C179.414 31.8049 180.019 31.5958 180.559 31.2663C181.099 30.9368 181.562 30.4946 181.916 29.9699C182.251 29.4153 182.434 28.7823 182.447 28.1345C182.46 27.4867 182.303 26.8468 181.99 26.2791C181.678 25.7115 181.222 25.236 180.668 24.9004C180.113 24.5648 179.48 24.3809 178.833 24.3672ZM181.634 29.7351C181.297 30.2144 180.862 30.6161 180.357 30.913C179.852 31.21 179.29 31.3953 178.707 31.4566C64.7754 59.9866 76.5129 57.6704 75.4174 57.6704C74.8365 57.661 74.2682 57.4993 73.7695 57.2014C73.2707 56.9035 72.8589 56.4798 72.5752 55.9727C72.2916 55.4657 72.1461 54.893 72.1533 54.3121C72.1604 53.7312 72.32 53.1623 72.6161 52.6624C73.4455 51.3165 74.1811 51.2539 79.0795 49.9393C87.8435 47.5761 177.675 24.7897 178.786 24.7897C179.365 24.7878 179.935 24.939 180.437 25.2281C180.939 25.5172 181.356 25.9339 181.645 26.436C181.934 26.938 182.085 27.5076 182.083 28.087C182.081 28.6664 181.926 29.235 181.634 29.7351Z" fill="black"/>
<path d="M80.8479 54.7749C80.432 54.4529 79.9739 54.1896 79.4863 53.9924C79.6931 53.5567 79.7243 53.0581 79.5735 52.6001C79.4228 52.142 79.1015 51.7594 78.6764 51.5317C78.2513 51.304 77.7549 51.2486 77.29 51.3769C76.8251 51.5052 76.4274 51.8075 76.1793 52.221C75.9312 52.6345 75.8517 53.1277 75.9572 53.5982C76.0628 54.0688 76.3453 54.4807 76.7463 54.7487C77.1472 55.0166 77.6359 55.12 78.1111 55.0375C78.5862 54.955 79.0114 54.6928 79.2985 54.3054C79.7393 54.602 80.2117 54.8487 80.707 55.0409C80.7403 55.048 80.775 55.044 80.8058 55.0296C80.8367 55.0152 80.862 54.9911 80.8779 54.9611C80.8938 54.931 80.8995 54.8965 80.8941 54.8629C80.8887 54.8293 80.8724 54.7984 80.8479 54.7749ZM77.7179 54.7749C77.405 54.7937 77.0937 54.7181 76.8243 54.558C76.5549 54.3978 76.3398 54.1605 76.2068 53.8767C76.0738 53.5929 76.0291 53.2757 76.0785 52.9662C76.1279 52.6567 76.269 52.3692 76.4837 52.1408C76.6983 51.9124 76.9766 51.7538 77.2825 51.6854C77.5883 51.617 77.9077 51.642 78.1991 51.7572C78.4906 51.8724 78.7408 52.0724 78.9173 52.3314C79.0938 52.5904 79.1884 52.8965 79.189 53.2099C79.1906 53.6016 79.0452 53.9798 78.7815 54.2695C78.5178 54.5593 78.155 54.7396 77.7648 54.7749H77.7179ZM176.501 27.9821C176.172 25.8067 175.405 25.9789 175.108 27.1683C175.035 27.4351 174.983 27.7072 174.951 27.9821C174.435 27.9821 173.277 27.8412 173.026 28.3107C172.776 28.7802 173.292 29.0306 173.684 29.2028C173.95 29.3168 174.228 29.4008 174.513 29.4532C174.153 29.9383 173.699 30.8617 174.169 31.159C174.638 31.4564 175.515 30.533 175.906 30.1105C176.313 30.4548 177.111 31.0338 177.565 30.7521C178.019 30.4704 177.299 29.6253 176.892 29.1871C177.424 29.0776 178.222 28.8272 178.097 28.3107C177.972 27.7943 176.986 27.9351 176.501 27.9821ZM176.673 29.0776C176.579 29.0776 176.548 29.1558 176.673 29.2497C176.798 29.3436 177.69 30.3296 177.455 30.5487C177.221 30.7678 176.344 30.0948 176.016 29.8601C175.992 29.8446 175.965 29.8363 175.937 29.8363C175.909 29.8363 175.882 29.8446 175.859 29.8601C175.343 30.3609 174.544 31.0495 174.294 30.8617C174.044 30.6739 174.732 29.5627 174.795 29.3906C174.809 29.3759 174.817 29.3563 174.817 29.3358C174.817 29.3153 174.809 29.2956 174.795 29.281C174.513 29.1715 173.324 28.8115 173.402 28.4203C173.48 28.029 174.967 28.1699 175.139 28.1855C175.311 28.2012 175.264 28.1073 175.28 27.9821C175.577 26.4171 175.843 26.5266 175.969 26.7457C176.16 27.1776 176.322 27.6221 176.454 28.076V28.1542C176.454 28.1542 177.8 28.1542 177.894 28.4203C177.987 28.6863 177.048 28.9993 176.673 29.0776ZM116.248 162.15C113.306 152.196 111.115 147.971 112.164 144.575C114.261 138.487 135.639 133.291 142.759 131.648C145.185 131.084 150.678 129.801 153.01 130.302C155.342 130.803 156.75 132.164 162.118 148.299C164.382 154.919 166.238 161.672 167.674 168.519C167.925 169.325 167.995 170.176 167.879 171.012C167.762 171.848 167.463 172.648 167.001 173.355C164.528 176.641 146.797 181.493 142.822 182.588C123.494 187.894 125.826 187.096 120.051 172.619C120.051 172.59 120.04 172.562 120.019 172.542C119.998 172.521 119.971 172.51 119.942 172.51C119.913 172.51 119.885 172.521 119.864 172.542C119.844 172.562 119.832 172.59 119.832 172.619C122.367 180.444 123.291 184.936 127.454 186C130.584 186.83 139.645 183.95 142.963 183.011C163.824 177.017 166.093 175.342 167.424 173.621C167.925 172.858 168.253 171.995 168.386 171.092C168.518 170.189 168.451 169.268 168.191 168.394C166.76 161.504 164.905 154.709 162.635 148.049C157.236 131.929 155.858 130.317 153.12 129.723C150.741 129.206 145.952 130.317 142.65 131.084C135.529 132.759 114.01 137.939 111.725 144.355C110.458 148.158 114.37 158.049 116.013 162.15C116.076 162.369 116.295 162.29 116.248 162.15ZM181.79 169.834C186.282 169.568 206.298 163.902 216.22 159.567C219.569 158.096 221.244 156.609 220.446 153.057C217.173 141.527 213.147 130.225 208.395 119.222C207.8 117.404 206.573 115.861 204.937 114.871C201.337 113.149 183.887 118.83 178.081 120.708C174.404 121.898 168.112 123.917 165.561 126.452C163.308 128.612 163.621 131.366 164.466 134.371C174.278 169.02 176.297 170.147 181.79 169.834ZM165.765 126.765C168.316 124.308 174.591 122.32 178.175 121.162C183.152 119.597 201.369 113.76 204.78 115.34C206.308 116.295 207.449 117.758 208.004 119.472C212.737 130.437 216.721 141.71 219.929 153.213C220.571 156.625 219.225 157.674 216.048 159.066C207.644 162.744 186.579 169.036 181.837 169.349C176.391 169.693 174.529 167.784 164.81 134.324C163.934 131.46 163.621 128.768 165.765 126.765ZM59.0005 72.2716C58.9785 72.173 58.9369 72.0799 58.8782 71.9978C58.8194 71.9157 58.7447 71.8462 58.6585 71.7936C58.5723 71.7411 58.4764 71.7064 58.3765 71.6917C58.2766 71.677 58.1748 71.6826 58.0771 71.7082L30.3297 79.048C30.1221 79.102 29.9445 79.2362 29.836 79.4211C29.7274 79.606 29.6967 79.8264 29.7506 80.034C29.8046 80.2415 29.9388 80.4191 30.1237 80.5277C30.3086 80.6363 30.529 80.667 30.7366 80.613L58.4684 73.2732C58.5718 73.2467 58.6686 73.199 58.7525 73.133C58.8365 73.067 58.9057 72.9842 58.9558 72.8899C59.0059 72.7957 59.0357 72.692 59.0434 72.5855C59.0511 72.479 59.0365 72.3721 59.0005 72.2716ZM52.9752 80.0966C52.9515 79.9994 52.9087 79.908 52.8492 79.8276C52.7897 79.7473 52.7147 79.6796 52.6287 79.6286C52.5427 79.5776 52.4474 79.5442 52.3483 79.5305C52.2493 79.5168 52.1485 79.523 52.0519 79.5488L31.8634 84.8855C31.7636 84.9124 31.6702 84.9591 31.589 85.023C31.5077 85.0869 31.4402 85.1665 31.3905 85.2572C31.3408 85.3478 31.3099 85.4476 31.2997 85.5504C31.2896 85.6533 31.3003 85.7571 31.3313 85.8558C31.3548 85.9526 31.3977 86.0437 31.4574 86.1235C31.5172 86.2032 31.5925 86.27 31.6789 86.3198C31.7652 86.3695 31.8608 86.4012 31.9598 86.4129C32.0587 86.4246 32.1591 86.4161 32.2546 86.3879L52.4431 81.0512C52.5412 81.0242 52.6329 80.9779 52.7129 80.9151C52.7929 80.8523 52.8596 80.7742 52.9091 80.6853C52.9586 80.5965 52.99 80.4987 53.0013 80.3976C53.0127 80.2965 53.0038 80.1942 52.9752 80.0966ZM70.5815 68.8599C70.6363 69.0544 70.7657 69.2194 70.9415 69.3191C71.1174 69.4187 71.3254 69.4449 71.5205 69.392L99.2523 62.0521C99.3499 62.0264 99.4415 61.9818 99.5219 61.9207C99.6022 61.8596 99.6698 61.7832 99.7206 61.6961C99.7715 61.6089 99.8047 61.5125 99.8183 61.4125C99.8319 61.3125 99.8257 61.2107 99.8 61.1131C99.7743 61.0155 99.7297 60.9239 99.6686 60.8435C99.6075 60.7632 99.5312 60.6956 99.444 60.6448C99.3568 60.5939 99.2604 60.5607 99.1604 60.5471C99.0604 60.5335 98.9586 60.5397 98.861 60.5654L71.1292 67.9678C70.9419 68.0194 70.7811 68.1402 70.6795 68.3058C70.5778 68.4714 70.5428 68.6694 70.5815 68.8599ZM93.7748 69.0007C93.7197 68.8055 93.5911 68.6393 93.4159 68.5372C93.2408 68.435 93.0328 68.4048 92.8358 68.453L72.6473 73.8053C72.5481 73.8304 72.455 73.8755 72.3739 73.9378C72.2927 74.0001 72.2251 74.0784 72.1753 74.1678C72.1255 74.2572 72.0944 74.3558 72.0841 74.4576C72.0738 74.5595 72.0843 74.6623 72.1152 74.7599C72.1668 74.9539 72.2924 75.1199 72.465 75.2223C72.6376 75.3247 72.8435 75.3554 73.0385 75.3077L93.2427 69.9554C93.4384 69.8971 93.6036 69.7647 93.703 69.5863C93.8024 69.408 93.8282 69.1978 93.7748 69.0007ZM111.381 57.9049C111.405 58.002 111.448 58.0934 111.507 58.1738C111.567 58.2542 111.642 58.3218 111.728 58.3728C111.814 58.4239 111.909 58.4572 112.008 58.4709C112.107 58.4846 112.208 58.4784 112.304 58.4526L140.036 51.1128C140.136 51.0857 140.23 51.0389 140.312 50.9753C140.394 50.9117 140.462 50.8324 140.513 50.7422C140.564 50.6519 140.596 50.5524 140.609 50.4494C140.621 50.3465 140.612 50.2421 140.584 50.1425C140.526 49.9502 140.396 49.7877 140.221 49.6886C140.046 49.5896 139.84 49.5615 139.645 49.6104L111.913 56.872C111.804 56.8952 111.702 56.9423 111.614 57.0099C111.526 57.0774 111.454 57.1637 111.403 57.2625C111.352 57.3613 111.323 57.4702 111.32 57.5812C111.316 57.6923 111.337 57.8029 111.381 57.9049ZM134.59 57.9049C134.535 57.7103 134.406 57.5453 134.23 57.4457C134.054 57.346 133.846 57.3198 133.651 57.3728L113.462 62.7094C113.255 62.7634 113.077 62.8976 112.969 63.0825C112.86 63.2674 112.829 63.4878 112.883 63.6954C112.937 63.9029 113.072 64.0805 113.256 64.1891C113.441 64.2977 113.662 64.3284 113.869 64.2744L134.058 58.9221C134.165 58.8983 134.265 58.8516 134.352 58.7851C134.438 58.7186 134.509 58.6339 134.56 58.5371C134.611 58.4402 134.64 58.3334 134.645 58.2243C134.65 58.1151 134.631 58.0061 134.59 57.9049ZM152.165 46.7464C152.19 46.8421 152.234 46.9319 152.295 47.0105C152.355 47.0892 152.43 47.1551 152.516 47.2045C152.602 47.254 152.696 47.286 152.795 47.2987C152.893 47.3114 152.993 47.3045 153.088 47.2785L180.836 39.9387C180.934 39.9116 181.025 39.8653 181.105 39.8025C181.185 39.7397 181.252 39.6616 181.302 39.5728C181.351 39.4839 181.383 39.3861 181.394 39.285C181.405 39.184 181.396 39.0816 181.368 38.984C181.342 38.8863 181.298 38.7945 181.237 38.714C181.176 38.6335 181.099 38.5659 181.012 38.515C180.925 38.4641 180.828 38.4309 180.728 38.4174C180.628 38.4039 180.526 38.4103 180.429 38.4363L152.697 45.7761C152.498 45.8342 152.33 45.9691 152.23 46.1511C152.13 46.333 152.107 46.5472 152.165 46.7464ZM175.28 46.8247C175.256 46.7275 175.213 46.6361 175.154 46.5557C175.094 46.4754 175.019 46.4077 174.933 46.3567C174.847 46.3057 174.752 46.2723 174.653 46.2586C174.554 46.2449 174.453 46.2511 174.357 46.2769L154.231 51.6449C154.133 51.6705 154.041 51.7152 153.961 51.7763C153.881 51.8374 153.813 51.9137 153.762 52.0009C153.712 52.0881 153.678 52.1845 153.665 52.2845C153.651 52.3845 153.657 52.4862 153.683 52.5839C153.709 52.6815 153.753 52.7731 153.814 52.8534C153.876 52.9338 153.952 53.0013 154.039 53.0522C154.126 53.1031 154.223 53.1363 154.323 53.1499C154.423 53.1635 154.524 53.1573 154.622 53.1316L174.81 47.795C174.906 47.7633 174.994 47.7129 175.07 47.6466C175.145 47.5803 175.207 47.4996 175.25 47.4091C175.294 47.3186 175.319 47.2203 175.324 47.1199C175.329 47.0195 175.314 46.9191 175.28 46.8247ZM169.223 181.54C169.193 181.443 169.144 181.353 169.079 181.275C169.013 181.197 168.933 181.133 168.843 181.087C168.753 181.04 168.654 181.012 168.553 181.004C168.452 180.995 168.35 181.008 168.253 181.039L132.368 192.213C132.271 192.243 132.181 192.291 132.103 192.356C132.026 192.42 131.961 192.5 131.914 192.589C131.867 192.678 131.838 192.776 131.828 192.877C131.819 192.978 131.829 193.079 131.859 193.176C131.889 193.272 131.937 193.362 132.002 193.44C132.066 193.518 132.146 193.582 132.235 193.629C132.324 193.677 132.422 193.706 132.523 193.715C132.623 193.725 132.725 193.714 132.822 193.684L168.707 182.51C168.903 182.449 169.068 182.313 169.164 182.131C169.261 181.949 169.282 181.737 169.223 181.54ZM161.195 192.213C161.165 192.116 161.116 192.026 161.05 191.948C160.985 191.871 160.905 191.806 160.815 191.76C160.724 191.713 160.626 191.685 160.524 191.677C160.423 191.669 160.321 191.681 160.225 191.712L134.418 199.741C134.321 199.771 134.231 199.82 134.153 199.886C134.075 199.951 134.011 200.031 133.965 200.121C133.918 200.212 133.89 200.31 133.882 200.411C133.873 200.513 133.885 200.615 133.917 200.711C133.978 200.907 134.115 201.072 134.296 201.168C134.478 201.265 134.69 201.286 134.887 201.228L160.679 193.183C160.875 193.122 161.039 192.986 161.136 192.804C161.232 192.623 161.254 192.41 161.195 192.213ZM172.228 196.063L136.343 207.253C136.246 207.284 136.157 207.333 136.079 207.399C136.002 207.464 135.938 207.544 135.891 207.634C135.845 207.724 135.817 207.823 135.808 207.924C135.8 208.025 135.811 208.127 135.842 208.223C135.873 208.32 135.922 208.409 135.988 208.487C136.053 208.564 136.133 208.628 136.223 208.674C136.313 208.721 136.412 208.749 136.513 208.758C136.614 208.766 136.716 208.755 136.812 208.724L172.698 197.55C172.795 197.52 172.885 197.47 172.963 197.405C173.04 197.34 173.104 197.26 173.151 197.169C173.198 197.079 173.226 196.98 173.234 196.879C173.242 196.778 173.23 196.676 173.199 196.58C173.137 196.383 173.001 196.219 172.819 196.122C172.638 196.026 172.425 196.004 172.228 196.063ZM220.164 165.592L184.279 176.845C184.182 176.875 184.092 176.923 184.015 176.988C183.937 177.052 183.872 177.131 183.825 177.221C183.778 177.31 183.749 177.408 183.739 177.509C183.73 177.609 183.74 177.711 183.77 177.807C183.8 177.904 183.848 177.994 183.913 178.072C183.977 178.149 184.057 178.214 184.146 178.261C184.235 178.308 184.333 178.337 184.434 178.347C184.534 178.356 184.636 178.346 184.733 178.316L220.665 167.079C220.872 167.019 221.048 166.879 221.152 166.69C221.256 166.5 221.281 166.277 221.221 166.07C221.16 165.862 221.02 165.687 220.831 165.583C220.642 165.479 220.419 165.454 220.211 165.514L220.164 165.592ZM213.028 176.751C212.999 176.655 212.952 176.565 212.888 176.487C212.824 176.409 212.745 176.345 212.656 176.299C212.567 176.252 212.47 176.224 212.37 176.215C212.269 176.207 212.169 176.219 212.073 176.25L186.235 184.279C186.039 184.34 185.874 184.476 185.778 184.658C185.681 184.839 185.66 185.052 185.719 185.249C185.749 185.346 185.798 185.436 185.863 185.514C185.929 185.592 186.009 185.656 186.099 185.702C186.189 185.749 186.288 185.777 186.389 185.785C186.49 185.793 186.592 185.781 186.689 185.75L212.496 177.721C212.595 177.694 212.689 177.648 212.77 177.584C212.851 177.52 212.919 177.44 212.969 177.35C213.018 177.259 213.049 177.159 213.059 177.056C213.069 176.953 213.059 176.85 213.028 176.751ZM187.8 192.745C187.829 192.842 187.876 192.932 187.94 193.01C188.003 193.088 188.082 193.153 188.17 193.201C188.259 193.249 188.356 193.279 188.456 193.29C188.557 193.3 188.658 193.291 188.755 193.262L224.64 182.088C224.749 182.068 224.852 182.025 224.943 181.963C225.034 181.9 225.111 181.819 225.168 181.725C225.225 181.631 225.262 181.525 225.276 181.416C225.29 181.306 225.28 181.195 225.248 181.089C225.216 180.984 225.162 180.886 225.089 180.803C225.016 180.72 224.927 180.653 224.827 180.607C224.726 180.561 224.618 180.536 224.507 180.535C224.397 180.534 224.287 180.557 224.186 180.601L188.301 191.775C188.204 191.805 188.114 191.854 188.036 191.92C187.958 191.985 187.894 192.065 187.847 192.155C187.801 192.246 187.773 192.344 187.765 192.446C187.756 192.547 187.768 192.649 187.8 192.745ZM143.98 232.262L161.508 226.941C161.684 226.864 161.825 226.725 161.905 226.551C161.985 226.376 161.999 226.179 161.943 225.995C161.887 225.812 161.765 225.655 161.601 225.555C161.438 225.456 161.243 225.419 161.054 225.454L143.526 230.775C143.418 230.795 143.314 230.837 143.223 230.9C143.132 230.962 143.056 231.043 142.998 231.137C142.941 231.232 142.904 231.337 142.89 231.447C142.876 231.556 142.886 231.667 142.918 231.773C142.95 231.879 143.004 231.976 143.077 232.059C143.15 232.143 143.239 232.209 143.339 232.255C143.44 232.302 143.549 232.326 143.659 232.327C143.769 232.328 143.879 232.306 143.98 232.262ZM144.418 237.708C144.48 237.904 144.616 238.068 144.797 238.165C144.979 238.262 145.191 238.283 145.388 238.224L169.02 231.041C169.192 230.963 169.33 230.825 169.409 230.654C169.487 230.482 169.501 230.288 169.448 230.107C169.394 229.926 169.277 229.77 169.118 229.668C168.959 229.567 168.769 229.526 168.582 229.554L144.888 236.737C144.7 236.808 144.547 236.948 144.459 237.129C144.372 237.309 144.357 237.517 144.418 237.708ZM150.24 243.154L164.231 238.897C164.329 238.87 164.42 238.824 164.5 238.761C164.579 238.698 164.645 238.619 164.693 238.53C164.741 238.441 164.771 238.343 164.78 238.242C164.79 238.141 164.779 238.039 164.748 237.942C164.719 237.846 164.671 237.756 164.608 237.678C164.544 237.599 164.466 237.534 164.377 237.486C164.289 237.438 164.191 237.408 164.091 237.398C163.991 237.388 163.889 237.397 163.793 237.426L149.708 241.667C149.605 241.697 149.509 241.747 149.426 241.814C149.342 241.88 149.273 241.963 149.221 242.057C149.169 242.151 149.137 242.254 149.125 242.36C149.113 242.466 149.122 242.574 149.152 242.677C149.182 242.779 149.232 242.875 149.299 242.959C149.366 243.042 149.448 243.112 149.542 243.163C149.636 243.215 149.739 243.248 149.845 243.259C149.951 243.271 150.059 243.262 150.162 243.232L150.24 243.154ZM151.93 248.538C151.992 248.734 152.128 248.898 152.309 248.995C152.491 249.091 152.703 249.113 152.9 249.054L172.932 242.982C173.108 242.905 173.25 242.766 173.33 242.592C173.41 242.418 173.423 242.22 173.367 242.036C173.311 241.853 173.19 241.696 173.026 241.597C172.862 241.497 172.667 241.461 172.479 241.495L152.447 247.567C152.25 247.629 152.086 247.765 151.989 247.946C151.893 248.128 151.871 248.34 151.93 248.538ZM167.111 250.588L150.412 255.643C150.309 255.672 150.213 255.722 150.13 255.789C150.046 255.856 149.977 255.939 149.925 256.032C149.874 256.126 149.841 256.229 149.829 256.335C149.817 256.442 149.827 256.549 149.857 256.652C149.886 256.755 149.936 256.851 150.003 256.934C150.07 257.018 150.152 257.087 150.246 257.139C150.34 257.19 150.443 257.223 150.549 257.235C150.656 257.247 150.763 257.237 150.866 257.208L167.565 252.137C167.76 252.077 167.923 251.942 168.018 251.761C168.114 251.581 168.133 251.37 168.073 251.175C168.013 250.979 167.878 250.816 167.697 250.721C167.517 250.626 167.306 250.606 167.111 250.666V250.588ZM175.703 223.028L190.147 218.928C190.355 218.872 190.532 218.735 190.639 218.549C190.746 218.363 190.775 218.141 190.719 217.934C190.663 217.726 190.526 217.55 190.34 217.443C190.154 217.335 189.932 217.307 189.725 217.363L175.28 221.541C175.181 221.567 175.087 221.612 175.005 221.674C174.924 221.736 174.855 221.814 174.804 221.903C174.753 221.992 174.72 222.09 174.708 222.192C174.696 222.294 174.704 222.397 174.732 222.496C174.794 222.693 174.929 222.858 175.11 222.957C175.291 223.057 175.503 223.082 175.703 223.028ZM176.61 228.49C176.637 228.588 176.684 228.68 176.746 228.76C176.809 228.84 176.887 228.906 176.976 228.956C177.065 229.005 177.163 229.037 177.264 229.048C177.365 229.059 177.467 229.051 177.565 229.022L194.295 224.327C194.502 224.271 194.679 224.135 194.786 223.948C194.893 223.762 194.922 223.541 194.866 223.333C194.81 223.126 194.674 222.949 194.487 222.842C194.301 222.735 194.08 222.706 193.872 222.762L177.142 227.457C177.034 227.48 176.931 227.527 176.843 227.595C176.755 227.662 176.683 227.749 176.632 227.848C176.581 227.946 176.553 228.055 176.549 228.166C176.545 228.277 176.566 228.388 176.61 228.49ZM193.81 230.055C193.748 229.858 193.613 229.693 193.432 229.593C193.251 229.494 193.038 229.469 192.839 229.523L179.005 233.451C178.902 233.479 178.806 233.526 178.721 233.591C178.637 233.656 178.566 233.737 178.513 233.83C178.406 234.016 178.377 234.237 178.433 234.445C178.489 234.652 178.626 234.829 178.812 234.936C178.998 235.043 179.22 235.072 179.427 235.016L193.277 231.088C193.382 231.058 193.479 231.007 193.563 230.938C193.648 230.868 193.717 230.783 193.767 230.686C193.816 230.589 193.846 230.484 193.853 230.375C193.861 230.266 193.846 230.157 193.81 230.055ZM180.335 240.4C180.362 240.498 180.408 240.589 180.471 240.669C180.534 240.749 180.612 240.816 180.701 240.865C180.79 240.915 180.887 240.946 180.989 240.958C181.09 240.969 181.192 240.96 181.29 240.932L197.644 236.237C197.743 236.212 197.836 236.166 197.917 236.104C197.998 236.042 198.066 235.963 198.116 235.874C198.166 235.785 198.197 235.686 198.207 235.584C198.217 235.482 198.207 235.38 198.176 235.282C198.149 235.18 198.102 235.085 198.037 235.003C197.972 234.92 197.891 234.852 197.798 234.802C197.706 234.752 197.604 234.722 197.5 234.713C197.395 234.704 197.29 234.716 197.19 234.75L180.836 239.445C180.646 239.509 180.488 239.645 180.395 239.822C180.301 240 180.28 240.207 180.335 240.4ZM194.06 242.199L182.761 245.408C182.553 245.464 182.376 245.6 182.269 245.786C182.162 245.972 182.133 246.194 182.189 246.401C182.245 246.609 182.382 246.786 182.568 246.893C182.754 247 182.976 247.029 183.183 246.973L194.483 243.764C194.69 243.708 194.867 243.572 194.974 243.386C195.081 243.199 195.11 242.978 195.054 242.77C194.998 242.563 194.862 242.386 194.675 242.279C194.489 242.172 194.268 242.143 194.06 242.199ZM119.143 100.269C119.946 101.068 120.934 101.656 122.019 101.982C123.103 102.307 124.251 102.361 125.361 102.136C126.471 101.912 127.509 101.418 128.382 100.697C129.256 99.9763 129.938 99.0512 130.368 98.0037C130.798 96.9563 130.964 95.8189 130.85 94.6922C130.736 93.5656 130.345 92.4845 129.713 91.5447C129.082 90.6049 128.228 89.8355 127.228 89.3045C126.227 88.7735 125.112 88.4974 123.979 88.5006C122.611 88.4892 121.27 88.8878 120.13 89.6451C118.989 90.4025 118.102 91.4838 117.582 92.7498C117.062 94.0159 116.932 95.4087 117.211 96.7488C117.489 98.089 118.162 99.3152 119.143 100.269ZM119.816 91.1924C120.513 90.5043 121.368 89.9982 122.306 89.7189C123.244 89.4395 124.237 89.3954 125.196 89.5906C126.155 89.7857 127.052 90.214 127.806 90.8377C128.561 91.4614 129.15 92.2613 129.522 93.1667C129.895 94.0721 130.038 95.0553 129.94 96.0293C129.843 97.0033 129.506 97.9383 128.962 98.7517C128.417 99.565 127.68 100.232 126.817 100.693C125.953 101.154 124.99 101.396 124.011 101.396C122.828 101.397 121.672 101.046 120.689 100.388C119.707 99.7296 118.942 98.7942 118.493 97.7004C118.043 96.6067 117.929 95.4039 118.165 94.2451C118.4 93.0862 118.975 92.0236 119.816 91.1924Z" fill="black"/>
</svg>
