<svg width="130" height="23" viewBox="0 0 130 23" fill="none" xmlns="http://www.w3.org/2000/svg">
<path d="M4.95996 22.0635C4.53955 21.7456 4.44727 21.2227 4.70361 20.4741L6.84668 14.0962L1.37109 10.1587C0.735352 9.70752 0.46875 9.23584 0.643066 8.72314C0.807129 8.23096 1.28906 7.98486 2.07861 7.99512L8.79492 8.03613L10.8354 1.62744C11.0815 0.868652 11.4507 0.489258 11.9736 0.489258C12.5068 0.489258 12.876 0.868652 13.1221 1.62744L15.1626 8.03613L21.8789 7.99512C22.6685 7.98486 23.1504 8.23096 23.3145 8.72314C23.4785 9.23584 23.2222 9.70752 22.5864 10.1587L17.1108 14.0962L19.2539 20.4741C19.5103 21.2227 19.418 21.7456 18.9976 22.0635C18.5669 22.3916 18.0439 22.2788 17.4082 21.8174L11.9736 17.8286L6.54932 21.8174C5.91357 22.2788 5.38037 22.3916 4.95996 22.0635ZM31.5277 22.0635C31.1073 21.7456 31.015 21.2227 31.2714 20.4741L33.4145 14.0962L27.9389 10.1587C27.3031 9.70752 27.0365 9.23584 27.2108 8.72314C27.3749 8.23096 27.8568 7.98486 28.6464 7.99512L35.3627 8.03613L37.4032 1.62744C37.6493 0.868652 38.0185 0.489258 38.5414 0.489258C39.0746 0.489258 39.4438 0.868652 39.6898 1.62744L41.7304 8.03613L48.4467 7.99512C49.2362 7.98486 49.7182 8.23096 49.8822 8.72314C50.0463 9.23584 49.7899 9.70752 49.1542 10.1587L43.6786 14.0962L45.8217 20.4741C46.078 21.2227 45.9857 21.7456 45.5653 22.0635C45.1347 22.3916 44.6117 22.2788 43.976 21.8174L38.5414 17.8286L33.1171 21.8174C32.4813 22.2788 31.9481 22.3916 31.5277 22.0635ZM58.0955 22.0635C57.6751 21.7456 57.5828 21.2227 57.8392 20.4741L59.9822 14.0962L54.5066 10.1587C53.8709 9.70752 53.6043 9.23584 53.7786 8.72314C53.9427 8.23096 54.4246 7.98486 55.2142 7.99512L61.9305 8.03613L63.971 1.62744C64.2171 0.868652 64.5862 0.489258 65.1092 0.489258C65.6424 0.489258 66.0115 0.868652 66.2576 1.62744L68.2981 8.03613L75.0145 7.99512C75.804 7.98486 76.2859 8.23096 76.45 8.72314C76.6141 9.23584 76.3577 9.70752 75.722 10.1587L70.2464 14.0962L72.3895 20.4741C72.6458 21.2227 72.5535 21.7456 72.1331 22.0635C71.7024 22.3916 71.1795 22.2788 70.5438 21.8174L65.1092 17.8286L59.6849 21.8174C59.0491 22.2788 58.5159 22.3916 58.0955 22.0635ZM84.6633 22.0635C84.2429 21.7456 84.1506 21.2227 84.4069 20.4741L86.55 14.0962L81.0744 10.1587C80.4387 9.70752 80.1721 9.23584 80.3464 8.72314C80.5105 8.23096 80.9924 7.98486 81.7819 7.99512L88.4982 8.03613L90.5388 1.62744C90.7849 0.868652 91.154 0.489258 91.677 0.489258C92.2102 0.489258 92.5793 0.868652 92.8254 1.62744L94.8659 8.03613L101.582 7.99512C102.372 7.98486 102.854 8.23096 103.018 8.72314C103.182 9.23584 102.925 9.70752 102.29 10.1587L96.8142 14.0962L98.9572 20.4741C99.2136 21.2227 99.1213 21.7456 98.7009 22.0635C98.2702 22.3916 97.7473 22.2788 97.1115 21.8174L91.677 17.8286L86.2526 21.8174C85.6169 22.2788 85.0837 22.3916 84.6633 22.0635ZM111.231 22.0635C110.811 21.7456 110.718 21.2227 110.975 20.4741L113.118 14.0962L107.642 10.1587C107.006 9.70752 106.74 9.23584 106.914 8.72314C107.078 8.23096 107.56 7.98486 108.35 7.99512L115.066 8.03613L117.107 1.62744C117.353 0.868652 117.722 0.489258 118.245 0.489258C118.778 0.489258 119.147 0.868652 119.393 1.62744L121.434 8.03613L128.15 7.99512C128.94 7.98486 129.421 8.23096 129.586 8.72314C129.75 9.23584 129.493 9.70752 128.858 10.1587L123.382 14.0962L125.525 20.4741C125.781 21.2227 125.689 21.7456 125.269 22.0635C124.838 22.3916 124.315 22.2788 123.679 21.8174L118.245 17.8286L112.82 21.8174C112.185 22.2788 111.651 22.3916 111.231 22.0635Z" fill="#FEB700"/>
</svg>
