<svg width="22" height="22" viewBox="0 0 22 22" fill="none" xmlns="http://www.w3.org/2000/svg">
<path d="M11.2944 21.0557C5.53174 21.0557 0.835449 16.3594 0.835449 10.5967C0.835449 4.82373 5.53174 0.137695 11.2944 0.137695C17.0674 0.137695 21.7534 4.82373 21.7534 10.5967C21.7534 16.3594 17.0674 21.0557 11.2944 21.0557ZM10.146 15.6108C10.4946 15.6108 10.792 15.4468 11.0073 15.1084L15.8267 7.52051C15.9497 7.30518 16.083 7.06934 16.083 6.84375C16.083 6.36182 15.6626 6.0542 15.2114 6.0542C14.9448 6.0542 14.6782 6.21826 14.4834 6.52588L10.105 13.5601L8.02344 10.8735C7.76709 10.5352 7.5415 10.4429 7.24414 10.4429C6.78271 10.4429 6.42383 10.8223 6.42383 11.2837C6.42383 11.5195 6.51611 11.7451 6.66992 11.9502L9.24365 15.1084C9.51025 15.4673 9.79736 15.6108 10.146 15.6108Z" fill="#1A1A1A"/>
</svg>
